<svg xmlns="http://www.w3.org/2000/svg" width="1440" height="600" viewBox="0 0 1440 600" fill="none"><g clip-path="url(#clip0_4902_26807)"><rect width="1440" height="600" fill="#F7F7F7"></rect><mask id="mask0_4902_26807" style="mask-type:alpha" maskUnits="userSpaceOnUse" x="0" y="0" width="1440" height="600"><path d="M1440 0H0V600H1440V0Z" fill="url(#paint0_linear_4902_26807)"></path></mask><g mask="url(#mask0_4902_26807)"><path d="M1440 0.000244141H0V725.541H1440V0.000244141Z" fill="url(#paint1_linear_4902_26807)"></path><path d="M1632.8 171.35L1506.2 243.515L1400.3 169.46L1526.9 97.1836L1632.8 171.35Z" fill="url(#paint2_linear_4902_26807)" stroke="#B55FFF" stroke-opacity="0.9"></path><path d="M1358.8 462.123L1252.9 388.067L1379.5 315.791L1485.5 389.958L1358.8 462.123Z" fill="url(#paint3_linear_4902_26807)" stroke="#B55FFF" stroke-opacity="0.9"></path><path d="M1126.3 460.232L1020.3 386.066L1147 313.901L1252.9 388.067L1126.3 460.232Z" fill="url(#paint4_linear_4902_26807)" stroke="#B55FFF" stroke-opacity="0.9"></path><path d="M1391.1 645.593L1285.1 571.426L1411.8 499.261L1517.7 573.428L1391.1 645.593Z" fill="url(#paint5_linear_4902_26807)" stroke="#B55FFF" stroke-opacity="0.9"></path><path d="M1285.1 571.426L1232.2 534.399L1358.8 462.123L1411.8 499.261L1285.1 571.426Z" fill="url(#paint6_linear_4902_26807)" stroke="#B55FFF" stroke-opacity="0.9"></path><path d="M1485.5 389.957L1432.5 352.819L1559.2 280.654L1612.1 317.681L1485.5 389.957Z" fill="url(#paint7_linear_4902_26807)" stroke="#B55FFF" stroke-opacity="0.9"></path><path d="M1506.2 243.515L1442.9 279.653L1336.9 205.486L1400.3 169.459L1506.2 243.515Z" fill="url(#paint8_linear_4902_26807)" stroke="#B55FFF" stroke-opacity="0.9"></path><path d="M1252.9 388.067L1199.9 350.928L1326.6 278.763L1379.5 315.791L1252.9 388.067Z" fill="url(#paint9_linear_4902_26807)" stroke="#B55FFF" stroke-opacity="0.9"></path><path d="M1464.8 536.289L1411.8 499.261L1538.4 426.985L1591.4 464.124L1464.8 536.289Z" fill="url(#paint10_linear_4902_26807)" stroke="#B55FFF" stroke-opacity="0.9"></path><path d="M1232.2 534.398L1179.2 497.371L1305.9 425.094L1358.8 462.122L1232.2 534.398Z" fill="url(#paint11_linear_4902_26807)" stroke="#B55FFF" stroke-opacity="0.9"></path><path d="M1432.5 352.819L1379.5 315.791L1464 267.644L1516.9 304.672L1432.5 352.819Z" fill="url(#paint12_linear_4902_26807)" stroke="#B55FFF" stroke-opacity="0.9"></path><path d="M1442.9 279.653L1379.5 315.791L1308.9 266.31L1372.3 230.283L1442.9 279.653Z" fill="url(#paint13_linear_4902_26807)" stroke="#B55FFF" stroke-opacity="0.9"></path><path d="M1199.9 350.928L1147 313.901L1231.4 265.754L1284.4 302.781L1199.9 350.928Z" fill="url(#paint14_linear_4902_26807)" stroke="#B55FFF" stroke-opacity="0.9"></path><path d="M1411.8 499.261L1358.8 462.122L1443.3 413.975L1496.2 451.114L1411.8 499.261Z" fill="url(#paint15_linear_4902_26807)" stroke="#B55FFF" stroke-opacity="0.9"></path><path d="M1444 682.731L1391.1 645.593L1475.5 597.446L1528.5 634.584L1444 682.731Z" fill="url(#paint16_linear_4902_26807)" stroke="#B55FFF" stroke-opacity="0.9"></path><path d="M1179.2 497.371L1126.3 460.232L1210.7 412.085L1263.6 449.113L1179.2 497.371Z" fill="url(#paint17_linear_4902_26807)" stroke="#B55FFF" stroke-opacity="0.9"></path><path d="M1372.3 230.283L1308.9 266.31L1273.6 241.625L1336.9 205.487L1372.3 230.283Z" fill="url(#paint18_linear_4902_26807)" stroke="#B55FFF" stroke-opacity="0.9"></path><path d="M1284.4 302.781L1231.4 265.754L1273.6 241.625L1326.6 278.764L1284.4 302.781Z" fill="url(#paint19_linear_4902_26807)" stroke="#B55FFF" stroke-opacity="0.9"></path><path d="M1263.6 449.113L1210.7 412.085L1252.9 388.067L1305.9 425.095L1263.6 449.113Z" fill="url(#paint20_linear_4902_26807)" stroke="#B55FFF" stroke-opacity="0.9"></path><path d="M1188.4 21.1268L1061.8 93.2918L955.8 19.1254L1082.5 -53.0396L1188.4 21.1268Z" fill="url(#paint21_linear_4902_26807)" stroke="#B55FFF" stroke-opacity="0.9"></path><path d="M723.2 17.2351L829.2 91.4015L702.5 163.678L596.6 89.5112L723.2 17.2351Z" fill="url(#paint22_linear_4902_26807)" stroke="#B55FFF" stroke-opacity="0.9"></path><path d="M1167.7 167.458L1041 239.734L935.1 165.568L1061.8 93.2917L1167.7 167.458Z" fill="url(#paint23_linear_4902_26807)" stroke="#B55FFF" stroke-opacity="0.9"></path><path d="M1147 313.901L1020.3 386.066L914.4 311.899L1041 239.734L1147 313.901Z" fill="url(#paint24_linear_4902_26807)" stroke="#B55FFF" stroke-opacity="0.9"></path><path d="M723.2 17.235L596.6 89.5111L508.2 27.5761L634.9 -44.5889L723.2 17.235Z" fill="url(#paint25_linear_4902_26807)" stroke="#B55FFF" stroke-opacity="0.9"></path><path d="M1421 23.0173L1294.3 95.2934L1188.4 21.1269L1315 -51.1492L1421 23.0173Z" fill="url(#paint26_linear_4902_26807)" stroke="#B55FFF" stroke-opacity="0.9"></path><path d="M1463.2 133.544L1336.6 205.709L1283.9 168.904L1410.6 96.6274L1463.2 133.544Z" fill="url(#paint27_linear_4902_26807)" stroke="#B55FFF" stroke-opacity="0.9"></path><path d="M1410.6 96.1829L1284 168.459L1231 131.32L1357.7 59.1553L1410.6 96.1829Z" fill="url(#paint28_linear_4902_26807)" stroke="#B55FFF" stroke-opacity="0.9"></path><path d="M1336.9 205.487L1273.6 241.625L1167.7 167.458L1231 131.32L1336.9 205.487Z" fill="url(#paint29_linear_4902_26807)" stroke="#B55FFF" stroke-opacity="0.9"></path><path d="M723.2 17.2352L849.9 -54.9297L955.8 19.1255L829.2 91.4017L723.2 17.2352Z" fill="url(#paint30_linear_4902_26807)" stroke="#B55FFF" stroke-opacity="0.9"></path><path d="M1061.8 93.2916L998.4 129.43L892.5 55.2633L955.8 19.1252L1061.8 93.2916Z" fill="url(#paint31_linear_4902_26807)" stroke="#B55FFF" stroke-opacity="0.9"></path><path d="M829.2 91.4014L882.1 128.429L755.5 200.705L702.5 163.677L829.2 91.4014Z" fill="url(#paint32_linear_4902_26807)" stroke="#B55FFF" stroke-opacity="0.9"></path><path d="M1041 239.734L977.7 275.872L871.8 201.706L935.1 165.568L1041 239.734Z" fill="url(#paint33_linear_4902_26807)" stroke="#B55FFF" stroke-opacity="0.9"></path><path d="M1294.3 95.2934L1231 131.32L1125.1 57.265L1188.4 21.127L1294.3 95.2934Z" fill="url(#paint34_linear_4902_26807)" stroke="#B55FFF" stroke-opacity="0.9"></path><path d="M1273.6 241.625L1210.3 277.763L1104.4 203.596L1167.7 167.458L1273.6 241.625Z" fill="url(#paint35_linear_4902_26807)" stroke="#B55FFF" stroke-opacity="0.9"></path><path d="M849.9 -54.9298L913.2 -91.0679L1019.1 -16.9014L955.8 19.1254L849.9 -54.9298Z" fill="url(#paint36_linear_4902_26807)" stroke="#B55FFF" stroke-opacity="0.9"></path><path d="M998.4 129.43L935.1 165.568L864.5 116.086L927.8 80.0596L998.4 129.43Z" fill="url(#paint37_linear_4902_26807)" stroke="#B55FFF" stroke-opacity="0.9"></path><path d="M882.1 128.429L935.1 165.568L850.7 213.715L797.7 176.576L882.1 128.429Z" fill="url(#paint38_linear_4902_26807)" stroke="#B55FFF" stroke-opacity="0.9"></path><path d="M977.7 275.872L914.4 311.899L843.8 262.529L907.1 226.391L977.7 275.872Z" fill="url(#paint39_linear_4902_26807)" stroke="#B55FFF" stroke-opacity="0.9"></path><path d="M1231 131.32L1167.7 167.458L1097.1 118.088L1160.4 81.95L1231 131.32Z" fill="url(#paint40_linear_4902_26807)" stroke="#B55FFF" stroke-opacity="0.9"></path><path d="M1526.9 97.1835L1463.6 133.322L1393 83.8402L1456.3 47.7021L1526.9 97.1835Z" fill="url(#paint41_linear_4902_26807)" stroke="#B55FFF" stroke-opacity="0.9"></path><path d="M1210.3 277.763L1147 313.901L1076.3 264.42L1139.7 228.281L1210.3 277.763Z" fill="url(#paint42_linear_4902_26807)" stroke="#B55FFF" stroke-opacity="0.9"></path><path d="M786.6 -18.9028L723.2 17.2353L652.6 -32.1349L715.9 -68.2729L786.6 -18.9028Z" fill="url(#paint43_linear_4902_26807)" stroke="#B55FFF" stroke-opacity="0.9"></path><path d="M927.8 80.0597L864.5 116.087L829.2 91.4015L892.5 55.2634L927.8 80.0597Z" fill="url(#paint44_linear_4902_26807)" stroke="#B55FFF" stroke-opacity="0.9"></path><path d="M797.7 176.576L850.7 213.715L808.5 237.733L755.5 200.705L797.7 176.576Z" fill="url(#paint45_linear_4902_26807)" stroke="#B55FFF" stroke-opacity="0.9"></path><path d="M907.1 226.391L843.8 262.529L808.5 237.733L871.8 201.706L907.1 226.391Z" fill="url(#paint46_linear_4902_26807)" stroke="#B55FFF" stroke-opacity="0.9"></path><path d="M1160.4 81.95L1097.1 118.088L1061.8 93.2918L1125.1 57.2649L1160.4 81.95Z" fill="url(#paint47_linear_4902_26807)" stroke="#B55FFF" stroke-opacity="0.9"></path><path d="M1456.3 47.7021L1393 83.8402L1357.7 59.1551L1421 23.0171L1456.3 47.7021Z" fill="url(#paint48_linear_4902_26807)" stroke="#B55FFF" stroke-opacity="0.9"></path><path d="M1177.7 -40.0298L1230.6 -3.00216L1188.4 21.1269L1135.4 -16.0119L1177.7 -40.0298Z" fill="url(#paint49_linear_4902_26807)" stroke="#B55FFF" stroke-opacity="0.9"></path><path d="M1139.7 228.282L1076.3 264.42L1041 239.734L1104.4 203.596L1139.7 228.282Z" fill="url(#paint50_linear_4902_26807)" stroke="#B55FFF" stroke-opacity="0.9"></path><path d="M1283.6 570.314L1157 642.479L1051 568.312L1177.7 496.147L1283.6 570.314Z" fill="url(#paint51_linear_4902_26807)" stroke="#B55FFF" stroke-opacity="0.9"></path><path d="M1283.6 570.314L1389.5 644.369L1262.9 716.645L1157 642.479L1283.6 570.314Z" fill="url(#paint52_linear_4902_26807)" stroke="#B55FFF" stroke-opacity="0.9"></path><path d="M1157 642.479L1093.6 678.617L987.7 604.451L1051 568.313L1157 642.479Z" fill="url(#paint53_linear_4902_26807)" stroke="#B55FFF" stroke-opacity="0.9"></path><path d="M839.2 419.98L712.5 492.256L606.6 418.09L733.2 345.925L839.2 419.98Z" fill="url(#paint54_linear_4902_26807)" stroke="#B55FFF" stroke-opacity="0.9"></path><path d="M374 416.199L479.9 490.366L353.3 562.531L247.4 488.364L374 416.199Z" fill="url(#paint55_linear_4902_26807)" stroke="#B55FFF" stroke-opacity="0.9"></path><path d="M818.4 566.422L691.8 638.587L585.9 564.532L712.5 492.256L818.4 566.422Z" fill="url(#paint56_linear_4902_26807)" stroke="#B55FFF" stroke-opacity="0.9"></path><path d="M374 416.199L247.4 488.364L159 426.54L285.6 354.264L374 416.199Z" fill="url(#paint57_linear_4902_26807)" stroke="#B55FFF" stroke-opacity="0.9"></path><path d="M1071.7 421.981L945.1 494.146L839.2 419.98L965.8 347.815L1071.7 421.981Z" fill="url(#paint58_linear_4902_26807)" stroke="#B55FFF" stroke-opacity="0.9"></path><path d="M1114 532.397L987.3 604.673L934.7 567.868L1061.3 495.592L1114 532.397Z" fill="url(#paint59_linear_4902_26807)" stroke="#B55FFF" stroke-opacity="0.9"></path><path d="M1061.4 495.147L934.7 567.423L881.8 530.284L1008.4 458.119L1061.4 495.147Z" fill="url(#paint60_linear_4902_26807)" stroke="#B55FFF" stroke-opacity="0.9"></path><path d="M690.2 235.843L563.6 308.008L475.2 246.184L601.8 173.907L690.2 235.843Z" fill="url(#paint61_linear_4902_26807)" stroke="#B55FFF" stroke-opacity="0.9"></path><path d="M753.9 199.482L859.9 273.648L733.2 345.924L627.3 271.758L753.9 199.482Z" fill="url(#paint62_linear_4902_26807)" stroke="#B55FFF" stroke-opacity="0.9"></path><path d="M987.7 604.451L924.4 640.589L818.4 566.422L881.8 530.284L987.7 604.451Z" fill="url(#paint63_linear_4902_26807)" stroke="#B55FFF" stroke-opacity="0.9"></path><path d="M563.6 308.008L500.6 343.923L412.3 282.099L475.2 246.184L563.6 308.008Z" fill="url(#paint64_linear_4902_26807)" stroke="#B55FFF" stroke-opacity="0.9"></path><path d="M374 416.199L500.6 343.923L606.6 418.09L479.9 490.366L374 416.199Z" fill="url(#paint65_linear_4902_26807)" stroke="#B55FFF" stroke-opacity="0.9"></path><path d="M712.5 492.256L649.2 528.394L543.3 454.228L606.6 418.09L712.5 492.256Z" fill="url(#paint66_linear_4902_26807)" stroke="#B55FFF" stroke-opacity="0.9"></path><path d="M479.9 490.366L532.9 527.393L406.2 599.669L353.3 562.531L479.9 490.366Z" fill="url(#paint67_linear_4902_26807)" stroke="#B55FFF" stroke-opacity="0.9"></path><path d="M691.8 638.587L628.5 674.725L522.5 600.559L585.9 564.532L691.8 638.587Z" fill="url(#paint68_linear_4902_26807)" stroke="#B55FFF" stroke-opacity="0.9"></path><path d="M945.1 494.146L881.8 530.284L775.8 456.118L839.2 419.98L945.1 494.146Z" fill="url(#paint69_linear_4902_26807)" stroke="#B55FFF" stroke-opacity="0.9"></path><path d="M859.9 273.649L912.8 310.676L786.2 382.952L733.2 345.925L859.9 273.649Z" fill="url(#paint70_linear_4902_26807)" stroke="#B55FFF" stroke-opacity="0.9"></path><path d="M924.4 640.589L861 676.616L755.1 602.56L818.4 566.422L924.4 640.589Z" fill="url(#paint71_linear_4902_26807)" stroke="#B55FFF" stroke-opacity="0.9"></path><path d="M500.6 343.923L436.9 380.284L348.5 318.46L412.3 282.099L500.6 343.923Z" fill="url(#paint72_linear_4902_26807)" stroke="#B55FFF" stroke-opacity="0.9"></path><path d="M500.6 343.923L564 307.785L669.9 381.952L606.6 418.09L500.6 343.923Z" fill="url(#paint73_linear_4902_26807)" stroke="#B55FFF" stroke-opacity="0.9"></path><path d="M649.2 528.394L585.9 564.421L515.2 515.051L578.6 478.913L649.2 528.394Z" fill="url(#paint74_linear_4902_26807)" stroke="#B55FFF" stroke-opacity="0.9"></path><path d="M532.9 527.393L585.9 564.421L501.4 612.679L448.5 575.54L532.9 527.393Z" fill="url(#paint75_linear_4902_26807)" stroke="#B55FFF" stroke-opacity="0.9"></path><path d="M881.8 530.284L818.4 566.422L747.8 516.941L811.1 480.803L881.8 530.284Z" fill="url(#paint76_linear_4902_26807)" stroke="#B55FFF" stroke-opacity="0.9"></path><path d="M1177.7 496.148L1114.3 532.174L1043.7 482.804L1107 446.666L1177.7 496.148Z" fill="url(#paint77_linear_4902_26807)" stroke="#B55FFF" stroke-opacity="0.9"></path><path d="M753.9 199.482L690.6 235.62L620 186.139L683.3 150.112L753.9 199.482Z" fill="url(#paint78_linear_4902_26807)" stroke="#B55FFF" stroke-opacity="0.9"></path><path d="M912.8 310.676L965.8 347.815L881.4 395.962L828.4 358.823L912.8 310.676Z" fill="url(#paint79_linear_4902_26807)" stroke="#B55FFF" stroke-opacity="0.9"></path><path d="M437.3 380.061L374 416.199L303.4 366.718L366.7 330.58L437.3 380.061Z" fill="url(#paint80_linear_4902_26807)" stroke="#B55FFF" stroke-opacity="0.9"></path><path d="M564 307.785L627.3 271.758L697.9 321.128L634.6 357.266L564 307.785Z" fill="url(#paint81_linear_4902_26807)" stroke="#B55FFF" stroke-opacity="0.9"></path><path d="M578.6 478.913L515.2 515.051L479.9 490.366L543.3 454.228L578.6 478.913Z" fill="url(#paint82_linear_4902_26807)" stroke="#B55FFF" stroke-opacity="0.9"></path><path d="M448.5 575.541L501.4 612.679L459.2 636.697L406.2 599.67L448.5 575.541Z" fill="url(#paint83_linear_4902_26807)" stroke="#B55FFF" stroke-opacity="0.9"></path><path d="M557.8 625.355L494.5 661.382L459.2 636.697L522.5 600.559L557.8 625.355Z" fill="url(#paint84_linear_4902_26807)" stroke="#B55FFF" stroke-opacity="0.9"></path><path d="M811.1 480.803L747.8 516.941L712.5 492.256L775.8 456.118L811.1 480.803Z" fill="url(#paint85_linear_4902_26807)" stroke="#B55FFF" stroke-opacity="0.9"></path><path d="M1107 446.666L1043.7 482.805L1008.4 458.12L1071.7 421.981L1107 446.666Z" fill="url(#paint86_linear_4902_26807)" stroke="#B55FFF" stroke-opacity="0.9"></path><path d="M683.1 149.89L619.4 186.25L601.8 173.907L665.6 137.658L683.1 149.89Z" fill="url(#paint87_linear_4902_26807)" stroke="#B55FFF" stroke-opacity="0.9"></path><path d="M828.4 358.823L881.4 395.962L839.2 419.98L786.2 382.952L828.4 358.823Z" fill="url(#paint88_linear_4902_26807)" stroke="#B55FFF" stroke-opacity="0.9"></path><path d="M366.1 330.691L303.2 366.606L285.6 354.264L348.5 318.459L366.1 330.691Z" fill="url(#paint89_linear_4902_26807)" stroke="#B55FFF" stroke-opacity="0.9"></path><path d="M634.6 357.266L697.9 321.128L733.2 345.925L669.9 381.952L634.6 357.266Z" fill="url(#paint90_linear_4902_26807)" stroke="#B55FFF" stroke-opacity="0.9"></path><rect width="36.9266" height="56.1284" transform="translate(1414.4 141) rotate(59.567)" fill="url(#paint91_linear_4902_26807)"></rect><ellipse cx="1408.46" cy="165.898" rx="17.7248" ry="17.7248" transform="rotate(59.567 1408.46 165.898)" fill="#0F9D58" fill-opacity="0.5"></ellipse><circle cx="1408.46" cy="165.898" r="13.2936" transform="rotate(59.567 1408.46 165.898)" fill="#0F9D58"></circle><path d="M1415.47 172.274C1415.85 171.986 1416.14 171.752 1416.32 171.584C1417.55 170.409 1417.36 167.968 1417.2 166.868C1417.15 166.513 1417.1 166.281 1417.1 166.281L1416.86 165.615L1412.82 158.731L1412.38 158.184C1412.38 158.184 1412.2 158.032 1411.91 157.811C1411.02 157.113 1408.99 155.788 1407.36 156.291C1407.11 156.376 1406.76 156.514 1406.35 156.693C1403.12 158.202 1395.54 162.686 1395.54 162.686L1382.36 170.816L1375.25 175.637L1373.01 177.152C1373.01 177.152 1372.1 177.746 1373.07 180.632C1373.42 181.65 1373.98 182.966 1374.92 184.611C1375.06 184.851 1375.2 185.091 1375.34 185.331L1375.36 185.317C1379.2 191.583 1381.38 191.363 1381.38 191.363L1391.46 186.312L1404.98 178.758C1404.97 178.795 1412.58 174.359 1415.47 172.274Z" fill="#273896"></path><path d="M1397.05 163.026C1397.05 163.026 1395.69 161.019 1395 161.136C1394.3 161.253 1393.9 161.652 1393.9 161.652C1393.9 161.652 1395.33 164.296 1395.86 164.211C1396.39 164.126 1397.24 163.3 1397.05 163.026Z" fill="#273896"></path><path d="M1405.68 177.706C1405.68 177.706 1406.77 179.873 1406.33 180.422C1405.89 180.97 1405.34 181.13 1405.34 181.13C1405.34 181.13 1403.73 178.593 1404.06 178.172C1404.39 177.751 1405.54 177.429 1405.68 177.706Z" fill="#273896"></path><path d="M1411.93 157.835C1410.7 157.976 1406.85 158.11 1406.38 157.676C1406.1 157.417 1405.96 157.177 1406.34 156.73C1406.78 156.538 1407.12 156.4 1407.35 156.328C1408.99 155.787 1411.03 157.137 1411.93 157.835Z" fill="white"></path><path d="M1381.86 171.984L1381.88 173.423L1384.94 172.56C1384.94 172.56 1393.79 167.392 1399.47 161.638L1381.86 171.984Z" fill="white" fill-opacity="0.9"></path><path d="M1407.79 174.978L1401.82 177.262C1401.82 177.262 1401.56 175.218 1399.15 171.375C1396.97 167.398 1395.31 166.18 1395.31 166.18L1395.51 165.999L1400.21 162.073C1401.93 161.061 1404.77 164.073 1406.52 167.048C1407.53 168.775 1408.46 171.133 1408.56 172.852C1408.62 173.846 1408.43 174.605 1407.79 174.978Z" fill="white" fill-opacity="0.9"></path><path d="M1417.23 166.854C1416.51 167.859 1414.51 171.159 1414.66 171.78C1414.76 172.146 1414.9 172.385 1415.47 172.274C1415.85 171.986 1416.14 171.752 1416.32 171.584C1417.57 170.396 1417.39 167.955 1417.23 166.854Z" fill="white"></path><path d="M1384.52 187.618C1381.66 186.391 1380.52 184.387 1379.66 182.923C1378.88 181.604 1377.83 179.866 1377.83 177.319C1377.82 176.999 1377.84 176.666 1377.88 176.32L1384.51 173.588C1384.51 173.588 1384.82 175.63 1386.76 178.719C1387.36 179.787 1387.94 180.672 1388.45 181.339C1389.43 182.637 1390.15 183.183 1390.15 183.183L1384.52 187.618Z" fill="white" fill-opacity="0.9"></path><path d="M1390.23 186.232L1388.98 185.512L1391.23 183.259C1391.23 183.259 1400.05 178.042 1407.84 175.887L1390.23 186.232Z" fill="white" fill-opacity="0.9"></path><path d="M1408.59 172.863C1403.08 168.776 1398.52 166.874 1395.54 166.009L1400.25 162.084C1401.97 161.072 1404.81 164.084 1406.55 167.058C1407.57 168.785 1408.5 171.144 1408.59 172.863Z" fill="white" fill-opacity="0.9"></path><path d="M1388.45 181.278C1384.44 180.73 1380.73 179.037 1377.84 177.282C1377.83 176.962 1377.85 176.629 1377.89 176.283L1384.52 173.552C1384.52 173.552 1384.83 175.593 1386.77 178.682C1387.34 179.764 1387.95 180.636 1388.45 181.278Z" fill="white" fill-opacity="0.9"></path><path d="M1373.06 180.669C1372.11 177.807 1373 177.189 1373 177.189L1375.25 175.674C1375.42 175.962 1375.57 176.324 1375.51 176.487C1375.38 176.788 1373.62 178.245 1373.65 178.772C1373.69 179.3 1373.87 180.129 1373.63 180.299C1373.5 180.379 1373.26 180.549 1373.06 180.669Z" fill="#F74848"></path><path d="M1378.36 189.688C1380.4 191.912 1381.37 191.438 1381.37 191.438L1383.79 190.21C1383.62 189.922 1383.37 189.613 1383.2 189.584C1382.88 189.549 1380.75 190.382 1380.3 190.094C1379.86 189.806 1379.23 189.244 1378.96 189.366C1378.84 189.47 1378.58 189.593 1378.36 189.688Z" fill="#F74848"></path><rect width="36.9266" height="56.1284" transform="translate(1337 468.511) rotate(-48.1611)" fill="url(#paint92_linear_4902_26807)"></rect><ellipse cx="1362.52" cy="466.579" rx="17.7248" ry="17.7248" transform="rotate(-48.1611 1362.52 466.579)" fill="#0F9D58" fill-opacity="0.5"></ellipse><circle cx="1362.52" cy="466.579" r="13.2936" transform="rotate(-48.1611 1362.52 466.579)" fill="#0F9D58"></circle><path d="M1366.46 457.963C1366.07 457.689 1365.76 457.485 1365.55 457.369C1364.05 456.554 1361.78 457.473 1360.78 457.959C1360.46 458.12 1360.26 458.233 1360.26 458.233L1359.69 458.664L1354.37 464.613L1353.98 465.201C1353.98 465.201 1353.89 465.419 1353.77 465.756C1353.38 466.824 1352.73 469.159 1353.71 470.554C1353.86 470.771 1354.1 471.058 1354.4 471.397C1356.82 474.013 1363.4 479.866 1363.4 479.866L1375.15 489.944L1381.91 495.246L1384.04 496.927C1384.04 496.927 1384.88 497.605 1387.33 495.808C1388.2 495.16 1389.28 494.226 1390.56 492.834C1390.75 492.627 1390.93 492.42 1391.12 492.212L1391.1 492.195C1395.9 486.635 1395.02 484.619 1395.02 484.619L1387.14 476.555L1375.83 465.979C1375.87 465.976 1369.33 460.081 1366.46 457.963Z" fill="#273896"></path><path d="M1363.26 478.325C1363.26 478.325 1361.76 480.233 1362.09 480.858C1362.41 481.483 1362.91 481.747 1362.91 481.747C1362.91 481.747 1365 479.579 1364.75 479.101C1364.51 478.623 1363.46 478.058 1363.26 478.325Z" fill="#273896"></path><path d="M1374.62 465.64C1374.62 465.64 1376.35 463.942 1377.01 464.194C1377.66 464.445 1377.98 464.917 1377.98 464.917C1377.98 464.917 1376.06 467.226 1375.55 467.038C1375.05 466.85 1374.39 465.85 1374.62 465.64Z" fill="#273896"></path><path d="M1353.79 465.735C1354.29 466.862 1355.6 470.491 1355.33 471.07C1355.16 471.41 1354.98 471.617 1354.44 471.394C1354.12 471.037 1353.88 470.75 1353.74 470.551C1352.73 469.159 1353.39 466.803 1353.79 465.735Z" fill="white"></path><path d="M1376.42 490.069L1377.78 489.609L1376.03 486.957C1376.03 486.957 1368.41 480.098 1361.2 476.445L1376.42 490.069Z" fill="white" fill-opacity="0.9"></path><path d="M1371.38 464.454L1375.37 469.449C1375.37 469.449 1373.5 470.315 1370.57 473.782C1367.45 477.072 1366.8 479.025 1366.8 479.025L1366.56 478.891L1361.39 475.605C1359.9 474.272 1361.91 470.653 1364.21 468.083C1365.55 466.591 1367.51 464.988 1369.12 464.374C1370.04 464.009 1370.83 463.963 1371.38 464.454Z" fill="white" fill-opacity="0.9"></path><path d="M1360.76 457.941C1361.94 458.322 1365.69 459.216 1366.24 458.883C1366.56 458.683 1366.74 458.476 1366.46 457.963C1366.07 457.689 1365.76 457.485 1365.55 457.368C1364.03 456.536 1361.76 457.455 1360.76 457.941Z" fill="white"></path><path d="M1390.5 482.773C1390.2 485.865 1388.64 487.568 1387.51 488.833C1386.49 489.973 1385.15 491.503 1382.73 492.281C1382.43 492.383 1382.1 492.468 1381.76 492.535L1377.14 487.055C1377.14 487.055 1378.99 486.133 1381.34 483.348C1382.18 482.453 1382.84 481.631 1383.32 480.939C1384.26 479.614 1384.56 478.764 1384.56 478.764L1390.5 482.773Z" fill="white" fill-opacity="0.9"></path><path d="M1387.44 477.757L1387.14 479.163L1384.31 477.713C1384.31 477.713 1376.65 470.895 1372.23 464.133L1387.44 477.757Z" fill="white" fill-opacity="0.9"></path><path d="M1369.12 464.336C1366.9 470.829 1366.48 475.754 1366.56 478.853L1361.39 475.566C1359.9 474.234 1361.91 470.615 1364.21 468.045C1365.54 466.552 1367.51 464.95 1369.12 464.336Z" fill="white" fill-opacity="0.9"></path><path d="M1383.27 480.963C1383.97 484.95 1383.48 488.998 1382.69 492.285C1382.39 492.387 1382.07 492.472 1381.72 492.539L1377.1 487.059C1377.1 487.059 1378.95 486.137 1381.3 483.352C1382.16 482.475 1382.81 481.635 1383.27 480.963Z" fill="white" fill-opacity="0.9"></path><path d="M1387.37 495.804C1384.93 497.581 1384.08 496.924 1384.08 496.924L1381.95 495.242C1382.17 494.994 1382.47 494.739 1382.64 494.743C1382.97 494.774 1384.89 496.012 1385.38 495.817C1385.88 495.623 1386.61 495.197 1386.84 495.369C1386.96 495.475 1387.2 495.647 1387.37 495.804Z" fill="#F74848"></path><path d="M1394.35 488.011C1395.85 485.393 1395.1 484.612 1395.1 484.612L1393.19 482.682C1392.97 482.93 1392.75 483.256 1392.77 483.426C1392.84 483.747 1394.28 485.524 1394.14 486.034C1394 486.544 1393.66 487.321 1393.86 487.534C1393.99 487.619 1394.19 487.832 1394.35 488.011Z" fill="#F74848"></path></g><rect y="2" width="844" height="598" fill="url(#paint93_linear_4902_26807)"></rect></g><defs><linearGradient id="paint0_linear_4902_26807" x1="1007" y1="179.104" x2="-362.476" y2="91.972" gradientUnits="userSpaceOnUse"><stop stop-color="#FAFBFF" stop-opacity="0.7"></stop><stop offset="0.884804" stop-color="#FAFBFF"></stop></linearGradient><linearGradient id="paint1_linear_4902_26807" x1="1007" y1="216.58" x2="-364.224" y2="144.432" gradientUnits="userSpaceOnUse"><stop stop-color="#FAFBFF" stop-opacity="0.7"></stop><stop offset="0.884804" stop-color="#FAFBFF"></stop></linearGradient><linearGradient id="paint2_linear_4902_26807" x1="1562.89" y1="140.865" x2="1341.27" y2="131.53" gradientUnits="userSpaceOnUse"><stop stop-color="#FAFBFF" stop-opacity="0.7"></stop><stop offset="0.884804" stop-color="#FAFBFF"></stop></linearGradient><linearGradient id="paint3_linear_4902_26807" x1="1415.56" y1="359.472" x2="1193.85" y2="350.13" gradientUnits="userSpaceOnUse"><stop stop-color="#FAFBFF" stop-opacity="0.7"></stop><stop offset="0.884804" stop-color="#FAFBFF"></stop></linearGradient><linearGradient id="paint4_linear_4902_26807" x1="1182.96" y1="357.582" x2="961.248" y2="348.239" gradientUnits="userSpaceOnUse"><stop stop-color="#FAFBFF" stop-opacity="0.7"></stop><stop offset="0.884804" stop-color="#FAFBFF"></stop></linearGradient><linearGradient id="paint5_linear_4902_26807" x1="1447.76" y1="542.942" x2="1226.05" y2="533.6" gradientUnits="userSpaceOnUse"><stop stop-color="#FAFBFF" stop-opacity="0.7"></stop><stop offset="0.884804" stop-color="#FAFBFF"></stop></linearGradient><linearGradient id="paint6_linear_4902_26807" x1="1357.8" y1="494.751" x2="1186.62" y2="487.294" gradientUnits="userSpaceOnUse"><stop stop-color="#FAFBFF" stop-opacity="0.7"></stop><stop offset="0.884804" stop-color="#FAFBFF"></stop></linearGradient><linearGradient id="paint7_linear_4902_26807" x1="1558.1" y1="313.282" x2="1386.92" y2="305.825" gradientUnits="userSpaceOnUse"><stop stop-color="#FAFBFF" stop-opacity="0.7"></stop><stop offset="0.884804" stop-color="#FAFBFF"></stop></linearGradient><linearGradient id="paint8_linear_4902_26807" x1="1455.29" y1="202.353" x2="1293.9" y2="195.779" gradientUnits="userSpaceOnUse"><stop stop-color="#FAFBFF" stop-opacity="0.7"></stop><stop offset="0.884804" stop-color="#FAFBFF"></stop></linearGradient><linearGradient id="paint9_linear_4902_26807" x1="1325.5" y1="311.391" x2="1154.32" y2="303.935" gradientUnits="userSpaceOnUse"><stop stop-color="#FAFBFF" stop-opacity="0.7"></stop><stop offset="0.884804" stop-color="#FAFBFF"></stop></linearGradient><linearGradient id="paint10_linear_4902_26807" x1="1537.4" y1="459.613" x2="1366.22" y2="452.157" gradientUnits="userSpaceOnUse"><stop stop-color="#FAFBFF" stop-opacity="0.7"></stop><stop offset="0.884804" stop-color="#FAFBFF"></stop></linearGradient><linearGradient id="paint11_linear_4902_26807" x1="1304.8" y1="457.722" x2="1133.62" y2="450.266" gradientUnits="userSpaceOnUse"><stop stop-color="#FAFBFF" stop-opacity="0.7"></stop><stop offset="0.884804" stop-color="#FAFBFF"></stop></linearGradient><linearGradient id="paint12_linear_4902_26807" x1="1475.58" y1="293.069" x2="1344.62" y2="287.469" gradientUnits="userSpaceOnUse"><stop stop-color="#FAFBFF" stop-opacity="0.7"></stop><stop offset="0.884804" stop-color="#FAFBFF"></stop></linearGradient><linearGradient id="paint13_linear_4902_26807" x1="1402.61" y1="255.808" x2="1274.87" y2="250.501" gradientUnits="userSpaceOnUse"><stop stop-color="#FAFBFF" stop-opacity="0.7"></stop><stop offset="0.884804" stop-color="#FAFBFF"></stop></linearGradient><linearGradient id="paint14_linear_4902_26807" x1="1243.08" y1="291.179" x2="1112.12" y2="285.578" gradientUnits="userSpaceOnUse"><stop stop-color="#FAFBFF" stop-opacity="0.7"></stop><stop offset="0.884804" stop-color="#FAFBFF"></stop></linearGradient><linearGradient id="paint15_linear_4902_26807" x1="1454.88" y1="439.434" x2="1323.92" y2="433.84" gradientUnits="userSpaceOnUse"><stop stop-color="#FAFBFF" stop-opacity="0.7"></stop><stop offset="0.884804" stop-color="#FAFBFF"></stop></linearGradient><linearGradient id="paint16_linear_4902_26807" x1="1487.18" y1="622.904" x2="1356.22" y2="617.311" gradientUnits="userSpaceOnUse"><stop stop-color="#FAFBFF" stop-opacity="0.7"></stop><stop offset="0.884804" stop-color="#FAFBFF"></stop></linearGradient><linearGradient id="paint17_linear_4902_26807" x1="1222.31" y1="437.544" x2="1091.45" y2="431.959" gradientUnits="userSpaceOnUse"><stop stop-color="#FAFBFF" stop-opacity="0.7"></stop><stop offset="0.884804" stop-color="#FAFBFF"></stop></linearGradient><linearGradient id="paint18_linear_4902_26807" x1="1342.62" y1="223.643" x2="1248.55" y2="219.596" gradientUnits="userSpaceOnUse"><stop stop-color="#FAFBFF" stop-opacity="0.7"></stop><stop offset="0.884804" stop-color="#FAFBFF"></stop></linearGradient><linearGradient id="paint19_linear_4902_26807" x1="1297.97" y1="259.88" x2="1207.22" y2="256.135" gradientUnits="userSpaceOnUse"><stop stop-color="#FAFBFF" stop-opacity="0.7"></stop><stop offset="0.884804" stop-color="#FAFBFF"></stop></linearGradient><linearGradient id="paint20_linear_4902_26807" x1="1277.27" y1="406.29" x2="1186.52" y2="402.538" gradientUnits="userSpaceOnUse"><stop stop-color="#FAFBFF" stop-opacity="0.7"></stop><stop offset="0.884804" stop-color="#FAFBFF"></stop></linearGradient><linearGradient id="paint21_linear_4902_26807" x1="1118.46" y1="-9.35856" x2="896.748" y2="-18.7013" gradientUnits="userSpaceOnUse"><stop stop-color="#FAFBFF" stop-opacity="0.7"></stop><stop offset="0.884804" stop-color="#FAFBFF"></stop></linearGradient><linearGradient id="paint22_linear_4902_26807" x1="759.258" y1="60.9493" x2="537.548" y2="51.6137" gradientUnits="userSpaceOnUse"><stop stop-color="#FAFBFF" stop-opacity="0.7"></stop><stop offset="0.884804" stop-color="#FAFBFF"></stop></linearGradient><linearGradient id="paint23_linear_4902_26807" x1="1097.76" y1="137.006" x2="876.048" y2="127.67" gradientUnits="userSpaceOnUse"><stop stop-color="#FAFBFF" stop-opacity="0.7"></stop><stop offset="0.884804" stop-color="#FAFBFF"></stop></linearGradient><linearGradient id="paint24_linear_4902_26807" x1="1077.06" y1="283.415" x2="855.348" y2="274.073" gradientUnits="userSpaceOnUse"><stop stop-color="#FAFBFF" stop-opacity="0.7"></stop><stop offset="0.884804" stop-color="#FAFBFF"></stop></linearGradient><linearGradient id="paint25_linear_4902_26807" x1="658.551" y1="-4.55902" x2="453.623" y2="-13.2692" gradientUnits="userSpaceOnUse"><stop stop-color="#FAFBFF" stop-opacity="0.7"></stop><stop offset="0.884804" stop-color="#FAFBFF"></stop></linearGradient><linearGradient id="paint26_linear_4902_26807" x1="1351.06" y1="-7.43498" x2="1129.35" y2="-16.7706" gradientUnits="userSpaceOnUse"><stop stop-color="#FAFBFF" stop-opacity="0.7"></stop><stop offset="0.884804" stop-color="#FAFBFF"></stop></linearGradient><linearGradient id="paint27_linear_4902_26807" x1="1409.29" y1="129.189" x2="1238.4" y2="121.743" gradientUnits="userSpaceOnUse"><stop stop-color="#FAFBFF" stop-opacity="0.7"></stop><stop offset="0.884804" stop-color="#FAFBFF"></stop></linearGradient><linearGradient id="paint28_linear_4902_26807" x1="1356.6" y1="91.7832" x2="1185.42" y2="84.3271" gradientUnits="userSpaceOnUse"><stop stop-color="#FAFBFF" stop-opacity="0.7"></stop><stop offset="0.884804" stop-color="#FAFBFF"></stop></linearGradient><linearGradient id="paint29_linear_4902_26807" x1="1286.02" y1="164.247" x2="1124.72" y2="157.688" gradientUnits="userSpaceOnUse"><stop stop-color="#FAFBFF" stop-opacity="0.7"></stop><stop offset="0.884804" stop-color="#FAFBFF"></stop></linearGradient><linearGradient id="paint30_linear_4902_26807" x1="885.858" y1="-11.2487" x2="664.148" y2="-20.5914" gradientUnits="userSpaceOnUse"><stop stop-color="#FAFBFF" stop-opacity="0.7"></stop><stop offset="0.884804" stop-color="#FAFBFF"></stop></linearGradient><linearGradient id="paint31_linear_4902_26807" x1="1010.89" y1="52.0519" x2="849.499" y2="45.485" gradientUnits="userSpaceOnUse"><stop stop-color="#FAFBFF" stop-opacity="0.7"></stop><stop offset="0.884804" stop-color="#FAFBFF"></stop></linearGradient><linearGradient id="paint32_linear_4902_26807" x1="828.095" y1="124.029" x2="656.925" y2="116.573" gradientUnits="userSpaceOnUse"><stop stop-color="#FAFBFF" stop-opacity="0.7"></stop><stop offset="0.884804" stop-color="#FAFBFF"></stop></linearGradient><linearGradient id="paint33_linear_4902_26807" x1="990.122" y1="198.495" x2="828.824" y2="191.935" gradientUnits="userSpaceOnUse"><stop stop-color="#FAFBFF" stop-opacity="0.7"></stop><stop offset="0.884804" stop-color="#FAFBFF"></stop></linearGradient><linearGradient id="paint34_linear_4902_26807" x1="1243.42" y1="54.0205" x2="1082.12" y2="47.4547" gradientUnits="userSpaceOnUse"><stop stop-color="#FAFBFF" stop-opacity="0.7"></stop><stop offset="0.884804" stop-color="#FAFBFF"></stop></linearGradient><linearGradient id="paint35_linear_4902_26807" x1="1222.72" y1="200.385" x2="1061.42" y2="193.826" gradientUnits="userSpaceOnUse"><stop stop-color="#FAFBFF" stop-opacity="0.7"></stop><stop offset="0.884804" stop-color="#FAFBFF"></stop></linearGradient><linearGradient id="paint36_linear_4902_26807" x1="968.222" y1="-58.1744" x2="806.925" y2="-64.7402" gradientUnits="userSpaceOnUse"><stop stop-color="#FAFBFF" stop-opacity="0.7"></stop><stop offset="0.884804" stop-color="#FAFBFF"></stop></linearGradient><linearGradient id="paint37_linear_4902_26807" x1="958.137" y1="105.584" x2="830.499" y2="100.286" gradientUnits="userSpaceOnUse"><stop stop-color="#FAFBFF" stop-opacity="0.7"></stop><stop offset="0.884804" stop-color="#FAFBFF"></stop></linearGradient><linearGradient id="paint38_linear_4902_26807" x1="893.785" y1="153.888" x2="762.824" y2="148.294" gradientUnits="userSpaceOnUse"><stop stop-color="#FAFBFF" stop-opacity="0.7"></stop><stop offset="0.884804" stop-color="#FAFBFF"></stop></linearGradient><linearGradient id="paint39_linear_4902_26807" x1="937.437" y1="251.916" x2="809.799" y2="246.617" gradientUnits="userSpaceOnUse"><stop stop-color="#FAFBFF" stop-opacity="0.7"></stop><stop offset="0.884804" stop-color="#FAFBFF"></stop></linearGradient><linearGradient id="paint40_linear_4902_26807" x1="1190.74" y1="107.475" x2="1063.1" y2="102.176" gradientUnits="userSpaceOnUse"><stop stop-color="#FAFBFF" stop-opacity="0.7"></stop><stop offset="0.884804" stop-color="#FAFBFF"></stop></linearGradient><linearGradient id="paint41_linear_4902_26807" x1="1486.64" y1="73.2602" x2="1359" y2="67.9684" gradientUnits="userSpaceOnUse"><stop stop-color="#FAFBFF" stop-opacity="0.7"></stop><stop offset="0.884804" stop-color="#FAFBFF"></stop></linearGradient><linearGradient id="paint42_linear_4902_26807" x1="1170.01" y1="253.84" x2="1042.27" y2="248.54" gradientUnits="userSpaceOnUse"><stop stop-color="#FAFBFF" stop-opacity="0.7"></stop><stop offset="0.884804" stop-color="#FAFBFF"></stop></linearGradient><linearGradient id="paint43_linear_4902_26807" x1="746.307" y1="-42.7481" x2="618.574" y2="-48.0547" gradientUnits="userSpaceOnUse"><stop stop-color="#FAFBFF" stop-opacity="0.7"></stop><stop offset="0.884804" stop-color="#FAFBFF"></stop></linearGradient><linearGradient id="paint44_linear_4902_26807" x1="898.151" y1="73.4196" x2="804.174" y2="69.3809" gradientUnits="userSpaceOnUse"><stop stop-color="#FAFBFF" stop-opacity="0.7"></stop><stop offset="0.884804" stop-color="#FAFBFF"></stop></linearGradient><linearGradient id="paint45_linear_4902_26807" x1="822.074" y1="194.832" x2="731.324" y2="191.087" gradientUnits="userSpaceOnUse"><stop stop-color="#FAFBFF" stop-opacity="0.7"></stop><stop offset="0.884804" stop-color="#FAFBFF"></stop></linearGradient><linearGradient id="paint46_linear_4902_26807" x1="877.452" y1="219.862" x2="783.474" y2="215.823" gradientUnits="userSpaceOnUse"><stop stop-color="#FAFBFF" stop-opacity="0.7"></stop><stop offset="0.884804" stop-color="#FAFBFF"></stop></linearGradient><linearGradient id="paint47_linear_4902_26807" x1="1130.75" y1="75.4211" x2="1036.77" y2="71.3823" gradientUnits="userSpaceOnUse"><stop stop-color="#FAFBFF" stop-opacity="0.7"></stop><stop offset="0.884804" stop-color="#FAFBFF"></stop></linearGradient><linearGradient id="paint48_linear_4902_26807" x1="1426.65" y1="41.1732" x2="1332.67" y2="37.1345" gradientUnits="userSpaceOnUse"><stop stop-color="#FAFBFF" stop-opacity="0.7"></stop><stop offset="0.884804" stop-color="#FAFBFF"></stop></linearGradient><linearGradient id="paint49_linear_4902_26807" x1="1201.97" y1="-21.774" x2="1111.22" y2="-25.5191" gradientUnits="userSpaceOnUse"><stop stop-color="#FAFBFF" stop-opacity="0.7"></stop><stop offset="0.884804" stop-color="#FAFBFF"></stop></linearGradient><linearGradient id="paint50_linear_4902_26807" x1="1110.02" y1="221.753" x2="1015.95" y2="217.706" gradientUnits="userSpaceOnUse"><stop stop-color="#FAFBFF" stop-opacity="0.7"></stop><stop offset="0.884804" stop-color="#FAFBFF"></stop></linearGradient><linearGradient id="paint51_linear_4902_26807" x1="1213.66" y1="539.828" x2="991.948" y2="530.486" gradientUnits="userSpaceOnUse"><stop stop-color="#FAFBFF" stop-opacity="0.7"></stop><stop offset="0.884804" stop-color="#FAFBFF"></stop></linearGradient><linearGradient id="paint52_linear_4902_26807" x1="1319.59" y1="613.995" x2="1097.97" y2="604.66" gradientUnits="userSpaceOnUse"><stop stop-color="#FAFBFF" stop-opacity="0.7"></stop><stop offset="0.884804" stop-color="#FAFBFF"></stop></linearGradient><linearGradient id="paint53_linear_4902_26807" x1="1106.09" y1="601.239" x2="944.699" y2="594.673" gradientUnits="userSpaceOnUse"><stop stop-color="#FAFBFF" stop-opacity="0.7"></stop><stop offset="0.884804" stop-color="#FAFBFF"></stop></linearGradient><linearGradient id="paint54_linear_4902_26807" x1="769.259" y1="389.606" x2="547.548" y2="380.263" gradientUnits="userSpaceOnUse"><stop stop-color="#FAFBFF" stop-opacity="0.7"></stop><stop offset="0.884804" stop-color="#FAFBFF"></stop></linearGradient><linearGradient id="paint55_linear_4902_26807" x1="409.988" y1="459.88" x2="188.373" y2="450.546" gradientUnits="userSpaceOnUse"><stop stop-color="#FAFBFF" stop-opacity="0.7"></stop><stop offset="0.884804" stop-color="#FAFBFF"></stop></linearGradient><linearGradient id="paint56_linear_4902_26807" x1="748.488" y1="535.937" x2="526.873" y2="526.602" gradientUnits="userSpaceOnUse"><stop stop-color="#FAFBFF" stop-opacity="0.7"></stop><stop offset="0.884804" stop-color="#FAFBFF"></stop></linearGradient><linearGradient id="paint57_linear_4902_26807" x1="309.351" y1="394.294" x2="104.423" y2="385.584" gradientUnits="userSpaceOnUse"><stop stop-color="#FAFBFF" stop-opacity="0.7"></stop><stop offset="0.884804" stop-color="#FAFBFF"></stop></linearGradient><linearGradient id="paint58_linear_4902_26807" x1="1001.79" y1="391.496" x2="780.173" y2="382.161" gradientUnits="userSpaceOnUse"><stop stop-color="#FAFBFF" stop-opacity="0.7"></stop><stop offset="0.884804" stop-color="#FAFBFF"></stop></linearGradient><linearGradient id="paint59_linear_4902_26807" x1="1060.09" y1="528.153" x2="889.201" y2="520.707" gradientUnits="userSpaceOnUse"><stop stop-color="#FAFBFF" stop-opacity="0.7"></stop><stop offset="0.884804" stop-color="#FAFBFF"></stop></linearGradient><linearGradient id="paint60_linear_4902_26807" x1="1007.4" y1="490.747" x2="836.225" y2="483.291" gradientUnits="userSpaceOnUse"><stop stop-color="#FAFBFF" stop-opacity="0.7"></stop><stop offset="0.884804" stop-color="#FAFBFF"></stop></linearGradient><linearGradient id="paint61_linear_4902_26807" x1="625.551" y1="213.937" x2="420.623" y2="205.227" gradientUnits="userSpaceOnUse"><stop stop-color="#FAFBFF" stop-opacity="0.7"></stop><stop offset="0.884804" stop-color="#FAFBFF"></stop></linearGradient><linearGradient id="paint62_linear_4902_26807" x1="789.958" y1="243.196" x2="568.247" y2="233.86" gradientUnits="userSpaceOnUse"><stop stop-color="#FAFBFF" stop-opacity="0.7"></stop><stop offset="0.884804" stop-color="#FAFBFF"></stop></linearGradient><linearGradient id="paint63_linear_4902_26807" x1="936.792" y1="563.211" x2="775.399" y2="556.644" gradientUnits="userSpaceOnUse"><stop stop-color="#FAFBFF" stop-opacity="0.7"></stop><stop offset="0.884804" stop-color="#FAFBFF"></stop></linearGradient><linearGradient id="paint64_linear_4902_26807" x1="518.105" y1="275.36" x2="373.875" y2="269.441" gradientUnits="userSpaceOnUse"><stop stop-color="#FAFBFF" stop-opacity="0.7"></stop><stop offset="0.884804" stop-color="#FAFBFF"></stop></linearGradient><linearGradient id="paint65_linear_4902_26807" x1="536.658" y1="387.637" x2="314.948" y2="378.302" gradientUnits="userSpaceOnUse"><stop stop-color="#FAFBFF" stop-opacity="0.7"></stop><stop offset="0.884804" stop-color="#FAFBFF"></stop></linearGradient><linearGradient id="paint66_linear_4902_26807" x1="661.622" y1="451.016" x2="500.324" y2="444.457" gradientUnits="userSpaceOnUse"><stop stop-color="#FAFBFF" stop-opacity="0.7"></stop><stop offset="0.884804" stop-color="#FAFBFF"></stop></linearGradient><linearGradient id="paint67_linear_4902_26807" x1="478.895" y1="522.994" x2="307.725" y2="515.538" gradientUnits="userSpaceOnUse"><stop stop-color="#FAFBFF" stop-opacity="0.7"></stop><stop offset="0.884804" stop-color="#FAFBFF"></stop></linearGradient><linearGradient id="paint68_linear_4902_26807" x1="640.892" y1="597.426" x2="479.5" y2="590.852" gradientUnits="userSpaceOnUse"><stop stop-color="#FAFBFF" stop-opacity="0.7"></stop><stop offset="0.884804" stop-color="#FAFBFF"></stop></linearGradient><linearGradient id="paint69_linear_4902_26807" x1="894.193" y1="452.906" x2="732.799" y2="446.34" gradientUnits="userSpaceOnUse"><stop stop-color="#FAFBFF" stop-opacity="0.7"></stop><stop offset="0.884804" stop-color="#FAFBFF"></stop></linearGradient><linearGradient id="paint70_linear_4902_26807" x1="858.795" y1="306.277" x2="687.624" y2="298.82" gradientUnits="userSpaceOnUse"><stop stop-color="#FAFBFF" stop-opacity="0.7"></stop><stop offset="0.884804" stop-color="#FAFBFF"></stop></linearGradient><linearGradient id="paint71_linear_4902_26807" x1="873.493" y1="599.316" x2="712.1" y2="592.742" gradientUnits="userSpaceOnUse"><stop stop-color="#FAFBFF" stop-opacity="0.7"></stop><stop offset="0.884804" stop-color="#FAFBFF"></stop></linearGradient><linearGradient id="paint72_linear_4902_26807" x1="454.864" y1="311.408" x2="309.872" y2="305.453" gradientUnits="userSpaceOnUse"><stop stop-color="#FAFBFF" stop-opacity="0.7"></stop><stop offset="0.884804" stop-color="#FAFBFF"></stop></linearGradient><linearGradient id="paint73_linear_4902_26807" x1="618.992" y1="340.712" x2="457.599" y2="334.145" gradientUnits="userSpaceOnUse"><stop stop-color="#FAFBFF" stop-opacity="0.7"></stop><stop offset="0.884804" stop-color="#FAFBFF"></stop></linearGradient><linearGradient id="paint74_linear_4902_26807" x1="608.907" y1="504.437" x2="481.174" y2="499.131" gradientUnits="userSpaceOnUse"><stop stop-color="#FAFBFF" stop-opacity="0.7"></stop><stop offset="0.884804" stop-color="#FAFBFF"></stop></linearGradient><linearGradient id="paint75_linear_4902_26807" x1="544.585" y1="552.852" x2="413.624" y2="547.258" gradientUnits="userSpaceOnUse"><stop stop-color="#FAFBFF" stop-opacity="0.7"></stop><stop offset="0.884804" stop-color="#FAFBFF"></stop></linearGradient><linearGradient id="paint76_linear_4902_26807" x1="841.507" y1="506.361" x2="713.774" y2="501.061" gradientUnits="userSpaceOnUse"><stop stop-color="#FAFBFF" stop-opacity="0.7"></stop><stop offset="0.884804" stop-color="#FAFBFF"></stop></linearGradient><linearGradient id="paint77_linear_4902_26807" x1="1137.41" y1="472.191" x2="1009.67" y2="466.885" gradientUnits="userSpaceOnUse"><stop stop-color="#FAFBFF" stop-opacity="0.7"></stop><stop offset="0.884804" stop-color="#FAFBFF"></stop></linearGradient><linearGradient id="paint78_linear_4902_26807" x1="713.637" y1="175.637" x2="585.999" y2="170.338" gradientUnits="userSpaceOnUse"><stop stop-color="#FAFBFF" stop-opacity="0.7"></stop><stop offset="0.884804" stop-color="#FAFBFF"></stop></linearGradient><linearGradient id="paint79_linear_4902_26807" x1="924.484" y1="336.134" x2="793.524" y2="330.541" gradientUnits="userSpaceOnUse"><stop stop-color="#FAFBFF" stop-opacity="0.7"></stop><stop offset="0.884804" stop-color="#FAFBFF"></stop></linearGradient><linearGradient id="paint80_linear_4902_26807" x1="397.037" y1="356.138" x2="269.399" y2="350.846" gradientUnits="userSpaceOnUse"><stop stop-color="#FAFBFF" stop-opacity="0.7"></stop><stop offset="0.884804" stop-color="#FAFBFF"></stop></linearGradient><linearGradient id="paint81_linear_4902_26807" x1="657.637" y1="297.283" x2="529.999" y2="291.984" gradientUnits="userSpaceOnUse"><stop stop-color="#FAFBFF" stop-opacity="0.7"></stop><stop offset="0.884804" stop-color="#FAFBFF"></stop></linearGradient><linearGradient id="paint82_linear_4902_26807" x1="548.921" y1="472.384" x2="454.849" y2="468.337" gradientUnits="userSpaceOnUse"><stop stop-color="#FAFBFF" stop-opacity="0.7"></stop><stop offset="0.884804" stop-color="#FAFBFF"></stop></linearGradient><linearGradient id="paint83_linear_4902_26807" x1="472.774" y1="593.796" x2="382.024" y2="590.051" gradientUnits="userSpaceOnUse"><stop stop-color="#FAFBFF" stop-opacity="0.7"></stop><stop offset="0.884804" stop-color="#FAFBFF"></stop></linearGradient><linearGradient id="paint84_linear_4902_26807" x1="528.151" y1="618.715" x2="434.174" y2="614.677" gradientUnits="userSpaceOnUse"><stop stop-color="#FAFBFF" stop-opacity="0.7"></stop><stop offset="0.884804" stop-color="#FAFBFF"></stop></linearGradient><linearGradient id="paint85_linear_4902_26807" x1="781.452" y1="474.274" x2="687.474" y2="470.235" gradientUnits="userSpaceOnUse"><stop stop-color="#FAFBFF" stop-opacity="0.7"></stop><stop offset="0.884804" stop-color="#FAFBFF"></stop></linearGradient><linearGradient id="paint86_linear_4902_26807" x1="1077.35" y1="440.138" x2="983.374" y2="436.099" gradientUnits="userSpaceOnUse"><stop stop-color="#FAFBFF" stop-opacity="0.7"></stop><stop offset="0.884804" stop-color="#FAFBFF"></stop></linearGradient><linearGradient id="paint87_linear_4902_26807" x1="658.653" y1="152.163" x2="581.174" y2="148.727" gradientUnits="userSpaceOnUse"><stop stop-color="#FAFBFF" stop-opacity="0.7"></stop><stop offset="0.884804" stop-color="#FAFBFF"></stop></linearGradient><linearGradient id="paint88_linear_4902_26807" x1="852.774" y1="377.079" x2="762.024" y2="373.334" gradientUnits="userSpaceOnUse"><stop stop-color="#FAFBFF" stop-opacity="0.7"></stop><stop offset="0.884804" stop-color="#FAFBFF"></stop></linearGradient><linearGradient id="paint89_linear_4902_26807" x1="341.894" y1="332.832" x2="265.177" y2="329.431" gradientUnits="userSpaceOnUse"><stop stop-color="#FAFBFF" stop-opacity="0.7"></stop><stop offset="0.884804" stop-color="#FAFBFF"></stop></linearGradient><linearGradient id="paint90_linear_4902_26807" x1="703.552" y1="339.285" x2="609.575" y2="335.246" gradientUnits="userSpaceOnUse"><stop stop-color="#FAFBFF" stop-opacity="0.7"></stop><stop offset="0.884804" stop-color="#FAFBFF"></stop></linearGradient><linearGradient id="paint91_linear_4902_26807" x1="25.823" y1="16.7547" x2="-9.42658" y2="16.14" gradientUnits="userSpaceOnUse"><stop stop-color="#FAFBFF" stop-opacity="0.7"></stop><stop offset="0.884804" stop-color="#FAFBFF"></stop></linearGradient><linearGradient id="paint92_linear_4902_26807" x1="25.823" y1="16.7547" x2="-9.42658" y2="16.14" gradientUnits="userSpaceOnUse"><stop stop-color="#FAFBFF" stop-opacity="0.7"></stop><stop offset="0.884804" stop-color="#FAFBFF"></stop></linearGradient><linearGradient id="paint93_linear_4902_26807" x1="1129.5" y1="2" x2="413.5" y2="2" gradientUnits="userSpaceOnUse"><stop stop-color="white" stop-opacity="0"></stop><stop offset="1" stop-color="#F7F7F7"></stop></linearGradient><clipPath id="clip0_4902_26807"><rect width="1440" height="600" fill="white"></rect></clipPath></defs></svg>