<svg xmlns="http://www.w3.org/2000/svg" width="215" height="87" viewBox="0 0 215 87" fill="none"><path d="M209.476 83.6015C208.982 83.7228 208.475 83.7869 207.966 83.7902H207.968C206.164 83.7902 204.812 83.3083 203.912 82.3411C203.012 81.3739 202.562 80.0022 202.56 78.2228V70.2054H199.573V68.2238H202.56V63.5394H205.108V68.2238H209.946V70.2054H205.108V77.9701C205.04 78.9373 205.306 79.8978 205.862 80.6897C206.492 81.3604 207.396 81.7041 208.312 81.6199C208.651 81.6165 208.989 81.5761 209.318 81.4918C209.652 81.4076 209.957 81.3233 210.231 81.2425L210.671 83.1904C210.291 83.3757 209.89 83.5139 209.476 83.6015ZM198.16 76.3996H186.624C186.664 77.3163 186.867 78.2229 187.23 79.0721C187.608 79.9214 188.253 80.6223 189.067 81.0706C189.969 81.539 190.976 81.7715 191.992 81.7446C192.885 81.7446 193.772 81.5997 194.617 81.3166C195.503 81.0099 196.321 80.5347 197.022 79.9146L197.903 81.7109C197.132 82.3849 196.234 82.8972 195.262 83.2173C194.213 83.5914 193.107 83.7835 191.992 83.7835L191.995 83.7902C190.548 83.8273 189.115 83.497 187.831 82.8297C186.683 82.2063 185.743 81.2593 185.127 80.1101C183.852 77.4612 183.846 74.3809 185.111 71.7287C185.705 70.5829 186.602 69.6224 187.706 68.9484C188.86 68.2643 190.183 67.9138 191.526 67.9407C192.772 67.9037 194.003 68.2204 195.077 68.854C196.073 69.4707 196.866 70.3672 197.357 71.4321C197.921 72.6858 198.196 74.0507 198.16 75.4257V76.3996ZM181.432 76.3996H169.898C169.939 77.3163 170.142 78.2229 170.504 79.0721C170.882 79.918 171.527 80.6223 172.341 81.0706C173.243 81.539 174.25 81.7716 175.266 81.7412C176.158 81.7446 177.045 81.5997 177.89 81.3132C178.776 81.0099 179.593 80.5347 180.295 79.9146L181.175 81.7075C180.405 82.3815 179.508 82.8938 178.536 83.2173C177.487 83.5914 176.381 83.7835 175.266 83.7835L175.268 83.7902C173.822 83.8273 172.389 83.497 171.105 82.8297C169.957 82.2063 169.017 81.2593 168.4 80.1101C167.126 77.4612 167.121 74.3809 168.385 71.7287C168.979 70.5829 169.876 69.6224 170.98 68.9484C172.134 68.2643 173.456 67.9138 174.798 67.9407C176.045 67.9037 177.276 68.2204 178.35 68.854C179.345 69.4707 180.138 70.3672 180.629 71.4321C181.194 72.6858 181.468 74.0507 181.432 75.4257V76.3996ZM165.649 83.5678C165.314 83.6318 164.993 83.6824 164.692 83.7262C164.384 83.7666 164.074 83.7869 163.763 83.7869L163.762 83.7902C162.444 83.8846 161.154 83.3757 160.256 82.4051C159.402 81.2694 158.984 79.8641 159.077 78.4453V61.3387H161.623V78.2532C161.606 78.8868 161.707 79.517 161.922 80.1101C162.091 80.5752 162.405 80.9695 162.818 81.2425C163.265 81.5053 163.778 81.6367 164.296 81.6199C164.544 81.6199 164.791 81.603 165.037 81.5693C165.264 81.5424 165.49 81.4952 165.71 81.4312L165.649 83.5678ZM156.369 68.2272V70.2088H151.973V83.5071L149.427 83.5038V70.2054H146.407V68.2238H149.427V67.688C149.427 65.6592 149.935 64.1191 150.952 63.071C151.969 62.0195 153.536 61.4331 155.652 61.3084L156.877 61.2477L157.097 63.1957L155.651 63.29C154.915 63.3204 154.194 63.5125 153.542 63.8562C153.006 64.1629 152.586 64.638 152.348 65.2076C152.078 65.8985 151.95 66.6365 151.971 67.3779V68.2272H156.369ZM142.015 58.5348V86.0886H214.883V58.5348H142.015Z" fill="#8B23E5"></path><path d="M178.222 12.2504C177.833 15.8833 176.95 19.4455 175.595 22.8392C174.226 26.4047 172.573 29.859 170.652 33.1617C170.589 33.2729 170.475 33.3505 170.346 33.3639C170.327 33.374 170.306 33.3774 170.285 33.374C170.243 33.3774 170.202 33.3707 170.163 33.3538V33.3605C169.97 33.3167 169.839 33.1347 169.856 32.9393C170.029 29.1412 170.456 25.36 171.133 21.6192C171.788 17.538 172.806 13.5243 174.174 9.62507C174.536 8.50284 175.053 7.44125 175.71 6.4673C175.937 6.08648 176.305 5.81353 176.734 5.70232C176.831 5.69558 176.928 5.7023 177.023 5.72252C177.819 5.90114 178.064 7.0975 178.149 7.51202C178.389 9.07911 178.412 10.6732 178.22 12.247M180.768 1.07517C180.002 0.532585 179.09 0.232662 178.152 0.21244C177.516 0.222553 176.885 0.330406 176.28 0.529243C174.649 1.1089 173.219 2.14685 172.162 3.51848C170.85 5.20689 169.761 7.05708 168.923 9.0252C168.001 11.0708 167.218 13.1738 166.578 15.3205C165.19 20.0555 164.244 24.9084 163.751 29.8186C163.126 34.2233 163.207 38.6988 163.989 43.0765C164.987 47.734 166.969 50.6828 169.883 51.8522C169.929 51.869 169.975 51.8893 170.02 51.8994C171.726 52.4521 173.548 52.5397 175.299 52.1521C176.333 51.9331 177.325 51.5489 178.238 51.0131C179.142 50.5311 179.929 49.8571 180.547 49.0416L180.526 48.9977C179.577 47.7542 178.83 46.3691 178.313 44.893C178.277 44.802 178.248 44.711 178.217 44.62C177.462 45.23 176.607 45.7052 175.69 46.0219C174.883 46.3185 174.005 46.3623 173.173 46.15C173.02 46.1096 172.869 46.0624 172.72 46.0085C171.957 45.6344 171.328 45.0345 170.921 44.2897C170.632 43.8617 170.415 43.3899 170.278 42.8945C170.262 42.8473 170.247 42.7968 170.232 42.7395C170.146 42.5238 170.114 42.2879 170.14 42.0554C170.224 41.8329 170.353 41.6307 170.521 41.4656V41.4589C170.567 41.4016 170.618 41.3409 170.658 41.2802C171.381 40.2861 172.242 39.2447 172.95 38.1865C175.655 34.1491 177.984 29.8692 179.906 25.4038C181.838 21.1743 183.088 16.6618 183.608 12.0414C183.835 9.94523 183.747 7.82881 183.347 5.75958C183.097 3.93637 182.178 2.2682 180.769 1.07856" fill="#20252E"></path><path d="M195.963 74.7307C195.956 73.4804 195.568 72.2537 194.84 71.2292C194.041 70.2687 192.831 69.7497 191.585 69.8272C190.627 69.7969 189.68 70.053 188.869 70.5653C188.118 71.064 187.531 71.7752 187.183 72.6076C186.905 73.2883 186.73 74.0028 186.657 74.7307H195.963Z" fill="#8B23E5"></path><path d="M179.237 74.7307C179.229 73.4804 178.842 72.2537 178.114 71.2292C177.315 70.2687 176.105 69.7497 174.859 69.8272C173.9 69.7969 172.954 70.053 172.141 70.5653C171.391 71.064 170.805 71.7752 170.457 72.6076C170.179 73.2883 170.004 74.0028 169.931 74.7307H179.237Z" fill="#8B23E5"></path><path d="M123.335 45.7923C121.705 46.7696 119.837 47.2785 117.936 47.2583C113.553 47.2583 111.706 44.6566 111.706 39.4498V24.5103H124.241V19.6472H111.702V9.7156L105.606 10.0594V19.6472H100.466V24.5103H105.607V39.6487C105.607 47.9424 108.964 52.3876 117.323 52.3876C120.289 52.455 123.219 51.7237 125.807 50.2712C124.804 48.8861 123.974 47.3796 123.335 45.7923H123.335Z" fill="#20252E"></path><path d="M200.28 24.2976C205.416 24.2976 208.777 27.789 208.841 33.1373H190.615C191.506 27.9271 195.066 24.2976 200.276 24.2976M213.873 44.3697C213.777 43.9114 213.689 43.4531 213.615 42.9981C209.757 45.6066 205.952 47.2242 201.576 47.322C195.136 47.322 191.1 43.416 190.481 37.4577H214.73C214.925 36.4433 215.015 35.4087 214.996 34.3741C215.017 32.224 214.646 30.084 213.902 28.0687C211.917 22.808 207.248 19.2323 200.273 19.2323C190.475 19.2323 184.239 26.2185 184.239 35.8738C184.239 45.738 190.747 52.3838 201.094 52.3838C206.038 52.2557 210.851 50.7594 215 48.0667C214.534 46.8636 214.158 45.6268 213.874 44.3664" fill="#20252E"></path><path d="M18.6529 46.2599C16.9256 46.2868 15.2074 46.0037 13.5803 45.4241C12.1857 44.9253 10.9068 44.1502 9.82122 43.1425C8.8236 42.1989 8.03376 41.0565 7.5022 39.7893C6.96679 38.5019 6.69469 37.1168 6.7019 35.7216C6.6798 32.8436 7.88197 30.0936 10.0086 28.1524C11.0562 27.1987 12.2722 26.4505 13.5944 25.9416C14.9931 25.3991 16.4813 25.1261 17.9813 25.1362C18.9577 25.1328 19.9336 25.1867 20.9039 25.2946C21.809 25.399 22.7056 25.5676 23.5872 25.7967C24.4625 26.0259 25.317 26.3258 26.1412 26.6966C26.3336 26.7842 26.5271 26.8752 26.7248 26.9662V21.0213C25.4311 20.3305 24.0515 19.8182 22.6221 19.4947C21.1001 19.1543 19.5442 18.9858 17.9843 18.9959C15.5662 18.9757 13.1659 19.4104 10.9099 20.2833C8.80453 21.0955 6.86977 22.2919 5.20539 23.8151C3.59314 25.3047 2.29764 27.1043 1.39601 29.1028C0.459237 31.1686 -0.0169179 33.4097 0.000459055 35.6744C-0.00954587 37.8953 0.434224 40.096 1.30479 42.1382C2.15613 44.1502 3.42268 45.9633 5.02162 47.4562C6.72694 49.0233 8.72095 50.2466 10.8928 51.0521C13.374 51.9755 16.0054 52.4305 18.6529 52.3934C20.3553 52.4136 22.0549 52.2485 23.7207 51.8946C24.7219 51.6654 25.7212 51.3116 27.4559 50.8229V44.3726C25.6562 44.959 24.6049 45.3904 23.5738 45.6667C21.9667 46.0779 20.3126 46.2767 18.6536 46.2599" fill="#20252E"></path><path d="M75.8917 37.9299C75.7411 38.1052 75.5857 38.2804 75.4351 38.459C73.6048 40.4676 71.3853 42.0785 68.9116 43.2007V51.8787H76.0761V37.694C76.0147 37.7749 75.9537 37.8456 75.8924 37.9265L75.8917 37.9299Z" fill="#20252E"></path><path d="M82.7113 19.2359C81.9924 19.2326 81.2746 19.2764 80.5612 19.3674C80.6636 19.9571 80.726 20.5637 80.7792 21.1805C80.8466 21.932 80.8817 22.7004 80.8817 23.4789C80.8817 24.2574 80.848 25.0223 80.7792 25.7671C81.4081 25.6121 82.0534 25.538 82.7008 25.5413C86.8592 25.5413 89.4366 28.2779 89.4366 32.6893V51.8853H96.6011V32.6387C96.6011 24.6213 91.0135 19.2359 82.7008 19.2359" fill="#20252E"></path><path d="M56.8428 34.3709C51.818 33.7171 48.4567 29.8551 47.9917 24.3989C47.9863 24.3686 47.9842 24.3382 47.9853 24.3045C48.0773 24.3045 48.1689 24.3214 48.2549 24.3247C48.5036 24.345 48.7482 24.3719 48.9895 24.4023C50.0103 24.5371 51.0045 24.8235 51.9394 25.2549C52.6946 25.6155 53.4006 26.0704 54.0403 26.6097C56.2682 28.6014 57.6341 31.3817 57.8488 34.3642C57.8475 34.3946 57.8505 34.4249 57.8582 34.4552C57.5182 34.4451 57.1788 34.4148 56.8415 34.3709M56.9958 41.0538C56.9507 41.1583 56.9102 41.2594 56.8651 41.3605C56.7933 41.5122 56.7229 41.6672 56.6457 41.8222C56.1152 42.9074 55.3886 43.8847 54.5027 44.707C53.6763 45.4821 52.7148 46.0955 51.6654 46.5201C50.7571 46.8942 49.8 47.1368 48.8237 47.2379C48.3671 47.2986 47.9064 47.3255 47.446 47.3188C41.1683 47.3188 36.9981 42.6984 36.9674 36.0156V35.9482C36.9472 34.0171 37.3331 32.1029 38.1005 30.3336C38.887 28.5306 40.1781 26.9938 41.818 25.9087C41.8544 25.8817 41.8932 25.8581 41.9336 25.8379C42.0721 26.8489 42.2976 27.8465 42.6073 28.8204C44.5147 34.8596 49.5682 38.8531 56.4971 39.4598C56.8226 39.4867 57.1596 39.5036 57.4902 39.5205C57.3585 40.0394 57.1903 40.5483 56.9874 41.0437L56.9958 41.0538ZM75.2573 21.3759H75.2418C75.1997 20.8974 75.1441 20.1863 75.0686 19.7212H68.8888L69.0274 22.6903V23.3946C68.9664 25.0527 68.5967 26.6838 67.9378 28.2071C67.8991 28.3082 67.8549 28.4093 67.8057 28.507C67.739 28.662 67.6635 28.8103 67.5924 28.9687C67.0613 30.0539 66.335 31.0312 65.4493 31.8501C65.0827 32.1905 64.6897 32.5039 64.2742 32.7836C64.1475 32.8679 64.0201 32.9488 63.8873 33.0297C63.4499 29.636 61.9438 26.4681 59.5874 23.9844C58.387 22.7509 56.981 21.7332 55.4328 20.9783C54.8845 20.712 54.3213 20.4761 53.7457 20.2739C52.4786 19.8223 51.1636 19.519 49.8267 19.3741C49.6939 19.3539 49.5574 19.337 49.4091 19.3269C49.2113 19.3067 49.0007 19.2898 48.7968 19.2797C48.3533 19.246 47.9023 19.2292 47.4433 19.2292C47.3015 19.2292 47.1549 19.2292 47.0147 19.2326C45.6751 19.2562 44.3412 19.4179 43.0346 19.7178C42.9123 19.7414 42.7957 19.7751 42.678 19.8021C42.4485 19.8594 42.2207 19.92 41.9959 19.9874C35.9841 21.7365 31.632 26.9534 30.9922 33.1813C30.8682 34.098 30.8067 35.0214 30.8086 35.9448C30.7929 37.8826 31.0792 39.8136 31.6573 41.6605C33.7392 48.2355 39.551 52.3908 47.4514 52.3908C48.5184 52.3941 49.5844 52.3133 50.6392 52.1515C52.0728 51.9358 53.4738 51.5415 54.81 50.9787C55.8227 50.5541 56.7859 50.0182 57.6817 49.3846C58.5491 48.7747 59.3458 48.067 60.0572 47.2817C60.1708 47.1469 60.2867 47.0155 60.3983 46.8807C61.5845 45.4653 62.5029 43.8443 63.1085 42.0986C63.2002 41.8357 63.2864 41.5661 63.3582 41.2897C63.5783 40.5584 63.7444 39.8136 63.856 39.0587C63.8715 38.9678 63.8823 38.8801 63.892 38.7891C65.5902 38.3072 67.1961 37.5456 68.6428 36.5379C68.7382 36.4705 68.8312 36.4031 68.9273 36.3222C69.6865 35.7628 70.3882 35.1292 71.0221 34.4316C71.135 34.2968 71.2519 34.1654 71.3622 34.0306C72.6327 32.6253 73.6423 31.0076 74.3437 29.2484C74.4336 28.9856 74.5206 28.7159 74.5887 28.4396C75.0915 26.704 75.3415 24.901 75.3308 23.0913C75.3308 22.5049 75.3048 21.932 75.2546 21.3726" fill="#20252E"></path><path d="M143.337 24.3041C148.473 24.3041 151.834 27.7955 151.898 33.1438H133.674C134.565 27.9337 138.124 24.3041 143.334 24.3041M156.676 42.9979C152.818 45.6063 149.013 47.224 144.637 47.3217C138.198 47.3217 134.161 43.4158 133.542 37.4575H157.791C157.986 36.4431 158.076 35.4085 158.057 34.3739C158.078 32.2238 157.707 30.0871 156.963 28.0684C154.978 22.8077 150.315 19.2321 143.334 19.2321C133.536 19.2321 127.301 26.2183 127.301 35.8769C127.301 45.7412 133.809 52.387 144.156 52.387C149.1 52.2555 153.912 50.7626 158.061 48.0699C157.596 46.8634 157.22 45.6266 156.935 44.3662C156.832 43.9078 156.751 43.4529 156.676 42.9945" fill="#20252E"></path></svg>