<svg xmlns="http://www.w3.org/2000/svg" width="215" height="87" viewBox="0 0 215 87" fill="none"><path d="M178.183 12.2598C177.794 15.8919 176.911 19.4533 175.557 22.8463C174.188 26.4144 172.535 29.8646 170.615 33.1665C170.551 33.2811 170.437 33.3552 170.309 33.3721C170.289 33.3822 170.269 33.3855 170.248 33.3822C170.206 33.3822 170.164 33.3754 170.125 33.362V33.3687C169.932 33.3215 169.802 33.1429 169.819 32.9441C169.992 29.1503 170.418 25.3665 171.095 21.6299C171.75 17.5496 172.768 13.5368 174.136 9.63507C174.497 8.51645 175.014 7.4551 175.671 6.47799C175.898 6.10062 176.266 5.82435 176.695 5.71653C176.792 5.70642 176.89 5.71315 176.984 5.73674C177.78 5.91531 178.025 7.10808 178.11 7.52588C178.35 9.09262 178.373 10.6863 178.18 12.2598M180.728 1.09044C179.962 0.547974 179.051 0.248085 178.113 0.227867C177.477 0.237976 176.846 0.345821 176.242 0.541245C174.611 1.12414 173.181 2.16189 172.124 3.53321C170.812 5.22125 169.723 7.071 168.885 9.03869C167.964 11.0805 167.181 13.183 166.541 15.3326C165.154 20.0666 164.207 24.9184 163.716 29.8241C163.09 34.2312 163.171 38.7057 163.954 43.0858C164.951 47.7423 166.933 50.6905 169.847 51.8596C169.893 51.8731 169.938 51.8967 169.984 51.9034C171.689 52.4594 173.511 52.547 175.261 52.1595C176.295 51.9371 177.287 51.553 178.2 51.0206C179.103 50.5355 179.89 49.865 180.508 49.0462L180.487 49.0058C179.538 47.7625 178.791 46.3743 178.274 44.8986C178.238 44.8076 178.209 44.7133 178.178 44.6223C177.423 45.2321 176.568 45.7072 175.651 46.0273C174.844 46.3204 173.967 46.3676 173.135 46.1519C172.982 46.1149 172.831 46.0677 172.682 46.0105C171.919 45.6398 171.291 45.0401 170.883 44.2921C170.594 43.8676 170.377 43.3958 170.24 42.8972C170.225 42.8534 170.21 42.8028 170.194 42.7456C170.108 42.5266 170.077 42.2941 170.103 42.0582C170.186 41.8392 170.316 41.637 170.484 41.4686V41.4652C170.53 41.4079 170.58 41.3473 170.621 41.2866C171.343 40.2927 172.204 39.2516 172.912 38.1936C175.617 34.1571 177.944 29.878 179.866 25.4137C181.798 21.1852 183.048 16.6736 183.567 12.0542C183.794 9.95852 183.707 7.84259 183.307 5.77382C183.057 3.94764 182.138 2.2798 180.73 1.0938" fill="#20252E"></path><path d="M123.308 45.7981C121.679 46.7752 119.81 47.2806 117.91 47.2604C113.528 47.2604 111.681 44.6593 111.681 39.457V24.5241H124.214V19.6588H111.677V9.72932L105.583 10.073V19.6554H100.444V24.5207H105.584V39.6558C105.584 47.9477 108.94 52.3885 117.297 52.3885C120.263 52.4559 123.192 51.7281 125.779 50.276C124.777 48.8878 123.947 47.3851 123.308 45.7947L123.308 45.7981Z" fill="#20252E"></path><path d="M143.304 24.3153C148.439 24.3153 151.799 27.8059 151.863 33.1497H133.643C134.535 27.9407 138.093 24.3153 143.302 24.3153M156.64 43.005C152.783 45.6129 148.979 47.2268 144.604 47.3279C138.166 47.3279 134.13 43.4228 133.512 37.4658H157.755C157.95 36.4483 158.04 35.4172 158.021 34.3829C158.042 32.2299 157.671 30.0937 156.927 28.0755C154.943 22.8193 150.281 19.2444 143.301 19.2444C133.506 19.2444 127.272 26.2257 127.272 35.8822C127.272 45.7443 133.778 52.3886 144.123 52.3886C149.066 52.2572 153.877 50.7646 158.025 48.0725C157.56 46.8696 157.184 45.6297 156.899 44.3729C156.797 43.9147 156.716 43.4565 156.64 43.0016" fill="#20252E"></path><path d="M200.235 24.3085C205.37 24.3085 208.731 27.7992 208.795 33.1463H190.572C191.464 27.9373 195.023 24.3085 200.232 24.3085M213.825 44.3729C213.729 43.9181 213.642 43.4598 213.567 43.0016C209.711 45.6129 205.906 47.2268 201.531 47.3279C195.092 47.3279 191.057 43.4194 190.439 37.4658H214.682C214.878 36.4483 214.967 35.4172 214.949 34.3829C214.97 32.2299 214.599 30.0937 213.854 28.0755C211.87 22.8193 207.202 19.2444 200.228 19.2444C190.433 19.2444 184.198 26.2257 184.198 35.8822C184.198 45.7443 190.705 52.3886 201.049 52.3886C205.992 52.2572 210.804 50.7646 214.952 48.0725C214.486 46.8662 214.11 45.6297 213.827 44.3696" fill="#20252E"></path><path d="M18.6489 46.2665C16.9219 46.2934 15.2041 46.0104 13.5774 45.4309C12.1831 44.9322 10.9044 44.1573 9.81905 43.1498C8.82166 42.2064 8.03213 41.0642 7.50065 39.7973C6.96539 38.5103 6.69319 37.1254 6.70043 35.7305C6.67846 32.8531 7.88037 30.1004 10.0065 28.163C11.0532 27.2095 12.2683 26.4581 13.5897 25.9527C14.988 25.4102 16.476 25.1374 17.9755 25.1475C18.9518 25.1441 19.9273 25.198 20.8976 25.3058C21.8023 25.4103 22.6988 25.5787 23.5803 25.8078C24.4554 26.0336 25.3096 26.3368 26.1338 26.7075C26.326 26.7951 26.5194 26.8827 26.7172 26.977V21.0335C25.4238 20.3428 24.0444 19.8306 22.6154 19.5038C21.0937 19.1635 19.538 18.9984 17.9785 19.0085C15.561 18.9849 13.1613 19.4229 10.9058 20.2922C8.80141 21.1042 6.86772 22.3037 5.20424 23.8267C3.59249 25.3159 2.29714 27.1118 1.39571 29.1132C0.459268 31.1752 -0.0169143 33.4192 0.000458833 35.6834C-0.00954388 37.9038 0.43426 40.1006 1.3045 42.1424C2.15578 44.1572 3.42193 45.97 5.02065 47.4592C6.72492 49.0293 8.71796 50.249 10.8887 51.0577C13.3692 51.9809 16.0002 52.4357 18.6471 52.3987C20.3491 52.4189 22.0483 52.2504 23.7138 51.9C24.7147 51.6709 25.7138 51.3171 27.4482 50.8252V44.3796C25.6489 44.9659 24.5977 45.3938 23.5667 45.6701C21.9601 46.0845 20.3064 46.2833 18.6476 46.2665" fill="#20252E"></path><path d="M75.8746 37.9341C75.724 38.1126 75.5686 38.2878 75.418 38.4664C73.5878 40.4712 71.3688 42.0817 68.896 43.2037V51.8831H76.0589V37.7016C75.9976 37.7824 75.9366 37.8532 75.8752 37.9307L75.8746 37.9341Z" fill="#20252E"></path><path d="M82.6926 19.2445C81.9739 19.2445 81.2559 19.2883 80.543 19.3792C80.6454 19.9689 80.7077 20.5753 80.761 21.1919C80.8284 21.9399 80.8634 22.7081 80.8634 23.4865C80.8634 24.2682 80.8297 25.0296 80.761 25.7776C81.3897 25.6226 82.0349 25.5485 82.6822 25.5519C86.8396 25.5519 89.4165 28.2878 89.4165 32.6949V51.8866H96.5793V32.6443C96.5793 24.6287 90.993 19.2445 82.6822 19.2445" fill="#20252E"></path><path d="M56.824 34.3761C51.8003 33.7258 48.4397 29.8646 47.9744 24.4062C47.9693 24.3759 47.9673 24.3456 47.9683 24.3152C48.0603 24.3152 48.152 24.3287 48.2379 24.3355C48.4862 24.3557 48.7311 24.3793 48.9724 24.4096C49.9943 24.5444 50.9903 24.8341 51.9263 25.2654C52.6814 25.6226 53.3872 26.0774 54.0267 26.6165C56.2542 28.6078 57.6198 31.3909 57.8348 34.3694C57.8331 34.3997 57.8361 34.4334 57.8439 34.4603C57.5039 34.4502 57.1646 34.4232 56.8277 34.3761M56.9762 41.0609C56.9311 41.1653 56.8907 41.2664 56.8452 41.3675C56.7738 41.5191 56.7033 41.6741 56.6262 41.8291C56.0958 42.914 55.3694 43.8911 54.4833 44.7132C53.6574 45.4882 52.6962 46.1014 51.647 46.5259C50.7386 46.8999 49.782 47.1391 48.8059 47.2436C48.3494 47.3042 47.8888 47.3312 47.4282 47.3245C41.1495 47.3245 36.9812 42.7017 36.9506 36.0237V35.953C36.9331 34.0223 37.3216 32.1119 38.0911 30.3396C38.8778 28.5404 40.1683 27.004 41.8078 25.919C41.8442 25.8921 41.883 25.8685 41.9234 25.8483C42.0619 26.8591 42.2873 27.8564 42.5969 28.8268C44.5046 34.868 49.557 38.8607 56.4847 39.4638C56.8105 39.4941 57.1471 39.511 57.4776 39.5245C57.3462 40.0433 57.1781 40.5555 56.9752 41.0508L56.9762 41.0609ZM75.2397 21.3873H75.2242C75.1821 20.9088 75.1265 20.1945 75.0511 19.7329H68.8727L69.0112 22.7013V23.4022C68.9502 25.0599 68.5806 26.694 67.9219 28.2136C67.8831 28.3147 67.839 28.4157 67.7898 28.5134C67.7231 28.6718 67.6476 28.8201 67.5765 28.9784C67.0455 30.06 66.3194 31.0371 65.434 31.8592C65.0674 32.1995 64.6745 32.5095 64.2591 32.7891C64.1324 32.8767 64.005 32.9576 63.8723 33.0385C63.4349 29.6456 61.9292 26.475 59.5733 23.9952C58.3732 22.7586 56.9675 21.7444 55.4196 20.9897C54.8714 20.7202 54.3084 20.4843 53.7329 20.2821C52.4661 19.8307 51.1513 19.5308 49.8147 19.3825C49.682 19.3623 49.5455 19.3488 49.3973 19.3387C49.1995 19.3185 48.9889 19.3017 48.7851 19.2916C48.3416 19.2579 47.8908 19.241 47.4319 19.241C47.2901 19.241 47.1438 19.241 47.0033 19.2444C45.664 19.268 44.3304 19.4297 43.0242 19.7262C42.9018 19.7532 42.7853 19.7835 42.668 19.8138C42.4382 19.8711 42.2105 19.9317 41.9857 19.9958C35.9735 21.7444 31.6202 26.9602 30.9796 33.1901C30.8555 34.1066 30.7942 35.0298 30.796 35.953C30.7804 37.8903 31.0666 39.8176 31.6445 41.6673C33.7261 48.2409 39.5366 52.3953 47.435 52.3953C48.502 52.3953 49.5674 52.3178 50.6223 52.1561C52.0553 51.9371 53.4563 51.5429 54.7919 50.9802C55.8047 50.5557 56.7673 50.0233 57.6633 49.3899C58.5305 48.7766 59.327 48.0725 60.038 47.284C60.1518 47.1526 60.2674 47.0212 60.3789 46.8831C61.5653 45.4679 62.4834 43.8473 63.0886 42.1054C63.1805 41.8392 63.2668 41.5696 63.3382 41.2967C63.5582 40.5656 63.7247 39.8176 63.8362 39.0628C63.8514 38.9719 63.8625 38.8843 63.8723 38.7933C65.5701 38.3149 67.1752 37.5534 68.6217 36.5426C68.7174 36.4752 68.8104 36.4112 68.9064 36.3303C69.6655 35.7676 70.367 35.1342 71.0008 34.4368C71.1133 34.3053 71.2302 34.1739 71.3404 34.0358C72.6106 32.6341 73.6204 31.0135 74.3213 29.2581C74.4112 28.9919 74.4981 28.7223 74.5662 28.4494C75.0693 26.7109 75.3189 24.9083 75.3081 23.0989C75.3081 22.516 75.2825 21.9432 75.2323 21.3806" fill="#20252E"></path><path d="M162.382 75.7913C161.016 75.7913 159.874 75.8355 158.957 75.9241C158.211 75.976 157.476 76.1347 156.774 76.3948C156.311 76.5602 155.911 76.8658 155.63 77.2691C155.394 77.6758 155.278 78.1411 155.295 78.6111C155.268 79.4666 155.619 80.2907 156.254 80.8639C156.979 81.4761 157.909 81.7878 158.856 81.7352C159.69 81.7514 160.511 81.5303 161.224 81.0984C161.908 80.6715 162.464 80.0684 162.836 79.3524C163.239 78.5629 163.441 77.6859 163.423 76.7994V75.7913H162.382Z" fill="#4A58FF"></path><path d="M147.004 74.1151C146.996 72.7771 146.582 71.4692 145.805 70.3714C144.951 69.3468 143.66 68.7912 142.329 68.8758C141.304 68.8438 140.292 69.1177 139.423 69.6632C138.622 70.1979 137.997 70.958 137.627 71.8476C137.328 72.5733 137.14 73.3375 137.062 74.1151H147.004Z" fill="#4A58FF"></path><path d="M211.046 81.5226C210.463 82.2834 209.678 82.8656 208.781 83.2032C207.681 83.6166 206.512 83.8161 205.338 83.7908L205.334 83.7861C204.504 83.7878 203.677 83.7029 202.866 83.532C202.104 83.3754 201.361 83.1392 200.649 82.8268C200.01 82.5533 199.416 82.1857 198.886 81.7359L199.758 79.8227C200.295 80.2453 200.881 80.6011 201.504 80.881C202.119 81.156 202.761 81.3639 203.42 81.5013C204.072 81.6358 204.736 81.7035 205.402 81.7029C206.414 81.7726 207.422 81.5263 208.287 80.9973C208.919 80.568 209.288 79.846 209.267 79.0825C209.291 78.5127 209.056 77.9629 208.627 77.5869C208.034 77.1431 207.343 76.8493 206.613 76.7297L203.557 76.0565C202.381 75.884 201.286 75.3567 200.417 74.5453C199.719 73.7893 199.35 72.7862 199.392 71.7575C199.368 70.8276 199.645 69.9149 200.182 69.1554C200.754 68.3933 201.528 67.8063 202.416 67.4616C203.483 67.0368 204.625 66.8306 205.774 66.8548C206.509 66.8525 207.241 66.931 207.959 67.0893C208.637 67.2433 209.295 67.4745 209.921 67.778C210.511 68.0631 211.05 68.4435 211.517 68.9041L210.61 70.8182C210.18 70.4108 209.694 70.0668 209.167 69.7959C208.64 69.5193 208.082 69.3047 207.505 69.1561C206.939 69.0115 206.359 68.9381 205.775 68.9371C204.768 68.8694 203.766 69.1291 202.919 69.6777C202.292 70.1255 201.928 70.8536 201.945 71.6235C201.926 72.2003 202.144 72.7596 202.549 73.171C203.078 73.6356 203.729 73.9395 204.426 74.047L207.487 74.6869C208.692 74.883 209.823 75.3981 210.761 76.1795C211.506 76.9039 211.903 77.9137 211.852 78.9514C211.873 79.874 211.59 80.7776 211.046 81.5226ZM194.76 73.3065V83.4819H192.037V73.4416C192.037 71.9409 191.78 70.8387 191.267 70.1356C190.753 69.4324 189.879 69.0789 188.647 69.0752C187.834 69.0584 187.034 69.2808 186.348 69.7151C185.677 70.1507 185.151 70.7758 184.836 71.5106C184.47 72.3759 184.291 73.3091 184.314 74.2485V83.4842H181.592V73.4439C181.592 71.9432 181.329 70.8414 180.802 70.1383C180.161 69.3798 179.189 68.9836 178.2 69.0779C176.545 69.0132 175.024 69.9846 174.387 71.5133C174.022 72.3789 173.845 73.3118 173.868 74.2509V83.4866L171.148 83.4828V67.1615H173.802V69.897C174.025 69.4523 174.297 69.0328 174.626 68.6561C175.142 68.0695 175.785 67.6086 176.507 67.309C177.27 67.0011 178.086 66.8468 178.909 66.8555C180.113 66.7999 181.301 67.149 182.284 67.8471C183.005 68.4512 183.534 69.2437 183.822 70.1275C184.241 69.2582 184.876 68.5051 185.676 67.9482C186.745 67.2117 188.019 66.8289 189.318 66.8548C190.377 66.8137 191.427 67.0574 192.36 67.5601C193.175 68.0574 193.805 68.8067 194.156 69.6942C194.594 70.8468 194.799 72.0743 194.76 73.3065ZM166.042 73.2047V83.4812H163.487V80.6519C163.304 81.0883 163.066 81.5004 162.763 81.8686C162.258 82.4738 161.621 82.9552 160.902 83.2767C160.119 83.622 159.27 83.7945 158.415 83.7824L158.418 83.7861C157.378 83.8036 156.349 83.5789 155.412 83.1298C154.567 82.7251 153.843 82.1061 153.312 81.3342C152.802 80.5815 152.533 79.6907 152.542 78.7813C152.482 77.7469 152.811 76.7277 153.466 75.9248C154.301 75.1188 155.372 74.6019 156.522 74.45C158.445 74.1164 160.397 73.9695 162.349 74.0116H163.423V72.9702C163.423 71.5823 163.143 70.5806 162.584 69.9644C162.024 69.3478 161.106 69.0399 159.829 69.0399C158.862 69.0368 157.9 69.1787 156.975 69.4603C155.976 69.7787 155.026 70.2363 154.154 70.8195L153.215 68.8377C153.835 68.4142 154.499 68.059 155.196 67.7794C155.944 67.4765 156.719 67.2457 157.51 67.0907C158.274 66.9391 159.05 66.8606 159.829 66.8562C161.029 66.8147 162.223 67.0503 163.318 67.5449C164.219 67.9849 164.942 68.7191 165.369 69.6264C165.857 70.7542 166.087 71.9766 166.042 73.2047ZM149.35 75.8941H137.027C137.071 76.8763 137.288 77.8446 137.677 78.7513C138.081 79.6583 138.772 80.4083 139.642 80.8864C140.604 81.3892 141.679 81.6378 142.764 81.6085C143.717 81.6105 144.665 81.4569 145.569 81.154C146.515 80.8292 147.389 80.3214 148.14 79.6597L149.08 81.5748C148.257 82.2945 147.298 82.842 146.26 83.185C145.139 83.5853 143.957 83.7905 142.767 83.7915L142.767 83.7861C141.221 83.8282 139.69 83.4754 138.318 82.7611C137.092 82.0954 136.088 81.0852 135.429 79.8551C134.068 77.0279 134.062 73.7364 135.412 70.9041C136.046 69.679 137.003 68.6514 138.181 67.9337C139.415 67.2009 140.828 66.8279 142.262 66.8569C143.594 66.8185 144.91 67.1564 146.058 67.8319C147.121 68.4927 147.968 69.4506 148.493 70.5867C149.096 71.9264 149.389 73.385 149.35 74.8533V75.8941ZM131.822 83.5822C131.294 83.7126 130.753 83.7807 130.209 83.7847L130.206 83.7861C128.282 83.7861 126.838 83.2706 125.874 82.2396C124.911 81.2086 124.43 79.7426 124.432 77.8416V69.2761H121.239V67.1604H124.432V62.1563H127.154V67.1604H132.325V69.2761H127.154V77.571C127.081 78.603 127.365 79.6287 127.96 80.4757C128.632 81.1934 129.599 81.56 130.578 81.4687C130.942 81.467 131.303 81.4222 131.656 81.3346C132.013 81.2446 132.336 81.1546 132.628 81.0637L133.098 83.1449C132.693 83.344 132.264 83.4909 131.822 83.5822ZM117.659 58.5363V86.0853H215V58.5363H117.659Z" fill="#4A58FF"></path></svg>