<svg xmlns="http://www.w3.org/2000/svg" xmlns:cc="http://creativecommons.org/ns#" xmlns:dc="http://purl.org/dc/elements/1.1/" xmlns:inkscape="http://www.inkscape.org/namespaces/inkscape" xmlns:rdf="http://www.w3.org/1999/02/22-rdf-syntax-ns#" xmlns:sodipodi="http://sodipodi.sourceforge.net/DTD/sodipodi-0.dtd" xmlns:svg="http://www.w3.org/2000/svg" height="64" id="svg8" viewBox="0 0 16.933333 16.933334" width="64"><defs id="defs2"></defs><g id="layer1"><path d="m 7.4920498,0.6873244 c -0.2600881,0.130115 -0.3559051,0.324078 -0.4258141,0.482658 -0.06991,0.15858 -0.113698,0.283196 -0.234611,0.42168 -0.120913,0.138483 -0.328149,0.299269 -0.740006,0.465088 -0.4118571,0.165818 -0.6718541,0.193689 -0.855762,0.177766 -0.1839061,-0.01592 -0.3016981,-0.07703 -0.4625041,-0.142628 -0.1929379,-0.07871 -0.3928079,-0.129096 -0.6449219,-0.05064 -0.252113,0.07845 -0.504234,0.261458 -0.8552451,0.605131 -0.351009,0.343674 -0.53993,0.5914049 -0.623218,0.84181 -0.08773,0.2637391 -0.02182,0.4830332 0.04134,0.6444049 0.06316,0.1613713 0.121558,0.2802012 0.134358,0.4630211 0.0128,0.1828192 -0.01987,0.4409372 -0.193269,0.84801 -0.173403,0.407072 -0.33628,0.608003 -0.478524,0.7281212 -0.142243,0.1201179 -0.272586,0.1660728 -0.435633,0.2402948 -0.196189,0.08931 -0.368802,0.204334 -0.487825,0.4475181 -0.119023,0.2431841 -0.167893,0.5641761 -0.172083,1.0779699 0.0042,0.5137981 0.05306,0.8347883 0.172083,1.077971 0.129982,0.2655711 0.32478,0.3732962 0.487825,0.4475181 0.163045,0.074221 0.293397,0.1201787 0.435633,0.2402957 0.142242,0.120117 0.305122,0.3210478 0.478524,0.7281208 0.173398,0.407072 0.206069,0.665191 0.193269,0.84801 -0.01281,0.182819 -0.0712,0.30165 -0.134358,0.463021 -0.07148,0.182647 -0.124632,0.394001 -0.04134,0.644405 0.07875,0.236757 0.272209,0.498135 0.623218,0.841809 0.3510111,0.343673 0.6182091,0.531371 0.8552451,0.605131 0.276257,0.08597 0.4841161,0.01496 0.6449219,-0.05064 0.160806,-0.0656 0.278598,-0.126707 0.4625041,-0.142627 0.175329,-0.01518 0.4439049,0.01195 0.855762,0.177767 0.2339221,0.09418 0.3993261,0.187122 0.5229651,0.274919 v 0.459403 c -1.09e-4,0.435162 0.3507629,0.793234 0.793234,0.793234 v 0.265616 c 0,0.435162 0.3529029,0.792717 0.7953,0.792717 h 0.5270989 c 0.4423971,0 0.795301,-0.357555 0.795301,-0.792717 v -0.265616 c 0.4424696,0 0.7933423,-0.358072 0.7932333,-0.793234 v -0.459424 c 0.12364,-0.0878 0.289043,-0.180739 0.522965,-0.274919 0.411857,-0.165818 0.680433,-0.192947 0.855762,-0.177767 0.183906,0.01592 0.301698,0.07703 0.462504,0.142627 0.160806,0.0656 0.368665,0.136611 0.644922,0.05064 0.237036,-0.07376 0.504234,-0.261458 0.855245,-0.605131 0.351009,-0.343674 0.544465,-0.605052 0.623218,-0.841809 0.08329,-0.250404 0.03014,-0.461758 -0.04134,-0.644405 -0.06316,-0.161371 -0.121554,-0.280202 -0.134359,-0.463021 -0.0128,-0.182819 0.01987,-0.440938 0.19327,-0.848009 0.173402,-0.407074 0.336281,-0.6080038 0.478524,-0.7281228 0.142236,-0.120115 0.272587,-0.166073 0.435632,-0.2402946 0.163045,-0.07422 0.357843,-0.181947 0.487825,-0.4475181 0.119024,-0.243183 0.167885,-0.5641729 0.172083,-1.077971 -0.0042,-0.5137941 -0.05306,-0.834786 -0.172083,-1.0779699 C 15.583896,6.6163545 15.411283,6.5013296 15.215094,6.4120205 15.052047,6.3378004 14.921704,6.2918436 14.779462,6.1717254 14.637218,6.0516075 14.47434,5.8506765 14.300938,5.4436045 c -0.173402,-0.4070731 -0.206074,-0.6651911 -0.19327,-0.84801 0.0128,-0.1828199 0.0712,-0.3016501 0.134359,-0.4630211 0.06316,-0.161372 0.129074,-0.3806661 0.04134,-0.6444049 -0.08329,-0.2504051 -0.272209,-0.4981361 -0.623218,-0.8418101 -0.351011,-0.343673 -0.603132,-0.526677 -0.855245,-0.605131 -0.252114,-0.07845 -0.451984,-0.02807 -0.644922,0.05064 -0.160806,0.0656 -0.278598,0.126704 -0.462504,0.142627 -0.183907,0.01592 -0.443905,-0.01195 -0.855762,-0.177767 C 10.429861,1.8909094 10.222624,1.7301234 10.101711,1.5916394 9.9807983,1.4531564 9.9370073,1.3285404 9.8670983,1.1699604 9.7971887,1.0113804 9.7013728,0.8174174 9.4412847,0.6873024 9.2271098,0.5801564 8.9455328,0.53372667 8.4666673,0.52916667 7.9878017,0.53377767 7.7062247,0.5801784 7.4920498,0.6873244 Z m 1.713075,0.472818 c 0.08362,0.04183 0.1216239,0.09068 0.1798341,0.222726 0.05821,0.132041 0.1323528,0.343556 0.3183268,0.556555 0.1859726,0.212999 0.4752153,0.420172 0.9410293,0.607715 0.465813,0.187542 0.816109,0.238875 1.098123,0.214457 0.282013,-0.02442 0.484981,-0.124611 0.619083,-0.179317 0.100687,-0.04107 0.172221,-0.07015 0.284737,-0.03514 0.112517,0.03501 0.318777,0.159153 0.642855,0.476456 0.324077,0.3173031 0.451402,0.5105931 0.49196,0.63252 0.02931,0.08812 0.01951,0.14883 -0.03307,0.283187 -0.05258,0.134357 -0.148209,0.3372421 -0.167948,0.619084 -0.01974,0.281841 0.03621,0.6310302 0.232543,1.0919222 0.196328,0.4608928 0.410982,0.7437628 0.626836,0.9260419 0.215855,0.1822789 0.425655,0.256672 0.556555,0.3162599 0.09115,0.0415 0.172225,0.07993 0.230477,0.198954 0.05812,0.11875 0.115249,0.3722862 0.119372,0.845943 -0.0041,0.4736582 -0.05779,0.720131 -0.119372,0.8459441 -0.05825,0.1190199 -0.141465,0.1584331 -0.230477,0.198954 -0.130898,0.05959 -0.340704,0.13398 -0.556555,0.3162591 -0.215852,0.1822796 -0.430508,0.4651506 -0.626836,0.9260424 -0.196328,0.460893 -0.252282,0.810082 -0.232543,1.091923 0.01974,0.281841 0.115363,0.484727 0.167948,0.619084 0.03677,0.09395 0.06992,0.172425 0.03307,0.283187 -0.03684,0.110762 -0.167883,0.315217 -0.49196,0.632519 -0.324078,0.317304 -0.52104,0.440618 -0.642855,0.478524 -0.08879,0.02763 -0.150635,0.0175 -0.284737,-0.03721 -0.134102,-0.05471 -0.33707,-0.154899 -0.619083,-0.179317 -0.282014,-0.02442 -0.63231,0.02691 -1.098123,0.214457 -0.121516,0.04892 -0.226886,0.09927 -0.325563,0.150378 v -0.513147 c 0.349724,-5.56e-4 0.349121,-0.522065 0.0041,-0.529683 0.01666,-0.179967 0.109936,-0.373223 0.276469,-0.603581 0.184086,-0.254629 0.447787,-0.541006 0.718819,-0.872815 0.542067,-0.663617 1.117244,-1.5212125 1.117244,-2.7853594 0,-2.1533882 -1.773725,-3.9022722 -3.9687502,-3.9403283 -2.1950259,0.03806 -3.96875,1.7869401 -3.96875,3.9403283 0,1.2641469 0.5751759,2.1217424 1.1172439,2.7853594 0.2710331,0.331809 0.534734,0.618186 0.7188189,0.872815 0.1663772,0.230142 0.2576161,0.424787 0.2744021,0.604614 -0.345847,0.007 -0.344314,0.52865 0.0062,0.52865 v 0.513147 c -0.09868,-0.05111 -0.2040482,-0.101455 -0.3255621,-0.150378 -0.465814,-0.187544 -0.8161099,-0.238877 -1.098124,-0.214457 -0.282013,0.02442 -0.4849821,0.124607 -0.6190829,0.179317 -0.1341023,0.05471 -0.1959481,0.06484 -0.284738,0.03721 -0.1218151,-0.03791 -0.3187771,-0.16122 -0.6428541,-0.478524 -0.3240769,-0.317302 -0.45512,-0.521757 -0.49196,-0.632519 -0.03685,-0.110762 -0.0037,-0.189237 0.03307,-0.283187 0.05258,-0.134357 0.148208,-0.337243 0.167948,-0.619084 0.01974,-0.281841 -0.03622,-0.63103 -0.232544,-1.091923 C 2.9243736,9.7638142 2.7097186,9.4809432 2.4938666,9.2986636 2.2780146,9.1163845 2.0682086,9.0419926 1.9373106,8.9824045 c -0.08901,-0.04052 -0.172226,-0.07993 -0.230476,-0.198954 -0.06158,-0.1258131 -0.115273,-0.3722859 -0.119373,-0.8459441 0.0041,-0.4736568 0.06125,-0.727193 0.119373,-0.845943 0.05825,-0.1190189 0.139326,-0.1574588 0.230476,-0.198954 0.1309,-0.05959 0.340701,-0.133981 0.556556,-0.3162599 0.215854,-0.1822791 0.430507,-0.4651491 0.626835,-0.9260419 0.196332,-0.460892 0.2522841,-0.8100812 0.232544,-1.0919222 -0.01974,-0.2818419 -0.1153679,-0.484727 -0.167949,-0.619084 -0.05258,-0.134357 -0.06238,-0.1950641 -0.03307,-0.283187 0.04056,-0.1219269 0.1678831,-0.3152169 0.49196,-0.63252 0.324078,-0.317303 0.5303379,-0.441443 0.6428552,-0.476456 0.1125159,-0.03501 0.18405,-0.0059 0.2847369,0.03514 0.1341019,0.05471 0.337071,0.154899 0.619084,0.179317 0.2820141,0.02442 0.63231,-0.02691 1.098124,-0.214457 0.465813,-0.187543 0.7550539,-0.394716 0.941028,-0.607715 0.1859729,-0.212999 0.2601171,-0.424514 0.318326,-0.556555 0.05821,-0.132042 0.09621,-0.180894 0.1798341,-0.222726 0.100149,-0.0501 0.3258029,-0.09832 0.7384754,-0.09973 0.4126725,0.0014 0.6383255,0.04963 0.7384746,0.09973 z M 8.4666687,4.7650953 c 1.9119593,0.03799 3.4395833,1.5487711 3.4395833,3.4085782 0,1.072402 -0.48161,1.8195047 -0.997872,2.4515295 -0.258131,0.316013 -0.525667,0.601736 -0.738456,0.89607 -0.2010807,0.278136 -0.3621797,0.576199 -0.3793051,0.914156 H 8.7302178 v -1.454692 l 0.8500779,-0.84801 c 0.174275,-0.1674548 0.05197,-0.4617098 -0.189653,-0.4563038 -0.07021,0.0016 -0.1369309,0.03094 -0.1855179,0.08165 L 8.4666687,10.493946 7.7282119,9.7580742 c -0.04859,-0.05071 -0.1153063,-0.08007 -0.1855182,-0.08165 -0.241627,-0.0054 -0.363927,0.288849 -0.189652,0.4563038 l 0.8480099,0.84801 V 12.43543 H 7.1406508 C 7.1235217,12.097472 6.9644936,11.799409 6.7634127,11.521273 6.5506237,11.226939 6.2830878,10.941216 6.0249566,10.625203 5.5086947,9.9931782 5.0270848,9.2460755 5.0270848,8.1736735 c 0,-1.8598071 1.527624,-3.3705919 3.4395839,-3.4085782 z m 0,0.6976322 c -0.352865,0 -0.352865,0.5296829 0,0.529684 0.7885261,0 1.5166426,0.4182279 1.9104783,1.097607 0.195272,0.3119591 0.628925,0.02444 0.45682,-0.2656171 C 10.345553,5.9818686 9.4426378,5.4627275 8.4666687,5.4627275 Z m 2.6468663,2.2102011 c -0.145924,-5.82e-4 -0.264763,0.1171099 -0.265616,0.2630329 -8.73e-4,0.1457259 0.116277,0.264713 0.261999,0.2661341 0.145929,0.0014 0.265464,-0.1155571 0.267167,-0.263033 1e-6,-0.1472719 -0.117828,-0.2655639 -0.26355,-0.266134 z" id="path2161" style="color:#000000;font-style:normal;font-variant:normal;font-weight:normal;font-stretch:normal;font-size:medium;line-height:normal;font-family:sans-serif;font-variant-ligatures:normal;font-variant-position:normal;font-variant-caps:normal;font-variant-numeric:normal;font-variant-alternates:normal;font-feature-settings:normal;text-indent:0;text-align:start;text-decoration:none;text-decoration-line:none;text-decoration-style:solid;text-decoration-color:#000000;letter-spacing:normal;word-spacing:normal;text-transform:none;writing-mode:lr-tb;direction:ltr;text-orientation:mixed;dominant-baseline:auto;baseline-shift:baseline;text-anchor:start;white-space:normal;shape-padding:0;clip-rule:nonzero;display:inline;overflow:visible;visibility:visible;opacity:1;isolation:auto;mix-blend-mode:normal;color-interpolation:sRGB;color-interpolation-filters:linearRGB;solid-color:#000000;solid-opacity:1;vector-effect:none;fill:#000000;fill-opacity:1;fill-rule:nonzero;stroke:none;stroke-width:0.52916801;stroke-linecap:butt;stroke-linejoin:round;stroke-miterlimit:4;stroke-dasharray:none;stroke-dashoffset:0;stroke-opacity:1;color-rendering:auto;image-rendering:auto;shape-rendering:auto;text-rendering:auto;enable-background:accumulate"></path></g></svg>