<svg xmlns="http://www.w3.org/2000/svg" xmlns:xlink="http://www.w3.org/1999/xlink" width="239" viewBox="0 0 179.25 82.499998" height="110" preserveAspectRatio="xMidYMid meet"><defs><clipPath id="14f88aceaf"><path d="M 68.21875 8.199219 L 99.058594 8.199219 L 99.058594 55.09375 L 68.21875 55.09375 Z M 68.21875 8.199219 " clip-rule="nonzero"></path></clipPath><clipPath id="5d52c4eae5"><path d="M 69.273438 10.328125 L 101.328125 10.328125 L 101.328125 55.058594 L 69.273438 55.058594 Z M 69.273438 10.328125 " clip-rule="nonzero"></path></clipPath><clipPath id="5c50f0d30f"><path d="M 69.945312 10.328125 L 100.757812 10.328125 L 100.757812 55.058594 L 69.945312 55.058594 Z M 69.945312 10.328125 " clip-rule="nonzero"></path></clipPath><clipPath id="5dc3d5c80a"><path d="M 72.074219 11.023438 L 100.613281 11.023438 L 100.613281 55 L 72.074219 55 Z M 72.074219 11.023438 " clip-rule="nonzero"></path></clipPath></defs><path fill="#000000" d="M 66.5 39.230469 L 66.5 44.835938 L 35.855469 44.835938 L 35.621094 40.601562 L 53.953125 11.867188 L 59.585938 11.867188 L 53.484375 22.324219 L 42.949219 39.230469 Z M 61.1875 11.867188 L 61.1875 54.386719 L 54.15625 54.386719 L 54.15625 11.867188 Z M 100.476562 39.230469 L 100.476562 44.835938 L 69.828125 44.835938 L 69.59375 40.601562 L 87.925781 11.867188 L 93.558594 11.867188 L 87.457031 22.324219 L 76.921875 39.230469 Z M 95.164062 11.867188 L 95.164062 54.386719 L 88.128906 54.386719 L 88.128906 11.867188 Z M 104.714844 51.054688 L 104.714844 52.453125 C 104.714844 53.023438 104.570312 53.621094 104.28125 54.253906 C 104.007812 54.882812 103.605469 55.414062 103.074219 55.847656 L 102.089844 55.164062 C 102.289062 54.886719 102.460938 54.605469 102.597656 54.320312 C 102.734375 54.039062 102.835938 53.742188 102.90625 53.4375 C 102.980469 53.136719 103.019531 52.820312 103.019531 52.480469 L 103.019531 51.054688 Z M 108.464844 51.664062 L 108.640625 51.664062 C 109.640625 51.664062 110.453125 51.527344 111.078125 51.242188 C 111.703125 50.960938 112.183594 50.585938 112.519531 50.109375 C 112.863281 49.625 113.09375 49.089844 113.214844 48.507812 C 113.339844 47.90625 113.402344 47.289062 113.402344 46.660156 L 113.402344 44.566406 C 113.402344 43.949219 113.332031 43.398438 113.1875 42.917969 C 113.050781 42.4375 112.855469 42.03125 112.605469 41.707031 C 112.382812 41.398438 112.105469 41.152344 111.769531 40.964844 C 111.460938 40.796875 111.128906 40.710938 110.777344 40.714844 C 110.378906 40.714844 110.019531 40.796875 109.699219 40.957031 C 109.386719 41.113281 109.121094 41.335938 108.902344 41.625 C 108.679688 41.929688 108.519531 42.269531 108.414062 42.636719 C 108.300781 43.050781 108.242188 43.472656 108.246094 43.902344 C 108.246094 44.308594 108.296875 44.703125 108.398438 45.082031 C 108.496094 45.464844 108.652344 45.808594 108.855469 46.113281 C 109.0625 46.421875 109.320312 46.664062 109.625 46.847656 C 109.9375 47.019531 110.304688 47.109375 110.722656 47.109375 C 111.109375 47.109375 111.472656 47.035156 111.808594 46.882812 C 112.152344 46.726562 112.457031 46.519531 112.71875 46.253906 C 112.988281 45.988281 113.199219 45.683594 113.355469 45.347656 C 113.519531 45.007812 113.613281 44.65625 113.636719 44.285156 L 114.460938 44.285156 C 114.460938 44.820312 114.355469 45.332031 114.152344 45.824219 C 113.949219 46.328125 113.667969 46.785156 113.308594 47.191406 C 112.949219 47.605469 112.523438 47.9375 112.035156 48.1875 C 111.53125 48.4375 111 48.558594 110.441406 48.550781 C 109.765625 48.550781 109.183594 48.421875 108.6875 48.160156 C 108.199219 47.902344 107.792969 47.554688 107.46875 47.109375 C 107.152344 46.660156 106.917969 46.171875 106.765625 45.644531 C 106.617188 45.105469 106.542969 44.554688 106.542969 43.996094 C 106.542969 43.34375 106.632812 42.734375 106.8125 42.167969 C 106.984375 41.613281 107.253906 41.113281 107.621094 40.667969 C 107.980469 40.222656 108.421875 39.882812 108.941406 39.644531 C 109.472656 39.402344 110.085938 39.28125 110.777344 39.28125 C 111.558594 39.28125 112.222656 39.433594 112.773438 39.746094 C 113.324219 40.0625 113.769531 40.480469 114.113281 41.003906 C 114.464844 41.527344 114.71875 42.121094 114.882812 42.777344 C 115.046875 43.433594 115.125 44.109375 115.125 44.800781 L 115.125 45.429688 C 115.125 46.136719 115.082031 46.855469 114.984375 47.585938 C 114.902344 48.300781 114.730469 48.996094 114.46875 49.667969 C 114.222656 50.332031 113.855469 50.925781 113.375 51.449219 C 112.894531 51.96875 112.265625 52.382812 111.492188 52.6875 C 110.722656 52.988281 109.773438 53.136719 108.640625 53.136719 L 108.464844 53.136719 Z M 126.101562 45.207031 L 126.101562 47.285156 C 126.101562 48.40625 126 49.347656 125.800781 50.117188 C 125.601562 50.886719 125.3125 51.507812 124.9375 51.976562 C 124.578125 52.4375 124.125 52.777344 123.582031 52.996094 C 123.054688 53.203125 122.460938 53.304688 121.800781 53.304688 C 121.304688 53.3125 120.820312 53.246094 120.347656 53.109375 C 119.90625 52.980469 119.503906 52.773438 119.148438 52.480469 C 118.796875 52.1875 118.496094 51.804688 118.246094 51.335938 C 117.996094 50.867188 117.808594 50.300781 117.675781 49.628906 C 117.542969 48.960938 117.480469 48.179688 117.480469 47.285156 L 117.480469 45.207031 C 117.480469 44.085938 117.578125 43.148438 117.777344 42.390625 C 117.984375 41.636719 118.277344 41.03125 118.652344 40.574219 C 119.011719 40.121094 119.460938 39.789062 120 39.578125 C 120.53125 39.378906 121.125 39.28125 121.78125 39.28125 C 122.3125 39.28125 122.800781 39.34375 123.242188 39.476562 C 123.691406 39.601562 124.09375 39.804688 124.441406 40.085938 C 124.792969 40.359375 125.089844 40.730469 125.332031 41.191406 C 125.582031 41.648438 125.773438 42.207031 125.902344 42.871094 C 126.035156 43.535156 126.101562 44.3125 126.101562 45.207031 Z M 124.359375 47.570312 L 124.359375 44.914062 C 124.359375 44.300781 124.320312 43.765625 124.246094 43.300781 C 124.175781 42.832031 124.074219 42.433594 123.9375 42.101562 C 123.800781 41.769531 123.625 41.5 123.410156 41.296875 C 123.207031 41.089844 122.964844 40.9375 122.691406 40.84375 C 122.394531 40.738281 122.09375 40.691406 121.78125 40.695312 C 121.367188 40.695312 121.003906 40.773438 120.683594 40.929688 C 120.367188 41.078125 120.097656 41.320312 119.878906 41.652344 C 119.667969 41.984375 119.503906 42.417969 119.390625 42.953125 C 119.277344 43.492188 119.222656 44.144531 119.222656 44.914062 L 119.222656 47.570312 C 119.222656 48.179688 119.257812 48.722656 119.324219 49.191406 C 119.398438 49.660156 119.507812 50.066406 119.652344 50.410156 C 119.796875 50.746094 119.972656 51.023438 120.179688 51.246094 C 120.382812 51.460938 120.621094 51.625 120.890625 51.730469 C 121.164062 51.832031 121.46875 51.882812 121.800781 51.882812 C 122.222656 51.882812 122.597656 51.800781 122.914062 51.636719 C 123.234375 51.476562 123.5 51.222656 123.710938 50.878906 C 123.929688 50.527344 124.09375 50.082031 124.199219 49.539062 C 124.304688 48.988281 124.359375 48.332031 124.359375 47.566406 Z M 134.554688 39.464844 L 128.867188 54.292969 L 127.375 54.292969 L 133.074219 39.464844 Z M 138.171875 44.988281 L 138.171875 53.121094 L 136.429688 53.121094 L 136.429688 42.972656 L 138.078125 42.972656 Z M 137.816406 47.660156 L 137.011719 47.632812 C 137.015625 46.941406 137.105469 46.300781 137.28125 45.710938 C 137.441406 45.144531 137.699219 44.628906 138.058594 44.164062 C 138.40625 43.722656 138.832031 43.386719 139.34375 43.152344 C 139.855469 42.90625 140.449219 42.785156 141.125 42.785156 C 141.574219 42.78125 142.011719 42.851562 142.4375 42.992188 C 142.832031 43.121094 143.179688 43.328125 143.476562 43.621094 C 143.769531 43.90625 144 44.277344 144.160156 44.726562 C 144.324219 45.175781 144.40625 45.722656 144.40625 46.359375 L 144.40625 53.121094 L 142.671875 53.121094 L 142.671875 46.441406 C 142.671875 45.910156 142.578125 45.484375 142.398438 45.167969 C 142.230469 44.851562 141.980469 44.617188 141.648438 44.472656 C 141.324219 44.324219 140.941406 44.25 140.503906 44.25 C 139.992188 44.25 139.566406 44.339844 139.222656 44.519531 C 138.878906 44.703125 138.601562 44.953125 138.398438 45.269531 C 138.183594 45.609375 138.03125 45.976562 137.949219 46.367188 C 137.859375 46.792969 137.8125 47.226562 137.816406 47.660156 Z M 144.386719 46.707031 L 143.222656 47.0625 C 143.230469 46.503906 143.320312 45.972656 143.496094 45.457031 C 143.675781 44.945312 143.9375 44.488281 144.273438 44.089844 C 144.625 43.679688 145.046875 43.367188 145.539062 43.140625 C 146.039062 42.902344 146.609375 42.785156 147.253906 42.785156 C 147.796875 42.785156 148.277344 42.859375 148.695312 43 C 149.121094 43.144531 149.476562 43.367188 149.765625 43.667969 C 150.058594 43.960938 150.28125 44.339844 150.429688 44.800781 C 150.582031 45.265625 150.65625 45.8125 150.65625 46.453125 L 150.65625 53.121094 L 148.914062 53.121094 L 148.914062 46.433594 C 148.914062 45.863281 148.824219 45.421875 148.640625 45.113281 C 148.476562 44.792969 148.226562 44.574219 147.890625 44.445312 C 147.570312 44.3125 147.191406 44.25 146.75 44.25 C 146.367188 44.25 146.027344 44.3125 145.734375 44.445312 C 145.441406 44.578125 145.195312 44.757812 144.996094 44.988281 C 144.796875 45.214844 144.640625 45.472656 144.535156 45.769531 C 144.433594 46.070312 144.382812 46.382812 144.386719 46.707031 Z M 157.488281 53.304688 C 156.78125 53.304688 156.140625 53.1875 155.566406 52.949219 C 155.003906 52.710938 154.515625 52.371094 154.09375 51.929688 C 153.675781 51.472656 153.363281 50.953125 153.15625 50.371094 C 152.941406 49.769531 152.832031 49.117188 152.832031 48.402344 L 152.832031 48.007812 C 152.832031 47.183594 152.953125 46.449219 153.195312 45.804688 C 153.4375 45.15625 153.769531 44.605469 154.1875 44.15625 C 154.59375 43.714844 155.066406 43.375 155.613281 43.132812 C 156.140625 42.902344 156.6875 42.785156 157.261719 42.785156 C 157.988281 42.785156 158.613281 42.910156 159.136719 43.160156 C 159.660156 43.402344 160.09375 43.75 160.441406 44.210938 C 160.777344 44.65625 161.027344 45.179688 161.191406 45.785156 C 161.351562 46.386719 161.433594 47.042969 161.433594 47.753906 L 161.433594 48.535156 L 153.859375 48.535156 L 153.859375 47.117188 L 159.699219 47.117188 L 159.699219 46.988281 C 159.675781 46.535156 159.582031 46.097656 159.417969 45.675781 C 159.269531 45.253906 159.019531 44.902344 158.667969 44.625 C 158.324219 44.347656 157.855469 44.210938 157.261719 44.210938 C 156.878906 44.207031 156.515625 44.292969 156.171875 44.46875 C 155.832031 44.640625 155.546875 44.882812 155.324219 45.195312 C 155.085938 45.519531 154.902344 45.917969 154.769531 46.386719 C 154.636719 46.855469 154.574219 47.394531 154.574219 48.007812 L 154.574219 48.402344 C 154.574219 48.882812 154.636719 49.335938 154.769531 49.761719 C 154.90625 50.179688 155.105469 50.550781 155.359375 50.867188 C 155.621094 51.1875 155.9375 51.4375 156.308594 51.617188 C 156.683594 51.800781 157.105469 51.890625 157.582031 51.890625 C 158.195312 51.890625 158.710938 51.765625 159.136719 51.515625 C 159.574219 51.253906 159.949219 50.921875 160.253906 50.511719 L 161.300781 51.347656 C 161.066406 51.699219 160.789062 52.015625 160.46875 52.292969 C 160.128906 52.59375 159.714844 52.839844 159.222656 53.023438 C 158.734375 53.214844 158.15625 53.304688 157.488281 53.304688 Z M 157.777344 38.714844 L 160.101562 41.277344 L 160.101562 41.371094 L 158.660156 41.371094 L 157.253906 39.785156 L 155.859375 41.371094 L 154.433594 41.371094 L 154.433594 41.265625 L 156.730469 38.714844 Z M 169.363281 50.429688 C 169.363281 50.183594 169.308594 49.953125 169.195312 49.734375 C 169.085938 49.515625 168.867188 49.316406 168.527344 49.144531 C 168.195312 48.960938 167.695312 48.804688 167.027344 48.675781 C 166.511719 48.566406 166 48.425781 165.5 48.253906 C 165.089844 48.109375 164.703125 47.914062 164.347656 47.660156 C 164.046875 47.445312 163.804688 47.171875 163.625 46.847656 C 163.457031 46.53125 163.375 46.167969 163.375 45.75 C 163.375 45.347656 163.460938 44.96875 163.636719 44.613281 C 163.824219 44.246094 164.078125 43.929688 164.394531 43.667969 C 164.75 43.378906 165.148438 43.160156 165.585938 43.019531 C 166.046875 42.863281 166.5625 42.785156 167.132812 42.785156 C 167.945312 42.785156 168.636719 42.929688 169.210938 43.21875 C 169.785156 43.503906 170.226562 43.890625 170.535156 44.371094 C 170.847656 44.851562 171 45.378906 170.992188 45.957031 L 169.257812 45.957031 C 169.257812 45.65625 169.171875 45.386719 169.007812 45.140625 C 168.84375 44.871094 168.601562 44.648438 168.285156 44.472656 C 167.972656 44.296875 167.585938 44.210938 167.132812 44.210938 C 166.652344 44.210938 166.261719 44.285156 165.960938 44.4375 C 165.667969 44.578125 165.453125 44.765625 165.3125 44.988281 C 165.183594 45.207031 165.117188 45.445312 165.117188 45.703125 C 165.117188 45.890625 165.148438 46.058594 165.210938 46.207031 C 165.277344 46.351562 165.398438 46.488281 165.566406 46.609375 C 165.734375 46.730469 165.972656 46.84375 166.277344 46.949219 C 166.585938 47.054688 166.976562 47.160156 167.449219 47.269531 C 168.28125 47.457031 168.964844 47.679688 169.503906 47.945312 C 170.039062 48.207031 170.441406 48.527344 170.703125 48.910156 C 170.964844 49.289062 171.097656 49.753906 171.097656 50.296875 C 171.097656 50.742188 171.003906 51.148438 170.816406 51.515625 C 170.632812 51.886719 170.367188 52.203125 170.019531 52.472656 C 169.675781 52.734375 169.261719 52.941406 168.78125 53.089844 C 168.304688 53.234375 167.773438 53.308594 167.179688 53.308594 C 166.285156 53.308594 165.527344 53.148438 164.910156 52.828125 C 164.292969 52.507812 163.824219 52.097656 163.503906 51.589844 C 163.1875 51.085938 163.027344 50.550781 163.027344 49.988281 L 164.769531 49.988281 C 164.796875 50.460938 164.933594 50.839844 165.183594 51.121094 C 165.433594 51.398438 165.738281 51.59375 166.101562 51.710938 C 166.464844 51.824219 166.824219 51.882812 167.179688 51.882812 C 167.652344 51.882812 168.050781 51.820312 168.367188 51.695312 C 168.695312 51.570312 168.941406 51.398438 169.109375 51.179688 C 169.28125 50.957031 169.367188 50.707031 169.363281 50.429688 Z M 4.5 3.125 L 11.179688 3.125 C 12.617188 3.125 13.839844 3.34375 14.851562 3.773438 C 15.863281 4.207031 16.636719 4.847656 17.175781 5.695312 C 17.71875 6.535156 17.992188 7.574219 17.992188 8.8125 C 17.992188 9.753906 17.820312 10.585938 17.472656 11.304688 C 17.128906 12.023438 16.636719 12.628906 16.007812 13.121094 C 15.375 13.605469 14.625 13.980469 13.75 14.25 L 12.761719 14.730469 L 6.757812 14.730469 L 6.730469 12.148438 L 11.234375 12.148438 C 12.011719 12.148438 12.660156 12.007812 13.179688 11.730469 C 13.699219 11.453125 14.085938 11.078125 14.347656 10.601562 C 14.613281 10.117188 14.75 9.574219 14.75 8.96875 C 14.75 8.308594 14.617188 7.738281 14.359375 7.253906 C 14.109375 6.761719 13.71875 6.382812 13.191406 6.125 C 12.664062 5.855469 11.992188 5.722656 11.179688 5.722656 L 7.757812 5.722656 L 7.757812 22.023438 L 4.5 22.023438 Z M 15.28125 22.023438 L 10.84375 13.535156 L 14.253906 13.523438 L 18.757812 21.855469 L 18.757812 22.023438 Z M 28.25 0.101562 L 28.25 3.984375 L 26.253906 3.984375 L 26.253906 0.101562 Z M 28.003906 21.296875 L 28.003906 24.773438 L 26.019531 24.773438 L 26.019531 21.296875 Z M 29.964844 17.105469 C 29.964844 16.601562 29.859375 16.164062 29.652344 15.792969 C 29.453125 15.414062 29.125 15.070312 28.667969 14.769531 C 28.207031 14.457031 27.59375 14.167969 26.824219 13.898438 C 25.71875 13.507812 24.75 13.074219 23.917969 12.589844 C 23.097656 12.09375 22.457031 11.488281 22 10.769531 C 21.550781 10.042969 21.324219 9.140625 21.324219 8.058594 C 21.324219 6.992188 21.566406 6.074219 22.050781 5.292969 C 22.542969 4.515625 23.226562 3.914062 24.101562 3.492188 C 24.972656 3.066406 25.996094 2.855469 27.164062 2.855469 C 28.0625 2.855469 28.871094 2.988281 29.585938 3.257812 C 30.3125 3.523438 30.933594 3.917969 31.441406 4.4375 C 31.953125 4.957031 32.34375 5.597656 32.609375 6.359375 C 32.886719 7.109375 33.023438 7.976562 33.023438 8.953125 L 29.910156 8.953125 C 29.910156 8.398438 29.847656 7.90625 29.71875 7.472656 C 29.597656 7.03125 29.414062 6.660156 29.171875 6.359375 C 28.9375 6.050781 28.640625 5.8125 28.289062 5.644531 C 27.953125 5.480469 27.566406 5.398438 27.136719 5.398438 C 26.519531 5.398438 26.015625 5.515625 25.617188 5.75 C 25.21875 5.972656 24.925781 6.285156 24.734375 6.683594 C 24.554688 7.082031 24.464844 7.535156 24.464844 8.046875 C 24.464844 8.539062 24.558594 8.972656 24.75 9.34375 C 24.9375 9.714844 25.261719 10.054688 25.722656 10.355469 C 26.1875 10.648438 26.828125 10.949219 27.640625 11.25 C 28.757812 11.648438 29.722656 12.09375 30.535156 12.589844 C 31.355469 13.074219 31.988281 13.675781 32.429688 14.390625 C 32.878906 15.101562 33.101562 15.996094 33.101562 17.078125 C 33.101562 18.195312 32.84375 19.140625 32.324219 19.921875 C 31.816406 20.699219 31.097656 21.292969 30.171875 21.699219 C 29.253906 22.097656 28.1875 22.296875 26.96875 22.296875 C 26.199219 22.296875 25.433594 22.195312 24.671875 21.996094 C 23.921875 21.792969 23.238281 21.457031 22.621094 20.984375 C 22.007812 20.519531 21.519531 19.898438 21.15625 19.128906 C 20.792969 18.351562 20.609375 17.398438 20.609375 16.273438 L 23.75 16.273438 C 23.75 16.949219 23.839844 17.511719 24.023438 17.960938 C 24.203125 18.410156 24.449219 18.765625 24.761719 19.027344 C 25.074219 19.285156 25.417969 19.472656 25.800781 19.582031 C 26.1875 19.695312 26.578125 19.753906 26.96875 19.753906 C 27.617188 19.753906 28.160156 19.644531 28.601562 19.429688 C 29.050781 19.203125 29.386719 18.890625 29.613281 18.492188 C 29.847656 18.085938 29.964844 17.625 29.964844 17.105469 Z M 58.6875 73.234375 L 58.6875 81.425781 L 56.859375 81.425781 L 56.859375 71.914062 L 58.554688 71.914062 Z M 63.03125 75.273438 L 63.03125 75.40625 C 63.03125 75.90625 62.972656 76.371094 62.855469 76.796875 C 62.753906 77.199219 62.582031 77.570312 62.347656 77.914062 C 62.121094 78.226562 61.84375 78.472656 61.507812 78.652344 C 61.179688 78.824219 60.796875 78.910156 60.367188 78.910156 C 59.949219 78.910156 59.585938 78.824219 59.277344 78.65625 C 58.960938 78.480469 58.699219 78.246094 58.496094 77.945312 C 58.277344 77.613281 58.109375 77.253906 57.996094 76.871094 C 57.863281 76.445312 57.765625 76.007812 57.703125 75.566406 L 57.703125 75.214844 C 57.769531 74.714844 57.867188 74.257812 57.996094 73.84375 C 58.121094 73.425781 58.289062 73.0625 58.496094 72.757812 C 58.707031 72.449219 58.964844 72.210938 59.269531 72.042969 C 59.578125 71.871094 59.941406 71.789062 60.355469 71.789062 C 60.789062 71.789062 61.171875 71.871094 61.503906 72.035156 C 61.835938 72.199219 62.117188 72.4375 62.339844 72.746094 C 62.570312 73.054688 62.742188 73.425781 62.855469 73.851562 C 62.972656 74.277344 63.03125 74.753906 63.03125 75.273438 Z M 61.199219 75.40625 L 61.199219 75.273438 C 61.199219 74.980469 61.171875 74.710938 61.121094 74.46875 C 61.082031 74.234375 61.007812 74.019531 60.894531 73.8125 C 60.796875 73.632812 60.664062 73.488281 60.488281 73.378906 C 60.324219 73.277344 60.121094 73.222656 59.886719 73.222656 C 59.636719 73.222656 59.421875 73.261719 59.246094 73.34375 C 59.070312 73.421875 58.929688 73.539062 58.820312 73.691406 C 58.703125 73.859375 58.621094 74.039062 58.570312 74.238281 C 58.515625 74.449219 58.484375 74.6875 58.46875 74.957031 L 58.46875 75.835938 C 58.492188 76.152344 58.550781 76.433594 58.648438 76.683594 C 58.746094 76.929688 58.894531 77.121094 59.097656 77.265625 C 59.300781 77.410156 59.566406 77.480469 59.898438 77.480469 C 60.140625 77.480469 60.34375 77.429688 60.507812 77.324219 C 60.671875 77.214844 60.804688 77.0625 60.90625 76.871094 C 61.011719 76.683594 61.085938 76.460938 61.128906 76.210938 C 61.175781 75.964844 61.199219 75.695312 61.199219 75.40625 Z M 63.875 75.417969 L 63.875 75.285156 C 63.875 74.78125 63.949219 74.320312 64.09375 73.894531 C 64.234375 73.46875 64.445312 73.097656 64.71875 72.785156 C 64.996094 72.472656 65.332031 72.226562 65.734375 72.054688 C 66.136719 71.875 66.597656 71.789062 67.117188 71.789062 C 67.636719 71.789062 68.101562 71.878906 68.507812 72.054688 C 68.914062 72.226562 69.253906 72.472656 69.53125 72.785156 C 69.808594 73.097656 70.019531 73.46875 70.164062 73.894531 C 70.308594 74.320312 70.378906 74.78125 70.378906 75.285156 L 70.378906 75.417969 C 70.386719 75.894531 70.3125 76.359375 70.164062 76.808594 C 70.027344 77.222656 69.816406 77.59375 69.53125 77.921875 C 69.253906 78.234375 68.917969 78.476562 68.515625 78.652344 C 68.113281 78.824219 67.652344 78.910156 67.132812 78.910156 C 66.609375 78.910156 66.148438 78.824219 65.742188 78.652344 C 65.347656 78.484375 65.007812 78.238281 64.722656 77.921875 C 64.4375 77.589844 64.226562 77.222656 64.09375 76.808594 C 63.945312 76.359375 63.871094 75.894531 63.875 75.417969 Z M 65.703125 75.285156 L 65.703125 75.417969 C 65.703125 75.707031 65.730469 75.976562 65.78125 76.226562 C 65.832031 76.476562 65.910156 76.695312 66.019531 76.886719 C 66.136719 77.070312 66.285156 77.21875 66.464844 77.324219 C 66.648438 77.429688 66.867188 77.480469 67.132812 77.480469 C 67.382812 77.480469 67.601562 77.429688 67.785156 77.324219 C 67.96875 77.214844 68.117188 77.070312 68.222656 76.886719 C 68.332031 76.695312 68.414062 76.476562 68.464844 76.226562 C 68.519531 75.976562 68.546875 75.707031 68.546875 75.417969 L 68.546875 75.285156 C 68.546875 75.007812 68.519531 74.746094 68.464844 74.5 C 68.417969 74.265625 68.335938 74.042969 68.214844 73.839844 C 68.109375 73.648438 67.964844 73.496094 67.777344 73.382812 C 67.597656 73.269531 67.375 73.214844 67.117188 73.214844 C 66.859375 73.214844 66.640625 73.269531 66.457031 73.382812 C 66.273438 73.496094 66.128906 73.648438 66.019531 73.839844 C 65.90625 74.046875 65.824219 74.265625 65.78125 74.5 C 65.730469 74.746094 65.703125 75.007812 65.703125 75.285156 Z M 73.332031 73.414062 L 73.332031 78.785156 L 71.503906 78.785156 L 71.503906 71.914062 L 73.222656 71.914062 Z M 75.398438 71.871094 L 75.367188 73.566406 C 75.261719 73.550781 75.152344 73.539062 75.042969 73.535156 C 74.933594 73.523438 74.820312 73.515625 74.707031 73.515625 C 74.449219 73.515625 74.226562 73.546875 74.035156 73.617188 C 73.855469 73.675781 73.699219 73.769531 73.566406 73.902344 C 73.441406 74.027344 73.347656 74.183594 73.285156 74.367188 C 73.226562 74.546875 73.191406 74.753906 73.183594 74.988281 L 72.816406 74.875 C 72.816406 74.429688 72.859375 74.019531 72.949219 73.648438 C 73.039062 73.269531 73.167969 72.941406 73.335938 72.664062 C 73.496094 72.398438 73.707031 72.179688 73.972656 72.015625 C 74.234375 71.859375 74.519531 71.78125 74.828125 71.789062 C 74.929688 71.789062 75.03125 71.796875 75.140625 71.8125 C 75.246094 71.824219 75.332031 71.84375 75.398438 71.871094 Z M 83.558594 77.140625 L 83.558594 71.914062 L 85.386719 71.914062 L 85.386719 78.785156 L 83.667969 78.785156 Z M 83.761719 75.730469 L 84.300781 75.71875 C 84.300781 76.175781 84.25 76.601562 84.140625 76.992188 C 84.046875 77.363281 83.886719 77.699219 83.667969 78.007812 C 83.453125 78.292969 83.1875 78.515625 82.867188 78.675781 C 82.546875 78.832031 82.167969 78.910156 81.730469 78.910156 C 81.398438 78.910156 81.089844 78.863281 80.804688 78.769531 C 80.527344 78.675781 80.289062 78.527344 80.082031 78.320312 C 79.867188 78.089844 79.710938 77.824219 79.613281 77.527344 C 79.503906 77.199219 79.445312 76.808594 79.445312 76.351562 L 79.445312 71.914062 L 81.273438 71.914062 L 81.273438 76.363281 C 81.273438 76.570312 81.296875 76.738281 81.34375 76.878906 C 81.394531 77.019531 81.464844 77.132812 81.554688 77.222656 C 81.644531 77.3125 81.746094 77.375 81.863281 77.414062 C 81.988281 77.449219 82.121094 77.46875 82.269531 77.46875 C 82.648438 77.46875 82.941406 77.394531 83.160156 77.242188 C 83.378906 77.089844 83.53125 76.882812 83.621094 76.617188 C 83.714844 76.351562 83.761719 76.054688 83.761719 75.730469 Z M 90.492188 76.886719 C 90.496094 76.753906 90.457031 76.636719 90.378906 76.53125 C 90.304688 76.425781 90.160156 76.328125 89.953125 76.238281 C 89.75 76.144531 89.457031 76.058594 89.070312 75.984375 C 88.742188 75.914062 88.417969 75.816406 88.101562 75.699219 C 87.824219 75.589844 87.566406 75.449219 87.328125 75.273438 C 87.117188 75.113281 86.945312 74.921875 86.820312 74.6875 C 86.691406 74.445312 86.628906 74.183594 86.636719 73.910156 C 86.636719 73.621094 86.699219 73.347656 86.820312 73.097656 C 86.945312 72.839844 87.125 72.617188 87.359375 72.421875 C 87.617188 72.210938 87.902344 72.058594 88.222656 71.960938 C 88.566406 71.84375 88.949219 71.789062 89.375 71.789062 C 89.972656 71.789062 90.484375 71.882812 90.914062 72.074219 C 91.34375 72.265625 91.671875 72.527344 91.902344 72.859375 C 92.136719 73.191406 92.25 73.566406 92.25 73.992188 L 90.421875 73.992188 C 90.421875 73.8125 90.386719 73.65625 90.308594 73.515625 C 90.234375 73.363281 90.117188 73.25 89.96875 73.179688 C 89.816406 73.09375 89.617188 73.050781 89.371094 73.050781 C 89.167969 73.050781 88.992188 73.085938 88.84375 73.160156 C 88.695312 73.226562 88.582031 73.320312 88.5 73.4375 C 88.425781 73.554688 88.386719 73.679688 88.386719 73.820312 C 88.386719 73.925781 88.40625 74.019531 88.449219 74.105469 C 88.507812 74.195312 88.582031 74.269531 88.671875 74.328125 C 88.773438 74.394531 88.90625 74.457031 89.066406 74.519531 C 89.230469 74.574219 89.433594 74.625 89.675781 74.667969 C 90.128906 74.757812 90.570312 74.894531 91 75.070312 C 91.390625 75.230469 91.699219 75.449219 91.929688 75.730469 C 92.15625 76.003906 92.269531 76.367188 92.269531 76.816406 C 92.269531 77.121094 92.203125 77.398438 92.066406 77.652344 C 91.929688 77.90625 91.738281 78.128906 91.484375 78.320312 C 91.230469 78.507812 90.925781 78.652344 90.570312 78.757812 C 90.179688 78.863281 89.785156 78.914062 89.382812 78.910156 C 88.746094 78.910156 88.203125 78.796875 87.757812 78.566406 C 87.320312 78.339844 86.984375 78.050781 86.757812 77.699219 C 86.53125 77.34375 86.421875 76.976562 86.421875 76.605469 L 88.152344 76.605469 C 88.160156 76.855469 88.222656 77.058594 88.34375 77.210938 C 88.464844 77.363281 88.621094 77.472656 88.804688 77.539062 C 88.996094 77.605469 89.203125 77.640625 89.421875 77.640625 C 89.660156 77.640625 89.855469 77.609375 90.011719 77.546875 C 90.167969 77.476562 90.285156 77.390625 90.367188 77.277344 C 90.453125 77.160156 90.496094 77.03125 90.492188 76.886719 Z M 97.515625 77.140625 L 97.515625 71.914062 L 99.34375 71.914062 L 99.34375 78.785156 L 97.625 78.785156 Z M 97.71875 75.730469 L 98.257812 75.71875 C 98.257812 76.175781 98.207031 76.601562 98.101562 76.992188 C 98.007812 77.363281 97.847656 77.699219 97.625 78.007812 C 97.414062 78.292969 97.148438 78.515625 96.824219 78.675781 C 96.503906 78.832031 96.125 78.910156 95.691406 78.910156 C 95.375 78.914062 95.066406 78.867188 94.765625 78.769531 C 94.488281 78.675781 94.246094 78.527344 94.039062 78.320312 C 93.828125 78.089844 93.671875 77.824219 93.570312 77.527344 C 93.460938 77.199219 93.40625 76.808594 93.40625 76.351562 L 93.40625 71.914062 L 95.234375 71.914062 L 95.234375 76.363281 C 95.234375 76.570312 95.257812 76.738281 95.304688 76.878906 C 95.355469 77.019531 95.425781 77.132812 95.511719 77.222656 C 95.601562 77.3125 95.703125 77.375 95.824219 77.414062 C 95.945312 77.449219 96.082031 77.46875 96.230469 77.46875 C 96.605469 77.46875 96.902344 77.394531 97.117188 77.242188 C 97.34375 77.085938 97.496094 76.878906 97.582031 76.621094 C 97.675781 76.351562 97.71875 76.054688 97.71875 75.730469 Z M 104.445312 77.234375 L 104.445312 74.175781 C 104.445312 73.953125 104.410156 73.765625 104.339844 73.609375 C 104.265625 73.449219 104.15625 73.324219 104.003906 73.234375 C 103.855469 73.144531 103.660156 73.101562 103.425781 73.101562 C 103.222656 73.101562 103.046875 73.136719 102.898438 73.210938 C 102.75 73.277344 102.636719 73.378906 102.554688 73.507812 C 102.476562 73.636719 102.433594 73.785156 102.433594 73.960938 L 100.609375 73.960938 C 100.609375 73.667969 100.675781 73.390625 100.8125 73.128906 C 100.945312 72.863281 101.140625 72.632812 101.402344 72.433594 C 101.679688 72.222656 101.984375 72.0625 102.320312 71.960938 C 102.714844 71.839844 103.117188 71.78125 103.527344 71.789062 C 104.058594 71.789062 104.53125 71.878906 104.949219 72.054688 C 105.363281 72.230469 105.6875 72.5 105.925781 72.855469 C 106.164062 73.210938 106.285156 73.65625 106.285156 74.1875 L 106.285156 77.125 C 106.285156 77.503906 106.308594 77.8125 106.355469 78.054688 C 106.402344 78.289062 106.46875 78.496094 106.558594 78.675781 L 106.558594 78.785156 L 104.714844 78.785156 C 104.613281 78.558594 104.546875 78.328125 104.507812 78.085938 C 104.46875 77.804688 104.445312 77.519531 104.445312 77.234375 Z M 104.6875 74.601562 L 104.699219 75.636719 L 103.679688 75.636719 C 103.4375 75.636719 103.226562 75.664062 103.050781 75.71875 C 102.886719 75.765625 102.742188 75.84375 102.613281 75.953125 C 102.5 76.050781 102.414062 76.164062 102.359375 76.292969 C 102.304688 76.433594 102.28125 76.578125 102.28125 76.726562 C 102.28125 76.882812 102.320312 77.027344 102.390625 77.152344 C 102.460938 77.273438 102.566406 77.371094 102.699219 77.445312 C 102.835938 77.511719 102.996094 77.546875 103.175781 77.546875 C 103.453125 77.546875 103.691406 77.492188 103.894531 77.382812 C 104.082031 77.285156 104.238281 77.148438 104.363281 76.976562 C 104.476562 76.8125 104.535156 76.660156 104.542969 76.519531 L 105.023438 77.292969 C 104.949219 77.480469 104.855469 77.660156 104.746094 77.832031 C 104.628906 78.019531 104.484375 78.195312 104.308594 78.359375 C 104.117188 78.527344 103.902344 78.660156 103.667969 78.757812 C 103.417969 78.859375 103.121094 78.910156 102.777344 78.910156 C 102.363281 78.917969 101.964844 78.828125 101.589844 78.652344 C 101.246094 78.480469 100.96875 78.238281 100.753906 77.921875 C 100.542969 77.597656 100.441406 77.242188 100.449219 76.855469 C 100.449219 76.492188 100.515625 76.175781 100.652344 75.894531 C 100.785156 75.617188 100.984375 75.382812 101.25 75.191406 C 101.515625 74.996094 101.847656 74.851562 102.246094 74.753906 C 102.640625 74.652344 103.105469 74.601562 103.628906 74.601562 Z M 102.652344 70.988281 L 103.894531 69.03125 L 105.878906 69.03125 L 104.136719 70.988281 Z M 109.523438 73.414062 L 109.523438 78.785156 L 107.695312 78.785156 L 107.695312 71.914062 L 109.414062 71.914062 Z M 111.589844 71.871094 L 111.558594 73.566406 C 111.453125 73.550781 111.34375 73.539062 111.234375 73.535156 C 111.125 73.523438 111.011719 73.515625 110.898438 73.515625 C 110.640625 73.515625 110.417969 73.546875 110.226562 73.617188 C 110.039062 73.679688 109.882812 73.773438 109.757812 73.902344 C 109.632812 74.027344 109.542969 74.183594 109.476562 74.367188 C 109.414062 74.566406 109.382812 74.773438 109.375 74.988281 L 109.007812 74.875 C 109.007812 74.429688 109.054688 74.019531 109.140625 73.648438 C 109.21875 73.300781 109.347656 72.972656 109.527344 72.664062 C 109.703125 72.386719 109.914062 72.167969 110.164062 72.015625 C 110.425781 71.859375 110.710938 71.78125 111.019531 71.789062 C 111.121094 71.789062 111.226562 71.796875 111.332031 71.8125 C 111.4375 71.824219 111.523438 71.84375 111.589844 71.871094 Z M 114.382812 71.914062 L 114.382812 78.785156 L 112.550781 78.785156 L 112.550781 71.914062 Z M 112.433594 70.125 C 112.433594 69.859375 112.527344 69.636719 112.714844 69.464844 C 112.898438 69.292969 113.148438 69.203125 113.460938 69.203125 C 113.769531 69.203125 114.019531 69.292969 114.203125 69.464844 C 114.394531 69.636719 114.492188 69.859375 114.492188 70.125 C 114.492188 70.390625 114.394531 70.609375 114.203125 70.785156 C 114.019531 70.957031 113.769531 71.046875 113.460938 71.046875 C 113.148438 71.046875 112.898438 70.957031 112.714844 70.785156 C 112.519531 70.605469 112.425781 70.386719 112.433594 70.125 Z M 115.601562 75.417969 L 115.601562 75.285156 C 115.601562 74.78125 115.671875 74.320312 115.816406 73.894531 C 115.960938 73.46875 116.167969 73.097656 116.445312 72.785156 C 116.71875 72.472656 117.058594 72.226562 117.460938 72.054688 C 117.863281 71.875 118.324219 71.789062 118.84375 71.789062 C 119.363281 71.789062 119.828125 71.878906 120.234375 72.054688 C 120.628906 72.21875 120.96875 72.464844 121.253906 72.785156 C 121.535156 73.097656 121.746094 73.46875 121.890625 73.894531 C 122.03125 74.320312 122.105469 74.78125 122.105469 75.285156 L 122.105469 75.417969 C 122.109375 75.894531 122.035156 76.359375 121.890625 76.808594 C 121.75 77.222656 121.539062 77.59375 121.253906 77.921875 C 120.980469 78.234375 120.640625 78.476562 120.238281 78.652344 C 119.835938 78.824219 119.375 78.910156 118.855469 78.910156 C 118.335938 78.910156 117.871094 78.824219 117.464844 78.652344 C 117.070312 78.484375 116.730469 78.238281 116.445312 77.921875 C 116.160156 77.589844 115.953125 77.222656 115.816406 76.808594 C 115.667969 76.359375 115.597656 75.894531 115.601562 75.417969 Z M 117.429688 75.285156 L 117.429688 75.417969 C 117.429688 75.707031 117.453125 75.976562 117.503906 76.226562 C 117.554688 76.476562 117.636719 76.695312 117.746094 76.886719 C 117.859375 77.070312 118.007812 77.21875 118.1875 77.324219 C 118.371094 77.429688 118.59375 77.480469 118.855469 77.480469 C 119.109375 77.480469 119.328125 77.429688 119.507812 77.324219 C 119.691406 77.21875 119.835938 77.070312 119.945312 76.886719 C 120.0625 76.679688 120.144531 76.457031 120.1875 76.226562 C 120.242188 75.976562 120.269531 75.707031 120.269531 75.417969 L 120.269531 75.285156 C 120.269531 75.007812 120.242188 74.746094 120.1875 74.5 C 120.144531 74.265625 120.0625 74.042969 119.941406 73.839844 C 119.835938 73.648438 119.691406 73.496094 119.503906 73.382812 C 119.320312 73.269531 119.101562 73.214844 118.84375 73.214844 C 118.585938 73.214844 118.367188 73.269531 118.183594 73.382812 C 118 73.496094 117.851562 73.648438 117.746094 73.839844 C 117.636719 74.027344 117.554688 74.25 117.503906 74.5 C 117.453125 74.746094 117.429688 75.007812 117.429688 75.285156 Z M 117.429688 75.285156 " fill-opacity="1" fill-rule="nonzero"></path><g clip-path="url(#14f88aceaf)"><path fill="#ffffff" d="M 68.21875 8.199219 L 99.058594 8.199219 L 99.058594 55.0625 L 68.21875 55.0625 Z M 68.21875 8.199219 " fill-opacity="1" fill-rule="nonzero"></path></g><g clip-path="url(#5d52c4eae5)"><path fill="#000000" d="M 45.640625 34.300781 L 40.136719 32.949219 L 42.398438 11.859375 L 64.886719 11.859375 L 64.886719 17.738281 L 48.132812 17.738281 L 46.984375 28.023438 C 47.632812 27.636719 48.53125 27.265625 49.675781 26.898438 C 50.824219 26.515625 52.132812 26.324219 53.601562 26.324219 C 55.570312 26.324219 57.324219 26.652344 58.875 27.304688 C 60.4375 27.933594 61.765625 28.867188 62.855469 30.097656 C 63.945312 31.308594 64.773438 32.789062 65.347656 34.535156 C 65.917969 36.265625 66.207031 38.214844 66.207031 40.382812 C 66.207031 42.324219 65.917969 44.136719 65.347656 45.832031 C 64.792969 47.519531 63.953125 49.011719 62.828125 50.296875 C 61.699219 51.585938 60.277344 52.589844 58.558594 53.324219 C 56.859375 54.03125 54.839844 54.386719 52.515625 54.386719 C 50.773438 54.386719 49.105469 54.136719 47.5 53.640625 C 45.917969 53.117188 44.492188 52.359375 43.230469 51.359375 C 41.957031 50.328125 40.945312 49.078125 40.195312 47.613281 C 39.433594 46.121094 38.992188 44.402344 38.875 42.457031 L 45.640625 42.457031 C 45.8125 43.824219 46.183594 44.984375 46.753906 45.945312 C 47.339844 46.886719 48.121094 47.605469 49.105469 48.105469 C 50.078125 48.605469 51.207031 48.855469 52.484375 48.855469 C 53.648438 48.855469 54.652344 48.652344 55.492188 48.25 C 56.335938 47.832031 57.035156 47.234375 57.582031 46.460938 C 58.15625 45.675781 58.574219 44.753906 58.84375 43.699219 C 59.132812 42.640625 59.273438 41.46875 59.273438 40.179688 C 59.273438 38.953125 59.113281 37.828125 58.785156 36.8125 C 58.480469 35.792969 58.011719 34.910156 57.382812 34.160156 C 56.773438 33.414062 56 32.835938 55.0625 32.433594 C 54.128906 32.007812 53.046875 31.796875 51.828125 31.796875 C 50.183594 31.796875 48.921875 32.035156 48.042969 32.519531 C 47.164062 33.011719 46.363281 33.605469 45.640625 34.300781 Z M 100.464844 38.859375 L 100.464844 44.390625 L 70.386719 44.390625 L 70.160156 40.210938 L 88.148438 11.859375 L 93.675781 11.859375 L 87.691406 22.171875 L 77.351562 38.859375 Z M 95.25 11.859375 L 95.25 53.8125 L 88.351562 53.8125 L 88.351562 11.859375 Z M 104.625 50.523438 L 104.625 51.90625 C 104.625 52.464844 104.484375 53.058594 104.203125 53.675781 C 103.933594 54.296875 103.535156 54.820312 103.015625 55.25 L 102.050781 54.574219 C 102.242188 54.3125 102.410156 54.035156 102.546875 53.742188 C 102.683594 53.464844 102.785156 53.175781 102.851562 52.875 C 102.921875 52.578125 102.960938 52.261719 102.960938 51.929688 L 102.960938 50.523438 Z M 108.304688 51.125 L 108.484375 51.125 C 109.460938 51.125 110.257812 50.988281 110.871094 50.710938 C 111.484375 50.433594 111.957031 50.058594 112.289062 49.589844 C 112.628906 49.109375 112.851562 48.582031 112.96875 48.007812 C 113.089844 47.414062 113.152344 46.808594 113.152344 46.183594 L 113.152344 44.121094 C 113.152344 43.511719 113.082031 42.964844 112.941406 42.492188 C 112.808594 42.019531 112.617188 41.621094 112.371094 41.300781 C 112.152344 40.996094 111.878906 40.75 111.554688 40.570312 C 111.25 40.398438 110.925781 40.320312 110.574219 40.320312 C 110.183594 40.320312 109.832031 40.398438 109.523438 40.5625 C 109.214844 40.714844 108.953125 40.933594 108.738281 41.21875 C 108.519531 41.519531 108.359375 41.851562 108.261719 42.214844 C 108.144531 42.625 108.089844 43.039062 108.09375 43.464844 C 108.09375 43.863281 108.140625 44.253906 108.242188 44.632812 C 108.339844 45.003906 108.492188 45.34375 108.695312 45.648438 C 108.898438 45.949219 109.144531 46.191406 109.445312 46.371094 C 109.75 46.542969 110.113281 46.628906 110.523438 46.628906 C 110.902344 46.628906 111.257812 46.554688 111.589844 46.410156 C 112.28125 46.089844 112.789062 45.582031 113.105469 44.890625 C 113.265625 44.558594 113.359375 44.207031 113.382812 43.84375 L 114.191406 43.84375 C 114.191406 44.371094 114.089844 44.875 113.890625 45.359375 C 113.6875 45.859375 113.414062 46.308594 113.058594 46.714844 C 112.707031 47.121094 112.289062 47.445312 111.8125 47.691406 C 111.320312 47.9375 110.796875 48.058594 110.246094 48.054688 C 109.582031 48.054688 109.011719 47.921875 108.523438 47.664062 C 108.050781 47.414062 107.652344 47.066406 107.332031 46.628906 C 107.019531 46.1875 106.789062 45.707031 106.640625 45.1875 C 106.492188 44.65625 106.421875 44.113281 106.421875 43.554688 C 106.421875 42.917969 106.507812 42.316406 106.6875 41.753906 C 106.855469 41.210938 107.117188 40.714844 107.476562 40.273438 C 107.832031 39.835938 108.265625 39.496094 108.773438 39.261719 C 109.296875 39.023438 109.898438 38.90625 110.574219 38.90625 C 111.34375 38.90625 112 39.058594 112.539062 39.367188 C 113.074219 39.675781 113.515625 40.085938 113.855469 40.609375 C 114.195312 41.125 114.449219 41.707031 114.605469 42.355469 C 114.765625 43 114.847656 43.667969 114.847656 44.355469 L 114.847656 44.976562 C 114.847656 45.667969 114.800781 46.382812 114.710938 47.101562 C 114.625 47.808594 114.457031 48.492188 114.203125 49.15625 C 113.957031 49.8125 113.597656 50.398438 113.125 50.914062 C 112.652344 51.425781 112.035156 51.832031 111.277344 52.132812 C 110.523438 52.429688 109.589844 52.578125 108.484375 52.578125 L 108.304688 52.578125 Z M 125.617188 44.75 L 125.617188 46.804688 C 125.617188 47.90625 125.519531 48.839844 125.320312 49.601562 C 125.125 50.359375 124.84375 50.96875 124.476562 51.429688 C 124.121094 51.886719 123.675781 52.222656 123.144531 52.441406 C 122.625 52.644531 122.042969 52.746094 121.394531 52.746094 C 120.910156 52.75 120.4375 52.683594 119.96875 52.550781 C 119.535156 52.421875 119.144531 52.214844 118.792969 51.929688 C 118.449219 51.636719 118.15625 51.265625 117.910156 50.800781 C 117.664062 50.339844 117.476562 49.777344 117.347656 49.117188 C 117.21875 48.457031 117.15625 47.6875 117.15625 46.804688 L 117.15625 44.75 C 117.15625 43.648438 117.25 42.722656 117.449219 41.976562 C 117.648438 41.226562 117.9375 40.632812 118.304688 40.179688 C 118.65625 39.734375 119.097656 39.40625 119.628906 39.199219 C 120.148438 39.003906 120.730469 38.90625 121.375 38.90625 C 121.898438 38.90625 122.378906 38.96875 122.808594 39.097656 C 123.25 39.21875 123.644531 39.421875 123.988281 39.699219 C 124.332031 39.972656 124.625 40.335938 124.863281 40.792969 C 125.105469 41.238281 125.292969 41.796875 125.425781 42.445312 C 125.550781 43.101562 125.617188 43.867188 125.617188 44.75 Z M 123.90625 47.082031 L 123.90625 44.464844 C 123.90625 43.859375 123.867188 43.328125 123.796875 42.875 C 123.726562 42.410156 123.628906 42.015625 123.492188 41.6875 C 123.359375 41.363281 123.1875 41.097656 122.980469 40.894531 C 122.777344 40.6875 122.539062 40.542969 122.269531 40.449219 C 121.976562 40.347656 121.683594 40.296875 121.375 40.300781 C 120.972656 40.300781 120.613281 40.375 120.300781 40.53125 C 119.988281 40.679688 119.722656 40.917969 119.507812 41.242188 C 119.300781 41.570312 119.140625 42 119.03125 42.53125 C 118.921875 43.058594 118.863281 43.707031 118.863281 44.464844 L 118.863281 47.082031 C 118.863281 47.6875 118.898438 48.21875 118.96875 48.683594 C 119.042969 49.144531 119.148438 49.546875 119.285156 49.886719 C 119.429688 50.21875 119.601562 50.492188 119.804688 50.710938 C 120.007812 50.925781 120.238281 51.082031 120.503906 51.191406 C 120.769531 51.289062 121.070312 51.339844 121.394531 51.339844 C 121.8125 51.339844 122.179688 51.257812 122.488281 51.097656 C 122.800781 50.9375 123.0625 50.6875 123.269531 50.347656 C 123.484375 50.003906 123.644531 49.5625 123.75 49.027344 C 123.851562 48.480469 123.90625 47.835938 123.90625 47.082031 Z M 133.914062 39.089844 L 128.332031 53.714844 L 126.867188 53.714844 L 132.460938 39.089844 Z M 137.464844 44.539062 L 137.464844 52.558594 L 135.753906 52.558594 L 135.753906 42.550781 L 137.371094 42.550781 Z M 137.113281 47.175781 L 136.324219 47.148438 C 136.328125 46.460938 136.417969 45.832031 136.589844 45.253906 C 136.746094 44.695312 137.003906 44.183594 137.351562 43.726562 C 137.695312 43.285156 138.113281 42.957031 138.613281 42.722656 C 139.117188 42.484375 139.699219 42.367188 140.363281 42.367188 C 140.804688 42.359375 141.234375 42.425781 141.652344 42.566406 C 142.039062 42.691406 142.378906 42.902344 142.671875 43.1875 C 142.957031 43.472656 143.183594 43.832031 143.339844 44.277344 C 143.503906 44.722656 143.578125 45.261719 143.578125 45.886719 L 143.578125 52.558594 L 141.878906 52.558594 L 141.878906 45.972656 C 141.878906 45.449219 141.792969 45.027344 141.613281 44.710938 C 141.449219 44.402344 141.203125 44.171875 140.875 44.03125 C 140.558594 43.878906 140.1875 43.808594 139.757812 43.808594 C 139.25 43.808594 138.832031 43.894531 138.496094 44.078125 C 138.15625 44.25 137.890625 44.496094 137.6875 44.816406 C 137.476562 45.152344 137.324219 45.511719 137.246094 45.898438 C 137.15625 46.320312 137.109375 46.742188 137.113281 47.175781 Z M 143.5625 46.230469 L 142.421875 46.582031 C 142.429688 46.035156 142.515625 45.507812 142.691406 45 C 142.867188 44.496094 143.121094 44.046875 143.453125 43.648438 C 143.796875 43.25 144.210938 42.9375 144.695312 42.714844 C 145.183594 42.480469 145.746094 42.367188 146.378906 42.367188 C 146.910156 42.367188 147.382812 42.433594 147.792969 42.578125 C 148.210938 42.71875 148.558594 42.9375 148.84375 43.234375 C 149.128906 43.523438 149.347656 43.894531 149.496094 44.355469 C 149.640625 44.808594 149.71875 45.351562 149.71875 45.980469 L 149.71875 52.558594 L 148.003906 52.558594 L 148.003906 45.964844 C 148.003906 45.402344 147.914062 44.96875 147.738281 44.660156 C 147.574219 44.347656 147.328125 44.125 147.003906 44.003906 C 146.6875 43.871094 146.316406 43.808594 145.878906 43.808594 C 145.507812 43.808594 145.175781 43.871094 144.886719 44.003906 C 144.597656 44.128906 144.355469 44.3125 144.160156 44.539062 C 143.960938 44.757812 143.8125 45.015625 143.710938 45.304688 C 143.609375 45.605469 143.558594 45.914062 143.5625 46.230469 Z M 156.421875 52.746094 C 155.730469 52.746094 155.101562 52.628906 154.535156 52.394531 C 153.984375 52.160156 153.5 51.824219 153.089844 51.382812 C 152.679688 50.9375 152.375 50.425781 152.171875 49.851562 C 151.957031 49.257812 151.847656 48.609375 151.847656 47.90625 L 151.847656 47.519531 C 151.847656 46.703125 151.972656 45.976562 152.210938 45.34375 C 152.445312 44.699219 152.773438 44.15625 153.183594 43.714844 C 153.578125 43.277344 154.046875 42.945312 154.582031 42.703125 C 155.097656 42.476562 155.636719 42.367188 156.199219 42.367188 C 156.914062 42.367188 157.527344 42.488281 158.039062 42.734375 C 158.554688 42.96875 158.980469 43.316406 159.316406 43.773438 C 159.652344 44.207031 159.894531 44.726562 160.054688 45.324219 C 160.214844 45.914062 160.296875 46.5625 160.296875 47.269531 L 160.296875 48.035156 L 152.859375 48.035156 L 152.859375 46.640625 L 158.59375 46.640625 L 158.59375 46.507812 C 158.570312 46.0625 158.476562 45.628906 158.316406 45.214844 C 158.167969 44.796875 157.921875 44.453125 157.582031 44.175781 C 157.242188 43.90625 156.785156 43.773438 156.199219 43.773438 C 155.8125 43.773438 155.460938 43.851562 155.132812 44.019531 C 154.796875 44.191406 154.515625 44.429688 154.300781 44.742188 C 154.066406 45.0625 153.886719 45.453125 153.753906 45.914062 C 153.625 46.382812 153.5625 46.914062 153.5625 47.519531 L 153.5625 47.90625 C 153.5625 48.382812 153.625 48.828125 153.753906 49.25 C 153.886719 49.660156 154.082031 50.023438 154.332031 50.339844 C 154.589844 50.65625 154.902344 50.898438 155.261719 51.078125 C 155.628906 51.257812 156.046875 51.347656 156.515625 51.347656 C 157.113281 51.347656 157.621094 51.222656 158.039062 50.976562 C 158.46875 50.722656 158.835938 50.390625 159.132812 49.988281 L 160.164062 50.808594 C 159.933594 51.15625 159.660156 51.46875 159.347656 51.746094 C 159.015625 52.042969 158.609375 52.28125 158.125 52.46875 C 157.644531 52.652344 157.078125 52.746094 156.421875 52.746094 Z M 156.707031 38.347656 L 158.988281 40.875 L 158.988281 40.964844 L 157.574219 40.964844 L 156.191406 39.40625 L 154.820312 40.964844 L 153.425781 40.964844 L 153.425781 40.867188 L 155.675781 38.347656 Z M 168.074219 49.902344 C 168.074219 49.65625 168.019531 49.429688 167.910156 49.222656 C 167.804688 49.003906 167.585938 48.808594 167.257812 48.636719 C 166.933594 48.457031 166.441406 48.304688 165.785156 48.171875 C 165.277344 48.070312 164.777344 47.929688 164.285156 47.757812 C 163.878906 47.617188 163.503906 47.421875 163.15625 47.175781 C 162.859375 46.960938 162.621094 46.691406 162.445312 46.371094 C 162.28125 46.0625 162.195312 45.699219 162.195312 45.285156 C 162.195312 44.894531 162.285156 44.519531 162.457031 44.167969 C 162.640625 43.808594 162.890625 43.496094 163.203125 43.234375 C 163.550781 42.949219 163.941406 42.734375 164.367188 42.597656 C 164.824219 42.441406 165.328125 42.367188 165.886719 42.367188 C 166.683594 42.367188 167.363281 42.507812 167.929688 42.789062 C 168.492188 43.074219 168.925781 43.453125 169.222656 43.925781 C 169.527344 44.398438 169.675781 44.917969 169.675781 45.492188 L 167.976562 45.492188 C 167.976562 45.214844 167.890625 44.945312 167.726562 44.6875 C 167.566406 44.421875 167.332031 44.199219 167.019531 44.03125 C 166.710938 43.855469 166.332031 43.773438 165.886719 43.773438 C 165.414062 43.773438 165.03125 43.84375 164.734375 43.992188 C 164.449219 44.132812 164.238281 44.316406 164.101562 44.539062 C 163.972656 44.753906 163.910156 44.988281 163.910156 45.242188 C 163.910156 45.425781 163.941406 45.589844 164.003906 45.742188 C 164.066406 45.882812 164.1875 46.015625 164.351562 46.140625 C 164.515625 46.253906 164.75 46.367188 165.050781 46.46875 C 165.347656 46.578125 165.730469 46.683594 166.199219 46.785156 C 167.015625 46.972656 167.6875 47.195312 168.210938 47.453125 C 168.742188 47.710938 169.132812 48.03125 169.390625 48.40625 C 169.648438 48.78125 169.777344 49.238281 169.777344 49.773438 C 169.777344 50.210938 169.683594 50.613281 169.5 50.976562 C 169.316406 51.351562 169.054688 51.667969 168.71875 51.921875 C 168.382812 52.183594 167.976562 52.382812 167.507812 52.53125 C 167.039062 52.675781 166.515625 52.746094 165.929688 52.746094 C 165.058594 52.746094 164.3125 52.585938 163.707031 52.273438 C 163.097656 51.957031 162.636719 51.550781 162.328125 51.054688 C 162.011719 50.550781 161.859375 50.023438 161.859375 49.46875 L 163.570312 49.46875 C 163.59375 49.9375 163.726562 50.3125 163.972656 50.589844 C 164.21875 50.859375 164.519531 51.058594 164.871094 51.171875 C 165.21875 51.28125 165.570312 51.339844 165.929688 51.339844 C 166.398438 51.339844 166.785156 51.277344 167.101562 51.152344 C 167.417969 51.03125 167.660156 50.859375 167.828125 50.644531 C 167.992188 50.429688 168.074219 50.183594 168.074219 49.902344 Z M 6.273438 3.234375 L 12.828125 3.234375 C 14.234375 3.234375 15.441406 3.445312 16.433594 3.875 C 17.425781 4.300781 18.183594 4.933594 18.710938 5.769531 C 19.246094 6.597656 19.511719 7.621094 19.511719 8.839844 C 19.511719 9.773438 19.34375 10.589844 19 11.300781 C 18.664062 12.015625 18.183594 12.609375 17.5625 13.09375 C 16.941406 13.570312 16.207031 13.945312 15.347656 14.207031 L 14.382812 14.679688 L 8.484375 14.679688 L 8.460938 12.132812 L 12.878906 12.132812 C 13.640625 12.132812 14.277344 12 14.789062 11.726562 C 15.296875 11.449219 15.679688 11.082031 15.933594 10.609375 C 16.199219 10.132812 16.328125 9.59375 16.328125 8.996094 C 16.328125 8.347656 16.203125 7.78125 15.945312 7.304688 C 15.699219 6.816406 15.320312 6.449219 14.800781 6.191406 C 14.28125 5.929688 13.625 5.792969 12.828125 5.792969 L 9.464844 5.792969 L 9.464844 21.878906 L 6.273438 21.878906 Z M 16.851562 21.878906 L 12.496094 13.503906 L 15.847656 13.488281 L 20.261719 21.710938 L 20.261719 21.878906 Z M 29.582031 0.25 L 29.582031 4.078125 L 27.625 4.078125 L 27.625 0.25 Z M 29.339844 21.160156 L 29.339844 24.59375 L 27.394531 24.59375 L 27.394531 21.160156 Z M 31.261719 17.023438 C 31.261719 16.53125 31.164062 16.097656 30.960938 15.734375 C 30.765625 15.355469 30.441406 15.019531 29.988281 14.71875 C 29.542969 14.410156 28.9375 14.125 28.183594 13.863281 C 27.09375 13.476562 26.144531 13.046875 25.332031 12.570312 C 24.523438 12.082031 23.898438 11.484375 23.445312 10.777344 C 23.003906 10.058594 22.785156 9.164062 22.785156 8.097656 C 22.785156 7.050781 23.023438 6.140625 23.5 5.371094 C 23.980469 4.601562 24.652344 4.007812 25.507812 3.59375 C 26.367188 3.171875 27.367188 2.964844 28.511719 2.964844 C 29.394531 2.964844 30.1875 3.09375 30.894531 3.359375 C 31.609375 3.628906 32.214844 4.015625 32.714844 4.527344 C 33.214844 5.039062 33.597656 5.667969 33.863281 6.421875 C 34.132812 7.164062 34.269531 8.015625 34.269531 8.984375 L 31.210938 8.984375 C 31.210938 8.4375 31.148438 7.953125 31.019531 7.523438 C 30.902344 7.089844 30.726562 6.722656 30.488281 6.421875 C 30.253906 6.117188 29.964844 5.882812 29.621094 5.71875 C 29.292969 5.558594 28.914062 5.472656 28.488281 5.472656 C 27.886719 5.472656 27.390625 5.589844 27 5.820312 C 26.609375 6.042969 26.320312 6.347656 26.132812 6.742188 C 25.957031 7.132812 25.863281 7.582031 25.863281 8.085938 C 25.863281 8.570312 25.960938 9 26.144531 9.367188 C 26.332031 9.734375 26.648438 10.066406 27.097656 10.363281 C 27.558594 10.65625 28.1875 10.949219 28.984375 11.25 C 30.078125 11.644531 31.023438 12.082031 31.824219 12.570312 C 32.632812 13.046875 33.25 13.640625 33.683594 14.347656 C 34.121094 15.050781 34.34375 15.933594 34.34375 17 C 34.34375 18.097656 34.089844 19.035156 33.582031 19.804688 C 33.078125 20.574219 32.375 21.160156 31.464844 21.558594 C 30.570312 21.949219 29.519531 22.144531 28.320312 22.144531 C 27.566406 22.144531 26.816406 22.050781 26.066406 21.851562 C 25.335938 21.652344 24.664062 21.316406 24.058594 20.855469 C 23.453125 20.394531 22.976562 19.785156 22.617188 19.019531 C 22.265625 18.253906 22.085938 17.316406 22.085938 16.207031 L 25.167969 16.207031 C 25.167969 16.871094 25.253906 17.425781 25.429688 17.871094 C 25.609375 18.316406 25.851562 18.667969 26.160156 18.921875 C 26.460938 19.175781 26.804688 19.359375 27.175781 19.472656 C 27.558594 19.582031 27.9375 19.636719 28.320312 19.636719 C 28.957031 19.636719 29.496094 19.53125 29.929688 19.316406 C 30.371094 19.09375 30.699219 18.789062 30.921875 18.394531 C 31.148438 17.996094 31.261719 17.535156 31.261719 17.023438 Z M 59.453125 72.410156 L 59.453125 80.488281 L 57.660156 80.488281 L 57.660156 71.105469 L 59.320312 71.105469 Z M 63.71875 74.417969 L 63.71875 74.546875 C 63.71875 75.042969 63.660156 75.5 63.542969 75.921875 C 63.445312 76.320312 63.277344 76.6875 63.046875 77.023438 C 62.824219 77.335938 62.550781 77.574219 62.222656 77.75 C 61.898438 77.921875 61.523438 78.007812 61.101562 78.007812 C 60.691406 78.007812 60.335938 77.925781 60.03125 77.757812 C 59.722656 77.585938 59.464844 77.351562 59.265625 77.058594 C 59.050781 76.726562 58.886719 76.375 58.773438 75.996094 C 58.644531 75.574219 58.550781 75.144531 58.488281 74.707031 L 58.488281 74.363281 C 58.554688 73.871094 58.648438 73.417969 58.773438 73.011719 C 58.898438 72.59375 59.0625 72.238281 59.265625 71.9375 C 59.472656 71.632812 59.726562 71.394531 60.023438 71.230469 C 60.328125 71.0625 60.683594 70.980469 61.089844 70.980469 C 61.515625 70.980469 61.890625 71.058594 62.21875 71.222656 C 62.542969 71.386719 62.820312 71.621094 63.039062 71.925781 C 63.265625 72.230469 63.433594 72.59375 63.542969 73.015625 C 63.660156 73.4375 63.71875 73.902344 63.71875 74.417969 Z M 61.917969 74.546875 L 61.917969 74.417969 C 61.917969 74.132812 61.890625 73.867188 61.84375 73.621094 C 61.804688 73.394531 61.730469 73.179688 61.621094 72.980469 C 61.523438 72.796875 61.394531 72.65625 61.222656 72.550781 C 61.058594 72.449219 60.859375 72.394531 60.628906 72.394531 C 60.386719 72.394531 60.175781 72.4375 60 72.511719 C 59.828125 72.59375 59.691406 72.707031 59.585938 72.859375 C 59.46875 73.023438 59.386719 73.203125 59.339844 73.394531 C 59.285156 73.609375 59.25 73.84375 59.238281 74.105469 L 59.238281 74.976562 C 59.261719 75.285156 59.320312 75.5625 59.414062 75.808594 C 59.511719 76.050781 59.65625 76.242188 59.855469 76.386719 C 60.054688 76.523438 60.316406 76.597656 60.640625 76.597656 C 60.878906 76.597656 61.078125 76.542969 61.242188 76.441406 C 61.402344 76.332031 61.53125 76.1875 61.632812 75.996094 C 61.734375 75.808594 61.808594 75.59375 61.851562 75.347656 C 61.894531 75.097656 61.917969 74.832031 61.917969 74.546875 Z M 64.546875 74.5625 L 64.546875 74.433594 C 64.546875 73.933594 64.617188 73.476562 64.761719 73.058594 C 64.898438 72.636719 65.105469 72.269531 65.375 71.960938 C 65.644531 71.652344 65.976562 71.414062 66.371094 71.242188 C 66.765625 71.066406 67.21875 70.980469 67.726562 70.980469 C 68.238281 70.980469 68.695312 71.066406 69.09375 71.242188 C 69.480469 71.40625 69.816406 71.644531 70.09375 71.960938 C 70.371094 72.273438 70.578125 72.636719 70.71875 73.058594 C 70.859375 73.476562 70.929688 73.933594 70.929688 74.433594 L 70.929688 74.5625 C 70.933594 75.03125 70.863281 75.488281 70.71875 75.933594 C 70.582031 76.339844 70.375 76.707031 70.097656 77.03125 C 69.824219 77.339844 69.492188 77.582031 69.101562 77.75 C 68.707031 77.921875 68.253906 78.007812 67.742188 78.007812 C 67.230469 78.007812 66.777344 77.921875 66.378906 77.75 C 65.992188 77.585938 65.65625 77.347656 65.375 77.03125 C 65.097656 76.707031 64.890625 76.339844 64.761719 75.933594 C 64.613281 75.488281 64.542969 75.03125 64.546875 74.5625 Z M 66.339844 74.433594 L 66.339844 74.5625 C 66.339844 74.84375 66.367188 75.109375 66.417969 75.355469 C 66.464844 75.605469 66.542969 75.820312 66.648438 76.007812 C 66.765625 76.195312 66.90625 76.335938 67.085938 76.441406 C 67.265625 76.542969 67.480469 76.597656 67.742188 76.597656 C 67.988281 76.597656 68.203125 76.542969 68.382812 76.441406 C 68.5625 76.335938 68.707031 76.191406 68.8125 76.007812 C 68.921875 75.820312 69 75.605469 69.050781 75.355469 C 69.105469 75.109375 69.128906 74.84375 69.128906 74.5625 L 69.128906 74.433594 C 69.128906 74.15625 69.105469 73.898438 69.050781 73.652344 C 69.003906 73.421875 68.921875 73.207031 68.804688 73.003906 C 68.703125 72.8125 68.558594 72.664062 68.375 72.550781 C 68.199219 72.445312 67.980469 72.390625 67.726562 72.390625 C 67.472656 72.390625 67.261719 72.445312 67.078125 72.550781 C 66.898438 72.667969 66.757812 72.816406 66.648438 73.003906 C 66.542969 73.191406 66.464844 73.40625 66.417969 73.652344 C 66.363281 73.910156 66.339844 74.171875 66.339844 74.433594 Z M 73.824219 72.582031 L 73.824219 77.882812 L 72.03125 77.882812 L 72.03125 71.105469 L 73.71875 71.105469 Z M 75.855469 71.058594 L 75.824219 72.734375 C 75.71875 72.722656 75.613281 72.710938 75.507812 72.703125 C 75.394531 72.691406 75.289062 72.683594 75.175781 72.683594 C 74.925781 72.683594 74.703125 72.71875 74.515625 72.78125 C 74.339844 72.839844 74.1875 72.9375 74.058594 73.0625 C 73.933594 73.191406 73.84375 73.339844 73.78125 73.523438 C 73.722656 73.703125 73.6875 73.90625 73.683594 74.136719 L 73.320312 74.023438 C 73.320312 73.585938 73.363281 73.183594 73.453125 72.8125 C 73.539062 72.445312 73.667969 72.121094 73.832031 71.84375 C 73.988281 71.582031 74.195312 71.367188 74.453125 71.207031 C 74.714844 71.046875 74.992188 70.976562 75.296875 70.980469 C 75.394531 70.980469 75.496094 70.988281 75.597656 71.007812 C 75.703125 71.015625 75.789062 71.035156 75.855469 71.058594 Z M 83.863281 76.257812 L 83.863281 71.105469 L 85.65625 71.105469 L 85.65625 77.882812 L 83.96875 77.882812 Z M 84.0625 74.867188 L 84.59375 74.855469 C 84.59375 75.308594 84.539062 75.726562 84.4375 76.117188 C 84.34375 76.480469 84.1875 76.8125 83.96875 77.117188 C 83.761719 77.394531 83.5 77.617188 83.1875 77.773438 C 82.867188 77.933594 82.496094 78.007812 82.070312 78.007812 C 81.761719 78.007812 81.457031 77.964844 81.160156 77.871094 C 80.890625 77.777344 80.652344 77.628906 80.453125 77.421875 C 80.242188 77.195312 80.089844 76.9375 79.988281 76.640625 C 79.882812 76.320312 79.828125 75.933594 79.828125 75.484375 L 79.828125 71.105469 L 81.621094 71.105469 L 81.621094 75.496094 C 81.621094 75.695312 81.644531 75.867188 81.691406 76.003906 C 81.742188 76.140625 81.808594 76.253906 81.894531 76.339844 C 81.980469 76.429688 82.085938 76.492188 82.199219 76.527344 C 82.320312 76.566406 82.453125 76.585938 82.597656 76.585938 C 82.96875 76.585938 83.257812 76.507812 83.46875 76.359375 C 83.691406 76.210938 83.839844 76.003906 83.925781 75.746094 C 84.019531 75.484375 84.0625 75.191406 84.0625 74.867188 Z M 90.671875 76.007812 C 90.671875 75.882812 90.636719 75.761719 90.558594 75.65625 C 90.480469 75.554688 90.34375 75.457031 90.140625 75.367188 C 89.941406 75.28125 89.652344 75.195312 89.273438 75.117188 C 88.933594 75.046875 88.613281 74.949219 88.324219 74.835938 C 88.050781 74.734375 87.796875 74.589844 87.5625 74.417969 C 87.355469 74.261719 87.1875 74.070312 87.066406 73.84375 C 86.941406 73.601562 86.878906 73.34375 86.882812 73.070312 C 86.882812 72.785156 86.945312 72.519531 87.066406 72.269531 C 87.1875 72.019531 87.363281 71.800781 87.59375 71.605469 C 87.847656 71.398438 88.128906 71.246094 88.4375 71.148438 C 88.777344 71.035156 89.15625 70.980469 89.574219 70.980469 C 90.160156 70.980469 90.664062 71.074219 91.082031 71.261719 C 91.507812 71.449219 91.828125 71.707031 92.054688 72.039062 C 92.28125 72.363281 92.394531 72.738281 92.394531 73.152344 L 90.601562 73.152344 C 90.601562 72.980469 90.5625 72.820312 90.488281 72.683594 C 90.414062 72.535156 90.300781 72.425781 90.152344 72.351562 C 90.003906 72.265625 89.808594 72.226562 89.566406 72.226562 C 89.371094 72.226562 89.199219 72.261719 89.050781 72.332031 C 88.90625 72.398438 88.796875 72.488281 88.714844 72.609375 C 88.636719 72.722656 88.601562 72.847656 88.605469 72.984375 C 88.605469 73.085938 88.621094 73.183594 88.664062 73.265625 C 88.71875 73.355469 88.792969 73.429688 88.882812 73.484375 C 88.984375 73.550781 89.109375 73.613281 89.269531 73.671875 C 89.433594 73.726562 89.632812 73.777344 89.863281 73.824219 C 90.3125 73.910156 90.746094 74.042969 91.167969 74.214844 C 91.546875 74.378906 91.855469 74.59375 92.078125 74.867188 C 92.304688 75.140625 92.414062 75.496094 92.414062 75.9375 C 92.414062 76.238281 92.34375 76.515625 92.214844 76.769531 C 92.074219 77.03125 91.882812 77.25 91.640625 77.421875 C 91.390625 77.609375 91.09375 77.753906 90.742188 77.859375 C 90.363281 77.960938 89.976562 78.011719 89.582031 78.007812 C 88.953125 78.007812 88.421875 77.894531 87.984375 77.667969 C 87.554688 77.441406 87.226562 77.15625 87 76.808594 C 86.78125 76.460938 86.671875 76.101562 86.671875 75.734375 L 88.375 75.734375 C 88.382812 75.980469 88.441406 76.179688 88.558594 76.328125 C 88.679688 76.480469 88.828125 76.585938 89.015625 76.65625 C 89.203125 76.722656 89.402344 76.757812 89.617188 76.757812 C 89.851562 76.757812 90.042969 76.722656 90.195312 76.660156 C 90.347656 76.59375 90.46875 76.503906 90.542969 76.398438 C 90.632812 76.28125 90.675781 76.152344 90.671875 76.007812 Z M 97.5625 76.257812 L 97.5625 71.105469 L 99.359375 71.105469 L 99.359375 77.882812 L 97.671875 77.882812 Z M 97.761719 74.867188 L 98.292969 74.855469 C 98.292969 75.308594 98.242188 75.726562 98.136719 76.117188 C 98.042969 76.480469 97.886719 76.8125 97.671875 77.117188 C 97.460938 77.394531 97.199219 77.617188 96.886719 77.773438 C 96.570312 77.933594 96.199219 78.007812 95.769531 78.007812 C 95.445312 78.007812 95.140625 77.960938 94.859375 77.871094 C 94.59375 77.777344 94.355469 77.628906 94.152344 77.421875 C 93.941406 77.195312 93.789062 76.9375 93.691406 76.640625 C 93.582031 76.320312 93.527344 75.933594 93.527344 75.484375 L 93.527344 71.105469 L 95.320312 71.105469 L 95.320312 75.496094 C 95.320312 75.695312 95.34375 75.867188 95.390625 76.003906 C 95.441406 76.140625 95.507812 76.253906 95.597656 76.339844 C 95.683594 76.429688 95.785156 76.492188 95.898438 76.527344 C 96.023438 76.566406 96.152344 76.585938 96.296875 76.585938 C 96.671875 76.585938 96.957031 76.507812 97.171875 76.359375 C 97.390625 76.207031 97.542969 76 97.625 75.746094 C 97.71875 75.484375 97.761719 75.191406 97.761719 74.867188 Z M 104.363281 76.355469 L 104.363281 73.332031 C 104.363281 73.117188 104.328125 72.933594 104.257812 72.777344 C 104.1875 72.617188 104.078125 72.492188 103.929688 72.410156 C 103.78125 72.320312 103.59375 72.277344 103.359375 72.277344 C 103.160156 72.277344 102.988281 72.3125 102.84375 72.382812 C 102.699219 72.449219 102.585938 72.546875 102.507812 72.679688 C 102.429688 72.800781 102.390625 72.953125 102.390625 73.121094 L 100.597656 73.121094 C 100.597656 72.832031 100.660156 72.558594 100.796875 72.300781 C 100.929688 72.042969 101.121094 71.816406 101.375 71.617188 C 101.648438 71.40625 101.949219 71.25 102.28125 71.148438 C 102.664062 71.027344 103.058594 70.976562 103.460938 70.980469 C 103.984375 70.980469 104.449219 71.066406 104.855469 71.242188 C 105.261719 71.417969 105.585938 71.679688 105.8125 72.03125 C 106.050781 72.382812 106.171875 72.820312 106.171875 73.34375 L 106.171875 76.246094 C 106.171875 76.617188 106.195312 76.921875 106.238281 77.160156 C 106.28125 77.394531 106.351562 77.601562 106.433594 77.773438 L 106.433594 77.882812 L 104.625 77.882812 C 104.527344 77.660156 104.460938 77.429688 104.425781 77.191406 C 104.382812 76.914062 104.363281 76.636719 104.363281 76.355469 Z M 104.597656 73.753906 L 104.613281 74.773438 L 103.609375 74.773438 C 103.371094 74.773438 103.167969 74.800781 102.992188 74.855469 C 102.835938 74.902344 102.691406 74.980469 102.5625 75.085938 C 102.453125 75.183594 102.367188 75.296875 102.3125 75.425781 C 102.265625 75.566406 102.238281 75.707031 102.242188 75.855469 C 102.242188 76.007812 102.277344 76.148438 102.347656 76.269531 C 102.417969 76.394531 102.515625 76.492188 102.652344 76.558594 C 102.785156 76.628906 102.9375 76.660156 103.117188 76.660156 C 103.386719 76.660156 103.621094 76.605469 103.820312 76.5 C 104.019531 76.390625 104.171875 76.253906 104.285156 76.097656 C 104.394531 75.9375 104.453125 75.789062 104.457031 75.644531 L 104.933594 76.410156 C 104.855469 76.59375 104.765625 76.777344 104.65625 76.941406 C 104.546875 77.125 104.398438 77.300781 104.226562 77.460938 C 104.039062 77.632812 103.828125 77.761719 103.597656 77.859375 C 103.351562 77.957031 103.0625 78.007812 102.726562 78.007812 C 102.316406 78.011719 101.929688 77.929688 101.5625 77.75 C 101.226562 77.585938 100.949219 77.34375 100.738281 77.03125 C 100.535156 76.710938 100.433594 76.359375 100.4375 75.976562 C 100.4375 75.625 100.507812 75.308594 100.636719 75.035156 C 100.773438 74.757812 100.96875 74.523438 101.226562 74.335938 C 101.484375 74.144531 101.8125 74 102.203125 73.902344 C 102.59375 73.804688 103.046875 73.753906 103.558594 73.753906 Z M 102.601562 70.1875 L 103.820312 68.261719 L 105.773438 68.261719 L 104.058594 70.1875 Z M 109.34375 72.582031 L 109.34375 77.882812 L 107.550781 77.882812 L 107.550781 71.105469 L 109.238281 71.105469 Z M 111.378906 71.058594 L 111.34375 72.734375 C 111.238281 72.722656 111.132812 72.710938 111.027344 72.703125 C 110.917969 72.691406 110.804688 72.683594 110.699219 72.683594 C 110.445312 72.683594 110.222656 72.71875 110.035156 72.78125 C 109.863281 72.839844 109.707031 72.9375 109.574219 73.0625 C 109.453125 73.199219 109.359375 73.347656 109.304688 73.523438 C 109.246094 73.703125 109.210938 73.90625 109.203125 74.136719 L 108.839844 74.023438 C 108.839844 73.585938 108.886719 73.183594 108.972656 72.8125 C 109.046875 72.46875 109.171875 72.148438 109.351562 71.84375 C 109.511719 71.582031 109.71875 71.367188 109.972656 71.207031 C 110.234375 71.046875 110.515625 70.976562 110.8125 70.980469 C 110.914062 70.980469 111.015625 70.988281 111.121094 71.007812 C 111.222656 71.015625 111.308594 71.035156 111.378906 71.058594 Z M 114.113281 71.105469 L 114.113281 77.882812 L 112.316406 77.882812 L 112.316406 71.105469 Z M 112.207031 69.335938 C 112.207031 69.074219 112.292969 68.859375 112.476562 68.6875 C 112.660156 68.515625 112.90625 68.429688 113.214844 68.429688 C 113.515625 68.429688 113.757812 68.515625 113.941406 68.6875 C 114.125 68.859375 114.222656 69.074219 114.222656 69.335938 C 114.222656 69.601562 114.125 69.820312 113.941406 69.988281 C 113.757812 70.160156 113.515625 70.246094 113.214844 70.246094 C 112.90625 70.246094 112.660156 70.160156 112.476562 69.988281 C 112.289062 69.816406 112.199219 69.597656 112.207031 69.335938 Z M 115.3125 74.5625 L 115.3125 74.433594 C 115.3125 73.933594 115.382812 73.476562 115.523438 73.058594 C 115.664062 72.636719 115.871094 72.269531 116.140625 71.960938 C 116.410156 71.652344 116.742188 71.414062 117.136719 71.242188 C 117.53125 71.066406 117.984375 70.980469 118.492188 70.980469 C 119.003906 70.980469 119.460938 71.066406 119.859375 71.242188 C 120.246094 71.40625 120.582031 71.644531 120.859375 71.960938 C 121.136719 72.273438 121.34375 72.636719 121.484375 73.058594 C 121.621094 73.476562 121.695312 73.933594 121.695312 74.433594 L 121.695312 74.5625 C 121.699219 75.03125 121.628906 75.488281 121.484375 75.933594 C 121.347656 76.339844 121.140625 76.707031 120.859375 77.03125 C 120.589844 77.339844 120.257812 77.582031 119.863281 77.75 C 119.472656 77.921875 119.015625 78.007812 118.503906 78.007812 C 117.996094 78.007812 117.542969 77.921875 117.144531 77.75 C 116.757812 77.585938 116.417969 77.347656 116.140625 77.03125 C 115.863281 76.707031 115.65625 76.339844 115.523438 75.933594 C 115.375 75.488281 115.308594 75.03125 115.3125 74.5625 Z M 117.105469 74.433594 L 117.105469 74.5625 C 117.105469 74.84375 117.128906 75.109375 117.179688 75.355469 C 117.222656 75.589844 117.300781 75.804688 117.414062 76.007812 C 117.527344 76.195312 117.671875 76.335938 117.851562 76.441406 C 118.03125 76.542969 118.246094 76.597656 118.503906 76.597656 C 118.753906 76.597656 118.96875 76.542969 119.148438 76.441406 C 119.324219 76.335938 119.472656 76.195312 119.578125 76.007812 C 119.6875 75.820312 119.761719 75.605469 119.8125 75.355469 C 119.871094 75.109375 119.898438 74.84375 119.898438 74.5625 L 119.898438 74.433594 C 119.898438 74.171875 119.871094 73.90625 119.8125 73.652344 C 119.769531 73.421875 119.691406 73.207031 119.570312 73.003906 C 119.46875 72.8125 119.324219 72.664062 119.140625 72.550781 C 118.960938 72.445312 118.746094 72.390625 118.492188 72.390625 C 118.242188 72.390625 118.027344 72.445312 117.84375 72.550781 C 117.664062 72.667969 117.523438 72.816406 117.414062 73.003906 C 117.300781 73.207031 117.222656 73.421875 117.179688 73.652344 C 117.128906 73.898438 117.105469 74.15625 117.105469 74.433594 Z M 117.105469 74.433594 " fill-opacity="1" fill-rule="nonzero"></path></g><g clip-path="url(#5c50f0d30f)"><path fill="#ffffff" d="M 69.945312 10.101562 L 100.757812 10.101562 L 100.757812 55.230469 L 69.945312 55.230469 Z M 69.945312 10.101562 " fill-opacity="1" fill-rule="nonzero"></path></g><g clip-path="url(#5dc3d5c80a)"><path fill="#000000" d="M 48.339844 30.191406 L 52.460938 30.191406 C 54.0625 30.191406 55.386719 29.910156 56.4375 29.355469 C 57.507812 28.792969 58.296875 28.027344 58.808594 27.050781 C 59.328125 26.070312 59.585938 24.945312 59.585938 23.675781 C 59.585938 22.351562 59.347656 21.21875 58.867188 20.277344 C 58.410156 19.316406 57.707031 18.578125 56.75 18.058594 C 55.816406 17.539062 54.621094 17.277344 53.171875 17.277344 C 51.953125 17.277344 50.847656 17.527344 49.855469 18.03125 C 48.882812 18.507812 48.109375 19.203125 47.539062 20.105469 C 46.964844 20.984375 46.679688 22.042969 46.679688 23.273438 L 39.753906 23.273438 C 39.753906 21.042969 40.335938 19.066406 41.503906 17.335938 C 42.664062 15.609375 44.25 14.253906 46.25 13.273438 C 48.273438 12.277344 50.542969 11.777344 53.058594 11.777344 C 55.75 11.777344 58.097656 12.230469 60.097656 13.132812 C 62.117188 14.015625 63.695312 15.339844 64.816406 17.109375 C 65.945312 18.875 66.507812 21.0625 66.507812 23.675781 C 66.507812 24.867188 66.230469 26.078125 65.675781 27.308594 C 65.125 28.535156 64.304688 29.660156 63.214844 30.679688 C 62.128906 31.679688 60.777344 32.496094 59.15625 33.128906 C 57.53125 33.742188 55.65625 34.046875 53.519531 34.046875 L 48.339844 34.046875 Z M 48.339844 35.605469 L 48.339844 31.800781 L 53.519531 31.800781 C 55.960938 31.800781 58.039062 32.089844 59.757812 32.667969 C 61.488281 33.242188 62.902344 34.039062 63.988281 35.058594 C 65.078125 36.054688 65.867188 37.199219 66.363281 38.488281 C 66.878906 39.777344 67.136719 41.136719 67.136719 42.578125 C 67.136719 44.539062 66.785156 46.285156 66.078125 47.824219 C 65.394531 49.339844 64.40625 50.625 63.128906 51.683594 C 61.855469 52.742188 60.355469 53.535156 58.640625 54.074219 C 56.941406 54.613281 55.089844 54.878906 53.089844 54.878906 C 51.296875 54.878906 49.578125 54.632812 47.941406 54.132812 C 46.300781 53.632812 44.832031 52.894531 43.53125 51.914062 C 42.234375 50.914062 41.203125 49.675781 40.441406 48.195312 C 39.699219 46.699219 39.324219 44.972656 39.324219 43.007812 L 46.222656 43.007812 C 46.222656 44.257812 46.507812 45.363281 47.082031 46.324219 C 47.671875 47.265625 48.492188 48.003906 49.539062 48.542969 C 50.609375 49.078125 51.828125 49.347656 53.203125 49.347656 C 54.652344 49.347656 55.902344 49.089844 56.949219 48.570312 C 58 48.054688 58.800781 47.285156 59.355469 46.265625 C 59.925781 45.25 60.214844 44.019531 60.214844 42.578125 C 60.214844 40.945312 59.898438 39.621094 59.269531 38.605469 C 58.640625 37.582031 57.742188 36.835938 56.578125 36.351562 C 55.417969 35.855469 54.042969 35.605469 52.460938 35.605469 Z M 79.09375 48.828125 L 79.667969 48.828125 C 82.300781 48.828125 84.492188 48.484375 86.25 47.792969 C 88.019531 47.082031 89.4375 46.105469 90.480469 44.855469 C 91.53125 43.605469 92.285156 42.136719 92.746094 40.445312 C 93.199219 38.753906 93.429688 36.917969 93.429688 34.941406 L 93.429688 27.710938 C 93.429688 26 93.25 24.5 92.886719 23.214844 C 92.542969 21.910156 92.046875 20.824219 91.398438 19.960938 C 90.769531 19.074219 90.035156 18.414062 89.195312 17.972656 C 88.375 17.527344 87.488281 17.308594 86.535156 17.308594 C 85.488281 17.308594 84.539062 17.546875 83.703125 18.03125 C 82.882812 18.488281 82.183594 19.132812 81.613281 19.960938 C 81.058594 20.765625 80.632812 21.71875 80.324219 22.8125 C 80.039062 23.886719 79.898438 25.039062 79.898438 26.269531 C 79.898438 27.421875 80.03125 28.535156 80.300781 29.613281 C 80.582031 30.667969 81.003906 31.609375 81.558594 32.4375 C 82.109375 33.261719 82.804688 33.914062 83.644531 34.394531 C 84.484375 34.875 85.46875 35.117188 86.589844 35.117188 C 87.660156 35.117188 88.640625 34.914062 89.539062 34.511719 C 90.4375 34.085938 91.21875 33.519531 91.886719 32.8125 C 92.550781 32.097656 93.078125 31.304688 93.457031 30.417969 C 93.839844 29.535156 94.046875 28.632812 94.085938 27.710938 L 96.71875 28.515625 C 96.71875 29.976562 96.414062 31.417969 95.804688 32.839844 C 95.214844 34.242188 94.382812 35.527344 93.316406 36.699219 C 92.265625 37.851562 91.035156 38.773438 89.625 39.46875 C 88.230469 40.15625 86.71875 40.503906 85.078125 40.503906 C 83.089844 40.503906 81.339844 40.128906 79.8125 39.378906 C 78.304688 38.613281 77.042969 37.574219 76.035156 36.269531 C 75.042969 34.960938 74.300781 33.460938 73.804688 31.773438 C 73.304688 30.082031 73.0625 28.304688 73.0625 26.445312 C 73.0625 24.425781 73.363281 22.535156 73.972656 20.765625 C 74.585938 19 75.472656 17.445312 76.632812 16.097656 C 77.800781 14.734375 79.210938 13.679688 80.871094 12.929688 C 82.550781 12.160156 84.449219 11.777344 86.5625 11.777344 C 88.8125 11.777344 90.789062 12.21875 92.484375 13.101562 C 94.183594 13.988281 95.613281 15.203125 96.777344 16.761719 C 97.9375 18.320312 98.816406 20.121094 99.40625 22.175781 C 100.003906 24.234375 100.296875 26.445312 100.296875 28.804688 L 100.296875 31.253906 C 100.296875 33.730469 100.078125 36.125 99.636719 38.429688 C 99.199219 40.714844 98.484375 42.835938 97.492188 44.796875 C 96.519531 46.734375 95.234375 48.449219 93.628906 49.925781 C 92.046875 51.382812 90.101562 52.527344 87.792969 53.355469 C 85.503906 54.160156 82.8125 54.5625 79.722656 54.5625 L 79.09375 54.5625 Z M 79.09375 48.828125 " fill-opacity="1" fill-rule="nonzero"></path></g></svg>