<svg xmlns="http://www.w3.org/2000/svg" xmlns:xlink="http://www.w3.org/1999/xlink" width="239" viewBox="0 0 179.25 82.499998" height="110" preserveAspectRatio="xMidYMid meet"><defs><clipPath id="0bdc41d6b3"><path d="M 4 0.0429688 L 172 0.0429688 L 172 82 L 4 82 Z M 4 0.0429688 " clip-rule="nonzero"></path></clipPath><clipPath id="b033a0e784"><path d="M 69.335938 10.132812 L 100.730469 10.132812 L 100.730469 55.929688 L 69.335938 55.929688 Z M 69.335938 10.132812 " clip-rule="nonzero"></path></clipPath><clipPath id="55472cde90"><path d="M 71.507812 11.066406 L 100.582031 11.066406 L 100.582031 55.792969 L 71.507812 55.792969 Z M 71.507812 11.066406 " clip-rule="nonzero"></path></clipPath></defs><g clip-path="url(#0bdc41d6b3)"><path fill="#000000" d="M 44.574219 34.660156 L 38.96875 33.289062 L 41.273438 11.914062 L 64.183594 11.914062 L 64.183594 17.871094 L 47.113281 17.871094 L 45.945312 28.296875 C 46.605469 27.90625 47.519531 27.527344 48.6875 27.15625 C 49.855469 26.769531 51.1875 26.574219 52.6875 26.574219 C 54.691406 26.574219 56.480469 26.90625 58.058594 27.566406 C 59.652344 28.207031 61.003906 29.152344 62.113281 30.398438 C 63.222656 31.625 64.070312 33.125 64.652344 34.894531 C 65.234375 36.648438 65.527344 38.625 65.527344 40.824219 C 65.527344 42.789062 65.234375 44.628906 64.652344 46.34375 C 64.089844 48.054688 63.234375 49.566406 62.085938 50.871094 C 60.9375 52.175781 59.488281 53.195312 57.734375 53.9375 C 56.003906 54.65625 53.949219 55.015625 51.578125 55.015625 C 49.804688 55.015625 48.105469 54.761719 46.46875 54.257812 C 44.855469 53.730469 43.40625 52.960938 42.121094 51.949219 C 40.820312 50.902344 39.789062 49.636719 39.027344 48.152344 C 38.25 46.636719 37.800781 44.894531 37.683594 42.925781 L 44.574219 42.925781 C 44.75 44.308594 45.128906 45.484375 45.710938 46.460938 C 46.304688 47.414062 47.101562 48.144531 48.105469 48.648438 C 49.097656 49.15625 50.246094 49.410156 51.546875 49.410156 C 52.734375 49.410156 53.757812 49.203125 54.613281 48.796875 C 55.472656 48.371094 56.183594 47.765625 56.742188 46.984375 C 57.328125 46.1875 57.753906 45.253906 58.027344 44.183594 C 58.320312 43.109375 58.464844 41.921875 58.464844 40.617188 C 58.464844 39.375 58.300781 38.234375 57.96875 37.203125 C 57.65625 36.171875 57.179688 35.277344 56.539062 34.515625 C 55.917969 33.757812 55.128906 33.171875 54.175781 32.765625 C 53.222656 32.335938 52.121094 32.121094 50.878906 32.121094 C 49.203125 32.121094 47.917969 32.363281 47.023438 32.851562 C 46.128906 33.351562 45.3125 33.953125 44.574219 34.660156 Z M 100.433594 39.277344 L 100.433594 44.882812 L 69.789062 44.882812 L 69.554688 40.648438 L 87.882812 11.914062 L 93.515625 11.914062 L 87.417969 22.367188 L 76.882812 39.277344 Z M 95.121094 11.914062 L 95.121094 54.433594 L 88.089844 54.433594 L 88.089844 11.914062 Z M 104.671875 51.101562 L 104.671875 52.5 C 104.671875 53.066406 104.527344 53.667969 104.242188 54.296875 C 103.964844 54.925781 103.5625 55.457031 103.03125 55.890625 L 102.046875 55.207031 C 102.242188 54.941406 102.414062 54.660156 102.554688 54.363281 C 102.691406 54.082031 102.796875 53.789062 102.863281 53.484375 C 102.9375 53.183594 102.976562 52.863281 102.976562 52.527344 L 102.976562 51.101562 Z M 108.421875 51.710938 L 108.601562 51.710938 C 109.597656 51.710938 110.410156 51.570312 111.035156 51.289062 C 111.660156 51.007812 112.140625 50.628906 112.480469 50.152344 C 112.824219 49.667969 113.054688 49.132812 113.171875 48.550781 C 113.296875 47.949219 113.359375 47.335938 113.359375 46.703125 L 113.359375 44.613281 C 113.359375 43.992188 113.289062 43.441406 113.144531 42.960938 C 113.007812 42.480469 112.8125 42.078125 112.5625 41.753906 C 112.339844 41.445312 112.0625 41.195312 111.730469 41.011719 C 111.421875 40.839844 111.089844 40.757812 110.734375 40.757812 C 110.335938 40.757812 109.976562 40.839844 109.660156 41.003906 C 109.347656 41.160156 109.082031 41.378906 108.863281 41.667969 C 108.640625 41.976562 108.476562 42.3125 108.375 42.679688 C 108.257812 43.09375 108.203125 43.515625 108.207031 43.945312 C 108.207031 44.351562 108.253906 44.746094 108.355469 45.128906 C 108.457031 45.507812 108.609375 45.851562 108.816406 46.160156 C 109.023438 46.464844 109.277344 46.710938 109.582031 46.890625 C 109.894531 47.066406 110.261719 47.152344 110.679688 47.152344 C 111.066406 47.152344 111.429688 47.078125 111.765625 46.929688 C 112.472656 46.605469 112.988281 46.09375 113.3125 45.390625 C 113.476562 45.054688 113.570312 44.699219 113.59375 44.332031 L 114.417969 44.332031 C 114.417969 44.863281 114.3125 45.375 114.109375 45.867188 C 113.90625 46.375 113.625 46.828125 113.265625 47.238281 C 112.90625 47.652344 112.480469 47.980469 111.992188 48.230469 C 111.492188 48.480469 110.960938 48.601562 110.398438 48.597656 C 109.722656 48.597656 109.140625 48.464844 108.644531 48.203125 C 108.160156 47.949219 107.753906 47.597656 107.429688 47.152344 C 107.109375 46.707031 106.875 46.21875 106.726562 45.691406 C 106.574219 45.152344 106.5 44.601562 106.5 44.039062 C 106.5 43.390625 106.589844 42.78125 106.773438 42.210938 C 106.945312 41.660156 107.210938 41.160156 107.578125 40.710938 C 107.9375 40.269531 108.378906 39.925781 108.898438 39.6875 C 109.429688 39.445312 110.042969 39.324219 110.734375 39.324219 C 111.515625 39.324219 112.183594 39.480469 112.734375 39.792969 C 113.28125 40.105469 113.730469 40.523438 114.074219 41.050781 C 114.421875 41.574219 114.679688 42.164062 114.839844 42.820312 C 115.003906 43.476562 115.085938 44.152344 115.085938 44.847656 L 115.085938 45.476562 C 115.085938 46.179688 115.039062 46.902344 114.945312 47.632812 C 114.859375 48.347656 114.6875 49.042969 114.429688 49.714844 C 114.179688 50.378906 113.8125 50.972656 113.332031 51.496094 C 112.851562 52.015625 112.222656 52.425781 111.449219 52.730469 C 110.679688 53.03125 109.730469 53.183594 108.601562 53.183594 L 108.421875 53.183594 Z M 126.058594 45.25 L 126.058594 47.332031 C 126.058594 48.449219 125.960938 49.394531 125.757812 50.164062 C 125.558594 50.933594 125.269531 51.550781 124.898438 52.019531 C 124.535156 52.480469 124.082031 52.824219 123.539062 53.042969 C 123.011719 53.25 122.417969 53.351562 121.757812 53.351562 C 121.261719 53.355469 120.78125 53.289062 120.304688 53.15625 C 119.863281 53.023438 119.464844 52.816406 119.105469 52.527344 C 118.753906 52.230469 118.457031 51.851562 118.207031 51.382812 C 117.957031 50.914062 117.765625 50.34375 117.632812 49.675781 C 117.503906 49.007812 117.4375 48.226562 117.4375 47.332031 L 117.4375 45.25 C 117.4375 44.132812 117.535156 43.195312 117.738281 42.4375 C 117.941406 41.679688 118.234375 41.074219 118.609375 40.617188 C 118.96875 40.164062 119.417969 39.832031 119.957031 39.625 C 120.488281 39.425781 121.082031 39.324219 121.738281 39.324219 C 122.269531 39.324219 122.757812 39.390625 123.199219 39.519531 C 123.648438 39.644531 124.050781 39.847656 124.398438 40.128906 C 124.75 40.40625 125.046875 40.773438 125.289062 41.238281 C 125.539062 41.691406 125.730469 42.253906 125.863281 42.914062 C 125.992188 43.578125 126.058594 44.355469 126.058594 45.25 Z M 124.316406 47.613281 L 124.316406 44.960938 C 124.316406 44.347656 124.277344 43.808594 124.203125 43.347656 C 124.132812 42.878906 124.03125 42.476562 123.894531 42.144531 C 123.757812 41.816406 123.582031 41.546875 123.371094 41.339844 C 123.164062 41.132812 122.921875 40.984375 122.648438 40.890625 C 122.351562 40.785156 122.050781 40.734375 121.738281 40.738281 C 121.328125 40.738281 120.960938 40.816406 120.640625 40.972656 C 120.324219 41.125 120.054688 41.363281 119.835938 41.695312 C 119.625 42.027344 119.460938 42.460938 119.347656 43 C 119.238281 43.535156 119.179688 44.191406 119.179688 44.960938 L 119.179688 47.613281 C 119.179688 48.226562 119.214844 48.765625 119.285156 49.234375 C 119.359375 49.703125 119.46875 50.109375 119.609375 50.453125 C 119.753906 50.792969 119.929688 51.070312 120.136719 51.289062 C 120.34375 51.507812 120.578125 51.667969 120.847656 51.777344 C 121.121094 51.875 121.425781 51.925781 121.757812 51.925781 C 122.183594 51.925781 122.554688 51.84375 122.871094 51.683594 C 123.191406 51.519531 123.457031 51.265625 123.667969 50.921875 C 123.886719 50.574219 124.050781 50.125 124.15625 49.582031 C 124.261719 49.03125 124.316406 48.375 124.316406 47.613281 Z M 134.511719 39.511719 L 128.824219 54.335938 L 127.332031 54.335938 L 133.03125 39.511719 Z M 138.128906 45.035156 L 138.128906 53.164062 L 136.386719 53.164062 L 136.386719 43.019531 L 138.035156 43.019531 Z M 137.773438 47.707031 L 136.96875 47.679688 C 136.972656 46.984375 137.0625 46.34375 137.238281 45.757812 C 137.398438 45.191406 137.660156 44.675781 138.015625 44.210938 C 138.363281 43.765625 138.789062 43.429688 139.300781 43.195312 C 139.8125 42.953125 140.40625 42.832031 141.082031 42.832031 C 141.53125 42.824219 141.96875 42.894531 142.394531 43.035156 C 142.789062 43.164062 143.136719 43.375 143.433594 43.664062 C 143.726562 43.953125 143.957031 44.320312 144.117188 44.769531 C 144.28125 45.222656 144.359375 45.765625 144.359375 46.402344 L 144.359375 53.164062 L 142.628906 53.164062 L 142.628906 46.488281 C 142.628906 45.957031 142.539062 45.53125 142.355469 45.210938 C 142.1875 44.894531 141.9375 44.664062 141.605469 44.519531 C 141.28125 44.367188 140.902344 44.292969 140.464844 44.292969 C 139.949219 44.292969 139.523438 44.382812 139.179688 44.566406 C 138.835938 44.742188 138.5625 44.992188 138.355469 45.316406 C 138.140625 45.65625 137.988281 46.019531 137.90625 46.414062 C 137.816406 46.839844 137.769531 47.269531 137.773438 47.707031 Z M 144.34375 46.75 L 143.179688 47.105469 C 143.1875 46.550781 143.277344 46.015625 143.453125 45.503906 C 143.632812 44.992188 143.894531 44.535156 144.230469 44.132812 C 144.582031 43.726562 145.003906 43.410156 145.496094 43.1875 C 145.996094 42.949219 146.566406 42.832031 147.210938 42.832031 C 147.753906 42.832031 148.234375 42.902344 148.652344 43.046875 C 149.078125 43.191406 149.433594 43.410156 149.722656 43.710938 C 150.015625 44.003906 150.238281 44.382812 150.386719 44.847656 C 150.535156 45.308594 150.613281 45.859375 150.613281 46.496094 L 150.613281 53.164062 L 148.867188 53.164062 L 148.867188 46.480469 C 148.867188 45.910156 148.777344 45.46875 148.597656 45.15625 C 148.429688 44.839844 148.179688 44.617188 147.847656 44.492188 C 147.527344 44.359375 147.148438 44.292969 146.703125 44.292969 C 146.324219 44.292969 145.984375 44.359375 145.691406 44.492188 C 145.398438 44.621094 145.152344 44.804688 144.953125 45.035156 C 144.75 45.257812 144.597656 45.519531 144.492188 45.8125 C 144.390625 46.117188 144.339844 46.429688 144.34375 46.75 Z M 157.445312 53.351562 C 156.738281 53.351562 156.097656 53.234375 155.523438 52.996094 C 154.960938 52.757812 154.46875 52.417969 154.050781 51.972656 C 153.632812 51.519531 153.320312 51 153.113281 50.417969 C 152.894531 49.816406 152.785156 49.160156 152.785156 48.449219 L 152.785156 48.054688 C 152.785156 47.226562 152.910156 46.492188 153.152344 45.851562 C 153.394531 45.199219 153.726562 44.648438 154.144531 44.199219 C 154.546875 43.757812 155.023438 43.417969 155.570312 43.175781 C 156.09375 42.945312 156.644531 42.832031 157.21875 42.832031 C 157.945312 42.832031 158.570312 42.957031 159.09375 43.207031 C 159.617188 43.445312 160.050781 43.796875 160.394531 44.257812 C 160.734375 44.699219 160.984375 45.226562 161.144531 45.832031 C 161.308594 46.429688 161.390625 47.085938 161.390625 47.800781 L 161.390625 48.578125 L 153.816406 48.578125 L 153.816406 47.164062 L 159.65625 47.164062 L 159.65625 47.03125 C 159.632812 46.578125 159.539062 46.140625 159.375 45.71875 C 159.222656 45.296875 158.972656 44.949219 158.625 44.667969 C 158.28125 44.394531 157.8125 44.257812 157.21875 44.257812 C 156.824219 44.257812 156.464844 44.339844 156.132812 44.507812 C 155.789062 44.683594 155.503906 44.925781 155.28125 45.242188 C 155.042969 45.566406 154.859375 45.960938 154.726562 46.429688 C 154.59375 46.902344 154.53125 47.441406 154.53125 48.054688 L 154.53125 48.449219 C 154.53125 48.929688 154.59375 49.382812 154.726562 49.808594 C 154.863281 50.226562 155.058594 50.59375 155.316406 50.914062 C 155.578125 51.234375 155.894531 51.480469 156.261719 51.664062 C 156.636719 51.84375 157.0625 51.933594 157.539062 51.933594 C 158.148438 51.933594 158.667969 51.808594 159.09375 51.558594 C 159.53125 51.300781 159.902344 50.964844 160.207031 50.558594 L 161.257812 51.390625 C 161.023438 51.742188 160.742188 52.058594 160.425781 52.339844 C 160.085938 52.640625 159.671875 52.882812 159.179688 53.070312 C 158.691406 53.257812 158.113281 53.351562 157.445312 53.351562 Z M 157.734375 38.761719 L 160.058594 41.320312 L 160.058594 41.414062 L 158.617188 41.414062 L 157.210938 39.832031 L 155.8125 41.414062 L 154.390625 41.414062 L 154.390625 41.3125 L 156.683594 38.761719 Z M 169.316406 50.472656 C 169.316406 50.222656 169.261719 49.992188 169.148438 49.78125 C 169.042969 49.558594 168.820312 49.363281 168.484375 49.1875 C 168.152344 49.007812 167.652344 48.851562 166.984375 48.71875 C 166.464844 48.613281 165.957031 48.472656 165.457031 48.296875 C 165.042969 48.15625 164.660156 47.957031 164.304688 47.707031 C 164.003906 47.488281 163.761719 47.214844 163.582031 46.890625 C 163.414062 46.578125 163.328125 46.210938 163.328125 45.792969 C 163.328125 45.394531 163.417969 45.015625 163.59375 44.660156 C 163.78125 44.292969 164.035156 43.976562 164.351562 43.710938 C 164.707031 43.421875 165.105469 43.207031 165.539062 43.066406 C 166.003906 42.910156 166.519531 42.832031 167.085938 42.832031 C 167.898438 42.832031 168.59375 42.976562 169.167969 43.261719 C 169.742188 43.550781 170.183594 43.933594 170.488281 44.414062 C 170.796875 44.890625 170.949219 45.417969 170.949219 46 L 169.214844 46 C 169.214844 45.71875 169.128906 45.445312 168.960938 45.183594 C 168.800781 44.917969 168.558594 44.691406 168.242188 44.519531 C 167.925781 44.34375 167.542969 44.257812 167.085938 44.257812 C 166.605469 44.257812 166.214844 44.332031 165.914062 44.480469 C 165.621094 44.625 165.40625 44.808594 165.269531 45.035156 C 165.136719 45.253906 165.074219 45.492188 165.074219 45.746094 C 165.074219 45.933594 165.105469 46.101562 165.167969 46.253906 C 165.234375 46.398438 165.355469 46.53125 165.523438 46.65625 C 165.691406 46.773438 165.929688 46.886719 166.234375 46.992188 C 166.539062 47.101562 166.929688 47.207031 167.40625 47.3125 C 168.238281 47.5 168.921875 47.726562 169.457031 47.988281 C 169.996094 48.25 170.394531 48.574219 170.65625 48.953125 C 170.921875 49.335938 171.050781 49.796875 171.050781 50.339844 C 171.050781 50.785156 170.957031 51.191406 170.769531 51.558594 C 170.582031 51.941406 170.316406 52.261719 169.972656 52.515625 C 169.628906 52.78125 169.21875 52.984375 168.738281 53.136719 C 168.261719 53.28125 167.726562 53.351562 167.132812 53.351562 C 166.242188 53.351562 165.484375 53.191406 164.867188 52.875 C 164.246094 52.554688 163.777344 52.140625 163.460938 51.636719 C 163.140625 51.128906 162.984375 50.59375 162.984375 50.03125 L 164.726562 50.03125 C 164.75 50.507812 164.886719 50.886719 165.136719 51.167969 C 165.386719 51.441406 165.695312 51.640625 166.054688 51.757812 C 166.40625 51.867188 166.765625 51.925781 167.132812 51.925781 C 167.609375 51.925781 168.003906 51.863281 168.324219 51.738281 C 168.648438 51.613281 168.894531 51.441406 169.066406 51.222656 C 169.234375 51.003906 169.316406 50.753906 169.316406 50.472656 Z M 4.464844 3.171875 L 11.144531 3.171875 C 12.578125 3.171875 13.804688 3.386719 14.816406 3.820312 C 15.828125 4.253906 16.601562 4.894531 17.136719 5.742188 C 17.683594 6.582031 17.953125 7.617188 17.953125 8.855469 C 17.953125 9.800781 17.78125 10.628906 17.433594 11.347656 C 17.089844 12.070312 16.601562 12.675781 15.96875 13.164062 C 15.335938 13.648438 14.585938 14.027344 13.710938 14.292969 L 12.726562 14.773438 L 6.71875 14.773438 L 6.695312 12.191406 L 11.195312 12.191406 C 11.972656 12.191406 12.621094 12.054688 13.140625 11.777344 C 13.660156 11.5 14.050781 11.125 14.308594 10.648438 C 14.578125 10.164062 14.710938 9.617188 14.710938 9.011719 C 14.710938 8.355469 14.582031 7.78125 14.320312 7.296875 C 14.070312 6.804688 13.683594 6.429688 13.152344 6.167969 C 12.625 5.902344 11.957031 5.765625 11.144531 5.765625 L 7.71875 5.765625 L 7.71875 22.070312 L 4.464844 22.070312 Z M 15.242188 22.070312 L 10.804688 13.582031 L 14.21875 13.566406 L 18.71875 21.898438 L 18.71875 22.070312 Z M 28.214844 0.148438 L 28.214844 4.027344 L 26.21875 4.027344 L 26.21875 0.148438 Z M 27.96875 21.339844 L 27.96875 24.820312 L 25.984375 24.820312 L 25.984375 21.339844 Z M 29.925781 17.148438 C 29.925781 16.648438 29.824219 16.210938 29.617188 15.839844 C 29.417969 15.457031 29.089844 15.117188 28.628906 14.8125 C 28.171875 14.5 27.558594 14.210938 26.789062 13.945312 C 25.679688 13.554688 24.710938 13.117188 23.882812 12.632812 C 23.058594 12.140625 22.421875 11.535156 21.960938 10.816406 C 21.511719 10.089844 21.289062 9.183594 21.289062 8.101562 C 21.289062 7.039062 21.53125 6.117188 22.015625 5.339844 C 22.507812 4.558594 23.191406 3.957031 24.0625 3.535156 C 24.9375 3.109375 25.957031 2.898438 27.125 2.898438 C 28.023438 2.898438 28.832031 3.03125 29.550781 3.300781 C 30.277344 3.570312 30.894531 3.964844 31.40625 4.484375 C 31.914062 5 32.304688 5.640625 32.574219 6.402344 C 32.851562 7.15625 32.988281 8.019531 32.988281 9 L 29.875 9 C 29.875 8.445312 29.808594 7.953125 29.679688 7.519531 C 29.558594 7.078125 29.378906 6.707031 29.136719 6.402344 C 28.898438 6.09375 28.605469 5.855469 28.253906 5.691406 C 27.917969 5.527344 27.53125 5.441406 27.097656 5.441406 C 26.484375 5.441406 25.980469 5.558594 25.582031 5.792969 C 25.183594 6.019531 24.890625 6.328125 24.699219 6.726562 C 24.519531 7.125 24.425781 7.578125 24.425781 8.089844 C 24.425781 8.582031 24.523438 9.015625 24.710938 9.386719 C 24.902344 9.761719 25.226562 10.097656 25.683594 10.398438 C 26.152344 10.695312 26.792969 10.992188 27.605469 11.296875 C 28.71875 11.695312 29.683594 12.140625 30.496094 12.632812 C 31.320312 13.117188 31.949219 13.71875 32.390625 14.4375 C 32.839844 15.148438 33.066406 16.042969 33.066406 17.125 C 33.066406 18.238281 32.804688 19.1875 32.289062 19.964844 C 31.777344 20.746094 31.058594 21.339844 30.132812 21.746094 C 29.21875 22.140625 28.148438 22.339844 26.929688 22.339844 C 26.160156 22.339844 25.394531 22.242188 24.632812 22.042969 C 23.886719 21.839844 23.203125 21.5 22.585938 21.03125 C 21.96875 20.5625 21.484375 19.945312 21.117188 19.171875 C 20.757812 18.394531 20.574219 17.445312 20.574219 16.320312 L 23.714844 16.320312 C 23.714844 16.992188 23.804688 17.554688 23.984375 18.007812 C 24.167969 18.457031 24.414062 18.8125 24.726562 19.070312 C 25.035156 19.328125 25.382812 19.515625 25.761719 19.628906 C 26.152344 19.742188 26.539062 19.796875 26.929688 19.796875 C 27.578125 19.796875 28.125 19.6875 28.566406 19.472656 C 29.015625 19.246094 29.351562 18.9375 29.578125 18.539062 C 29.808594 18.132812 29.925781 17.667969 29.925781 17.148438 Z M 58.648438 73.28125 L 58.648438 81.46875 L 56.820312 81.46875 L 56.820312 71.960938 L 58.511719 71.960938 Z M 62.992188 75.316406 L 62.992188 75.449219 C 62.992188 75.949219 62.933594 76.414062 62.816406 76.839844 C 62.714844 77.246094 62.542969 77.617188 62.308594 77.957031 C 62.082031 78.273438 61.804688 78.515625 61.46875 78.695312 C 61.140625 78.867188 60.757812 78.957031 60.328125 78.957031 C 59.910156 78.957031 59.546875 78.871094 59.238281 78.703125 C 58.921875 78.527344 58.660156 78.289062 58.457031 77.992188 C 58.238281 77.65625 58.070312 77.300781 57.957031 76.917969 C 57.824219 76.488281 57.726562 76.054688 57.664062 75.609375 L 57.664062 75.261719 C 57.730469 74.761719 57.828125 74.304688 57.957031 73.890625 C 58.082031 73.46875 58.25 73.109375 58.457031 72.804688 C 58.667969 72.496094 58.925781 72.253906 59.230469 72.085938 C 59.539062 71.917969 59.902344 71.832031 60.316406 71.832031 C 60.75 71.832031 61.132812 71.914062 61.464844 72.078125 C 61.796875 72.246094 62.078125 72.484375 62.300781 72.792969 C 62.53125 73.101562 62.703125 73.46875 62.816406 73.894531 C 62.933594 74.324219 62.992188 74.796875 62.992188 75.316406 Z M 61.160156 75.449219 L 61.160156 75.316406 C 61.160156 75.027344 61.132812 74.757812 61.082031 74.511719 C 61.042969 74.28125 60.96875 74.0625 60.855469 73.859375 C 60.757812 73.675781 60.625 73.53125 60.449219 73.425781 C 60.285156 73.320312 60.082031 73.265625 59.84375 73.265625 C 59.597656 73.265625 59.382812 73.308594 59.203125 73.386719 C 59.03125 73.46875 58.890625 73.582031 58.78125 73.738281 C 58.664062 73.902344 58.582031 74.085938 58.53125 74.28125 C 58.476562 74.496094 58.441406 74.734375 58.429688 75 L 58.429688 75.882812 C 58.453125 76.195312 58.511719 76.476562 58.609375 76.726562 C 58.707031 76.972656 58.855469 77.167969 59.058594 77.3125 C 59.261719 77.453125 59.527344 77.527344 59.859375 77.527344 C 60.101562 77.527344 60.304688 77.472656 60.46875 77.367188 C 60.632812 77.257812 60.765625 77.109375 60.867188 76.917969 C 60.972656 76.726562 61.046875 76.507812 61.089844 76.257812 C 61.136719 76.007812 61.160156 75.738281 61.160156 75.449219 Z M 63.835938 75.464844 L 63.835938 75.332031 C 63.835938 74.828125 63.910156 74.363281 64.054688 73.941406 C 64.195312 73.511719 64.40625 73.140625 64.679688 72.828125 C 64.957031 72.515625 65.292969 72.273438 65.695312 72.097656 C 66.097656 71.921875 66.558594 71.832031 67.078125 71.832031 C 67.597656 71.832031 68.0625 71.921875 68.46875 72.097656 C 68.863281 72.265625 69.207031 72.507812 69.488281 72.828125 C 69.769531 73.144531 69.980469 73.511719 70.125 73.941406 C 70.269531 74.363281 70.339844 74.828125 70.339844 75.332031 L 70.339844 75.464844 C 70.34375 75.9375 70.273438 76.402344 70.125 76.855469 C 69.988281 77.265625 69.777344 77.636719 69.492188 77.964844 C 69.214844 78.277344 68.875 78.523438 68.476562 78.695312 C 68.074219 78.867188 67.613281 78.957031 67.09375 78.957031 C 66.570312 78.957031 66.109375 78.867188 65.703125 78.695312 C 65.308594 78.527344 64.96875 78.285156 64.679688 77.964844 C 64.398438 77.636719 64.1875 77.265625 64.054688 76.855469 C 63.90625 76.402344 63.832031 75.9375 63.835938 75.464844 Z M 65.664062 75.332031 L 65.664062 75.464844 C 65.664062 75.75 65.691406 76.019531 65.742188 76.269531 C 65.792969 76.519531 65.871094 76.738281 65.980469 76.929688 C 66.097656 77.117188 66.242188 77.261719 66.425781 77.367188 C 66.609375 77.472656 66.828125 77.527344 67.09375 77.527344 C 67.34375 77.527344 67.5625 77.472656 67.746094 77.367188 C 67.929688 77.261719 68.074219 77.113281 68.183594 76.929688 C 68.292969 76.738281 68.375 76.519531 68.425781 76.269531 C 68.480469 76.019531 68.507812 75.75 68.507812 75.464844 L 68.507812 75.332031 C 68.507812 75.050781 68.480469 74.789062 68.425781 74.542969 C 68.378906 74.308594 68.296875 74.089844 68.175781 73.882812 C 68.070312 73.691406 67.925781 73.539062 67.738281 73.425781 C 67.558594 73.316406 67.335938 73.261719 67.078125 73.261719 C 66.820312 73.261719 66.601562 73.316406 66.417969 73.425781 C 66.234375 73.542969 66.089844 73.695312 65.980469 73.882812 C 65.871094 74.074219 65.792969 74.292969 65.742188 74.542969 C 65.6875 74.804688 65.664062 75.066406 65.664062 75.332031 Z M 73.289062 73.457031 L 73.289062 78.828125 L 71.464844 78.828125 L 71.464844 71.960938 L 73.183594 71.960938 Z M 75.359375 71.914062 L 75.328125 73.609375 C 75.21875 73.597656 75.113281 73.585938 75.003906 73.578125 C 74.890625 73.566406 74.78125 73.558594 74.667969 73.558594 C 74.410156 73.558594 74.183594 73.59375 73.996094 73.660156 C 73.816406 73.71875 73.660156 73.816406 73.527344 73.945312 C 73.402344 74.074219 73.308594 74.226562 73.246094 74.410156 C 73.1875 74.59375 73.152344 74.800781 73.144531 75.03125 L 72.777344 74.917969 C 72.777344 74.472656 72.820312 74.066406 72.910156 73.691406 C 73 73.316406 73.128906 72.988281 73.296875 72.707031 C 73.457031 72.441406 73.667969 72.226562 73.929688 72.0625 C 74.195312 71.902344 74.480469 71.828125 74.789062 71.832031 C 74.890625 71.832031 74.992188 71.839844 75.097656 71.859375 C 75.203125 71.871094 75.292969 71.890625 75.359375 71.914062 Z M 83.519531 77.183594 L 83.519531 71.960938 L 85.34375 71.960938 L 85.34375 78.828125 L 83.625 78.828125 Z M 83.722656 75.773438 L 84.261719 75.761719 C 84.261719 76.21875 84.207031 76.644531 84.101562 77.039062 C 84.007812 77.40625 83.847656 77.746094 83.625 78.054688 C 83.414062 78.335938 83.148438 78.558594 82.828125 78.71875 C 82.503906 78.878906 82.125 78.957031 81.691406 78.957031 C 81.375 78.957031 81.066406 78.914062 80.765625 78.816406 C 80.488281 78.722656 80.246094 78.570312 80.042969 78.363281 C 79.828125 78.132812 79.671875 77.871094 79.570312 77.570312 C 79.460938 77.246094 79.40625 76.855469 79.40625 76.398438 L 79.40625 71.960938 L 81.234375 71.960938 L 81.234375 76.410156 C 81.234375 76.613281 81.257812 76.785156 81.304688 76.925781 C 81.355469 77.0625 81.425781 77.179688 81.511719 77.265625 C 81.601562 77.355469 81.707031 77.417969 81.824219 77.457031 C 81.945312 77.496094 82.082031 77.515625 82.230469 77.515625 C 82.605469 77.515625 82.902344 77.4375 83.117188 77.285156 C 83.34375 77.132812 83.496094 76.925781 83.582031 76.664062 C 83.675781 76.398438 83.722656 76.101562 83.722656 75.773438 Z M 90.453125 76.929688 C 90.453125 76.800781 90.417969 76.679688 90.339844 76.574219 C 90.261719 76.46875 90.121094 76.371094 89.914062 76.28125 C 89.710938 76.191406 89.417969 76.105469 89.03125 76.027344 C 88.683594 75.953125 88.359375 75.855469 88.0625 75.742188 C 87.785156 75.636719 87.527344 75.492188 87.285156 75.316406 C 87.074219 75.160156 86.90625 74.964844 86.78125 74.734375 C 86.652344 74.488281 86.589844 74.230469 86.59375 73.953125 C 86.59375 73.664062 86.65625 73.394531 86.78125 73.140625 C 86.90625 72.886719 87.085938 72.664062 87.320312 72.46875 C 87.578125 72.257812 87.863281 72.101562 88.179688 72.003906 C 88.523438 71.890625 88.910156 71.832031 89.335938 71.832031 C 89.933594 71.832031 90.445312 71.929688 90.871094 72.117188 C 91.304688 72.308594 91.632812 72.570312 91.863281 72.90625 C 92.09375 73.234375 92.210938 73.613281 92.210938 74.035156 L 90.382812 74.035156 C 90.382812 73.859375 90.34375 73.699219 90.269531 73.558594 C 90.191406 73.410156 90.078125 73.296875 89.925781 73.222656 C 89.773438 73.136719 89.574219 73.097656 89.328125 73.097656 C 89.128906 73.097656 88.953125 73.132812 88.804688 73.203125 C 88.65625 73.269531 88.542969 73.363281 88.460938 73.484375 C 88.382812 73.597656 88.34375 73.726562 88.347656 73.863281 C 88.347656 73.96875 88.367188 74.066406 88.410156 74.148438 C 88.464844 74.242188 88.539062 74.316406 88.632812 74.371094 C 88.734375 74.4375 88.863281 74.503906 89.027344 74.5625 C 89.191406 74.617188 89.394531 74.667969 89.632812 74.714844 C 90.089844 74.804688 90.53125 74.9375 90.960938 75.113281 C 91.347656 75.277344 91.660156 75.496094 91.886719 75.773438 C 92.117188 76.050781 92.230469 76.410156 92.230469 76.859375 C 92.230469 77.164062 92.160156 77.445312 92.027344 77.699219 C 91.882812 77.964844 91.6875 78.1875 91.441406 78.363281 C 91.1875 78.550781 90.882812 78.699219 90.527344 78.804688 C 90.140625 78.910156 89.746094 78.960938 89.34375 78.957031 C 88.703125 78.957031 88.164062 78.839844 87.71875 78.613281 C 87.277344 78.382812 86.945312 78.09375 86.714844 77.742188 C 86.492188 77.386719 86.378906 77.023438 86.378906 76.652344 L 88.113281 76.652344 C 88.121094 76.902344 88.183594 77.101562 88.300781 77.253906 C 88.425781 77.40625 88.578125 77.515625 88.765625 77.585938 C 88.957031 77.652344 89.160156 77.6875 89.378906 77.6875 C 89.617188 77.6875 89.8125 77.652344 89.96875 77.589844 C 90.125 77.523438 90.246094 77.433594 90.324219 77.324219 C 90.414062 77.207031 90.457031 77.074219 90.453125 76.929688 Z M 97.476562 77.183594 L 97.476562 71.960938 L 99.304688 71.960938 L 99.304688 78.828125 L 97.585938 78.828125 Z M 97.679688 75.773438 L 98.21875 75.761719 C 98.21875 76.21875 98.167969 76.644531 98.058594 77.039062 C 97.964844 77.40625 97.804688 77.746094 97.585938 78.054688 C 97.371094 78.335938 97.105469 78.558594 96.785156 78.71875 C 96.464844 78.878906 96.085938 78.957031 95.648438 78.957031 C 95.316406 78.957031 95.007812 78.910156 94.722656 78.816406 C 94.449219 78.722656 94.207031 78.570312 94 78.363281 C 93.785156 78.132812 93.628906 77.871094 93.53125 77.570312 C 93.421875 77.246094 93.363281 76.855469 93.363281 76.398438 L 93.363281 71.960938 L 95.191406 71.960938 L 95.191406 76.410156 C 95.191406 76.613281 95.214844 76.785156 95.261719 76.925781 C 95.3125 77.0625 95.382812 77.179688 95.472656 77.265625 C 95.5625 77.355469 95.664062 77.417969 95.78125 77.457031 C 95.90625 77.496094 96.039062 77.515625 96.1875 77.515625 C 96.566406 77.515625 96.859375 77.4375 97.078125 77.285156 C 97.300781 77.128906 97.457031 76.921875 97.539062 76.664062 C 97.632812 76.398438 97.679688 76.101562 97.679688 75.773438 Z M 104.40625 77.28125 L 104.40625 74.21875 C 104.40625 74 104.367188 73.8125 104.296875 73.65625 C 104.226562 73.492188 104.113281 73.367188 103.960938 73.28125 C 103.8125 73.191406 103.621094 73.148438 103.382812 73.148438 C 103.179688 73.148438 103.003906 73.183594 102.855469 73.253906 C 102.707031 73.320312 102.59375 73.421875 102.515625 73.554688 C 102.433594 73.679688 102.394531 73.832031 102.394531 74.003906 L 100.566406 74.003906 C 100.566406 73.710938 100.632812 73.433594 100.769531 73.171875 C 100.90625 72.910156 101.101562 72.679688 101.359375 72.480469 C 101.636719 72.265625 101.945312 72.105469 102.28125 72.003906 C 102.671875 71.882812 103.074219 71.828125 103.484375 71.832031 C 104.019531 71.832031 104.492188 71.921875 104.90625 72.097656 C 105.320312 72.277344 105.648438 72.542969 105.882812 72.898438 C 106.125 73.253906 106.246094 73.699219 106.246094 74.230469 L 106.246094 77.171875 C 106.246094 77.546875 106.269531 77.855469 106.316406 78.097656 C 106.359375 78.335938 106.429688 78.542969 106.515625 78.71875 L 106.515625 78.828125 L 104.671875 78.828125 C 104.570312 78.605469 104.503906 78.371094 104.46875 78.128906 C 104.425781 77.847656 104.40625 77.566406 104.40625 77.28125 Z M 104.644531 74.644531 L 104.660156 75.679688 L 103.636719 75.679688 C 103.394531 75.679688 103.1875 75.707031 103.007812 75.761719 C 102.847656 75.808594 102.699219 75.886719 102.570312 75.996094 C 102.457031 76.09375 102.371094 76.207031 102.316406 76.339844 C 102.265625 76.480469 102.238281 76.625 102.242188 76.773438 C 102.242188 76.929688 102.277344 77.070312 102.351562 77.195312 C 102.421875 77.320312 102.523438 77.417969 102.660156 77.488281 C 102.796875 77.558594 102.953125 77.589844 103.136719 77.589844 C 103.410156 77.589844 103.648438 77.535156 103.851562 77.425781 C 104.054688 77.316406 104.210938 77.179688 104.324219 77.019531 C 104.4375 76.859375 104.496094 76.707031 104.5 76.5625 L 104.984375 77.335938 C 104.90625 77.523438 104.8125 77.707031 104.703125 77.875 C 104.589844 78.0625 104.441406 78.238281 104.265625 78.402344 C 104.074219 78.574219 103.859375 78.707031 103.625 78.804688 C 103.375 78.90625 103.078125 78.957031 102.738281 78.957031 C 102.320312 78.960938 101.925781 78.875 101.550781 78.695312 C 101.207031 78.527344 100.925781 78.28125 100.710938 77.964844 C 100.503906 77.640625 100.402344 77.285156 100.40625 76.898438 C 100.40625 76.539062 100.476562 76.21875 100.609375 75.941406 C 100.746094 75.660156 100.945312 75.425781 101.207031 75.234375 C 101.472656 75.039062 101.804688 74.894531 102.203125 74.796875 C 102.601562 74.695312 103.0625 74.644531 103.585938 74.644531 Z M 102.609375 71.03125 L 103.851562 69.078125 L 105.839844 69.078125 L 104.09375 71.03125 Z M 109.480469 73.457031 L 109.480469 78.828125 L 107.652344 78.828125 L 107.652344 71.960938 L 109.371094 71.960938 Z M 111.550781 71.914062 L 111.515625 73.609375 C 111.410156 73.597656 111.300781 73.585938 111.195312 73.578125 C 111.082031 73.566406 110.96875 73.558594 110.859375 73.558594 C 110.601562 73.558594 110.375 73.59375 110.183594 73.660156 C 110.007812 73.71875 109.847656 73.816406 109.714844 73.945312 C 109.589844 74.082031 109.496094 74.234375 109.4375 74.410156 C 109.378906 74.59375 109.34375 74.800781 109.335938 75.03125 L 108.964844 74.917969 C 108.964844 74.472656 109.011719 74.066406 109.101562 73.691406 C 109.175781 73.34375 109.304688 73.015625 109.488281 72.707031 C 109.648438 72.441406 109.859375 72.226562 110.121094 72.0625 C 110.386719 71.902344 110.671875 71.828125 110.976562 71.832031 C 111.078125 71.832031 111.183594 71.839844 111.289062 71.859375 C 111.394531 71.871094 111.480469 71.890625 111.550781 71.914062 Z M 114.339844 71.960938 L 114.339844 78.828125 L 112.507812 78.828125 L 112.507812 71.960938 Z M 112.394531 70.167969 C 112.394531 69.902344 112.484375 69.683594 112.671875 69.507812 C 112.859375 69.335938 113.109375 69.25 113.421875 69.25 C 113.730469 69.25 113.976562 69.335938 114.164062 69.507812 C 114.351562 69.683594 114.449219 69.902344 114.449219 70.167969 C 114.449219 70.4375 114.351562 70.65625 114.164062 70.828125 C 113.976562 71.003906 113.730469 71.089844 113.421875 71.089844 C 113.109375 71.089844 112.859375 71.003906 112.671875 70.828125 C 112.480469 70.652344 112.386719 70.433594 112.394531 70.167969 Z M 115.558594 75.464844 L 115.558594 75.332031 C 115.558594 74.828125 115.632812 74.363281 115.773438 73.941406 C 115.917969 73.511719 116.128906 73.140625 116.402344 72.828125 C 116.679688 72.515625 117.015625 72.273438 117.417969 72.097656 C 117.820312 71.921875 118.28125 71.832031 118.800781 71.832031 C 119.320312 71.832031 119.785156 71.921875 120.191406 72.097656 C 120.585938 72.265625 120.929688 72.507812 121.210938 72.828125 C 121.492188 73.144531 121.703125 73.511719 121.847656 73.941406 C 121.988281 74.363281 122.0625 74.828125 122.0625 75.332031 L 122.0625 75.464844 C 122.066406 75.9375 121.996094 76.402344 121.847656 76.855469 C 121.710938 77.265625 121.5 77.636719 121.210938 77.964844 C 120.9375 78.277344 120.597656 78.523438 120.195312 78.695312 C 119.796875 78.867188 119.332031 78.957031 118.8125 78.957031 C 118.292969 78.957031 117.832031 78.867188 117.425781 78.695312 C 117.03125 78.527344 116.6875 78.285156 116.402344 77.964844 C 116.121094 77.636719 115.910156 77.265625 115.773438 76.855469 C 115.625 76.402344 115.554688 75.9375 115.558594 75.464844 Z M 117.386719 75.332031 L 117.386719 75.464844 C 117.386719 75.75 117.410156 76.019531 117.460938 76.269531 C 117.507812 76.503906 117.585938 76.722656 117.703125 76.929688 C 117.816406 77.117188 117.964844 77.261719 118.148438 77.367188 C 118.328125 77.472656 118.550781 77.527344 118.8125 77.527344 C 119.066406 77.527344 119.285156 77.472656 119.46875 77.367188 C 119.648438 77.261719 119.796875 77.117188 119.90625 76.929688 C 120.015625 76.738281 120.09375 76.519531 120.144531 76.269531 C 120.203125 76.019531 120.230469 75.75 120.230469 75.464844 L 120.230469 75.332031 C 120.230469 75.066406 120.203125 74.800781 120.144531 74.542969 C 120.101562 74.308594 120.019531 74.089844 119.898438 73.882812 C 119.792969 73.691406 119.648438 73.539062 119.460938 73.425781 C 119.277344 73.316406 119.058594 73.261719 118.800781 73.261719 C 118.542969 73.261719 118.324219 73.316406 118.140625 73.425781 C 117.957031 73.542969 117.8125 73.695312 117.703125 73.882812 C 117.585938 74.089844 117.507812 74.308594 117.460938 74.542969 C 117.410156 74.789062 117.386719 75.050781 117.386719 75.332031 Z M 117.386719 75.332031 " fill-opacity="1" fill-rule="nonzero"></path></g><g clip-path="url(#b033a0e784)"><path fill="#ffffff" d="M 69.335938 10.132812 L 100.730469 10.132812 L 100.730469 55.871094 L 69.335938 55.871094 Z M 69.335938 10.132812 " fill-opacity="1" fill-rule="nonzero"></path></g><g clip-path="url(#55472cde90)"><path fill="#000000" d="M 47.324219 30.492188 L 51.523438 30.492188 C 53.15625 30.492188 54.503906 30.207031 55.574219 29.644531 C 56.664062 29.078125 57.46875 28.300781 57.992188 27.308594 C 58.519531 26.316406 58.78125 25.175781 58.78125 23.890625 C 58.78125 22.546875 58.539062 21.398438 58.050781 20.445312 C 57.585938 19.472656 56.867188 18.722656 55.894531 18.195312 C 54.941406 17.671875 53.726562 17.40625 52.25 17.40625 C 51.007812 17.40625 49.878906 17.660156 48.871094 18.167969 C 47.878906 18.652344 47.089844 19.355469 46.507812 20.269531 C 45.925781 21.164062 45.632812 22.234375 45.632812 23.480469 L 38.578125 23.480469 C 38.578125 21.222656 39.171875 19.21875 40.359375 17.464844 C 41.542969 15.714844 43.15625 14.339844 45.195312 13.347656 C 47.257812 12.335938 49.570312 11.832031 52.132812 11.832031 C 54.875 11.832031 57.265625 12.289062 59.304688 13.203125 C 61.363281 14.097656 62.96875 15.441406 64.113281 17.234375 C 65.261719 19.023438 65.835938 21.242188 65.835938 23.890625 C 65.835938 25.097656 65.554688 26.324219 64.988281 27.570312 C 64.425781 28.816406 63.589844 29.957031 62.480469 30.988281 C 61.375 32 59.996094 32.828125 58.34375 33.46875 C 56.691406 34.09375 54.777344 34.402344 52.601562 34.402344 L 47.324219 34.402344 Z M 47.324219 35.980469 L 47.324219 32.125 L 52.601562 32.125 C 55.089844 32.125 57.207031 32.417969 58.957031 33.003906 C 60.722656 33.585938 62.160156 34.394531 63.269531 35.425781 C 64.378906 36.4375 65.183594 37.597656 65.6875 38.902344 C 66.214844 40.207031 66.476562 41.585938 66.476562 43.046875 C 66.476562 45.035156 66.117188 46.804688 65.398438 48.363281 C 64.699219 49.902344 63.695312 51.203125 62.394531 52.277344 C 61.09375 53.347656 59.566406 54.152344 57.820312 54.699219 C 56.089844 55.246094 54.203125 55.515625 52.164062 55.515625 C 50.335938 55.515625 48.585938 55.265625 46.917969 54.757812 C 45.246094 54.25 43.75 53.503906 42.425781 52.507812 C 41.105469 51.496094 40.054688 50.242188 39.277344 48.742188 C 38.519531 47.222656 38.140625 45.472656 38.140625 43.484375 L 45.167969 43.484375 C 45.167969 44.75 45.457031 45.871094 46.042969 46.84375 C 46.644531 47.796875 47.480469 48.546875 48.546875 49.09375 C 49.636719 49.636719 50.878906 49.910156 52.28125 49.910156 C 53.757812 49.910156 55.03125 49.648438 56.097656 49.121094 C 57.167969 48.597656 57.984375 47.816406 58.546875 46.785156 C 59.128906 45.753906 59.421875 44.507812 59.421875 43.046875 C 59.421875 41.394531 59.101562 40.050781 58.460938 39.019531 C 57.820312 37.984375 56.90625 37.226562 55.71875 36.738281 C 54.535156 36.234375 53.136719 35.980469 51.523438 35.980469 Z M 78.660156 49.382812 L 79.242188 49.382812 C 81.925781 49.382812 84.160156 49.035156 85.949219 48.332031 C 87.753906 47.613281 89.195312 46.621094 90.261719 45.355469 C 91.332031 44.089844 92.097656 42.601562 92.566406 40.886719 C 93.03125 39.171875 93.265625 37.3125 93.265625 35.308594 L 93.265625 27.980469 C 93.265625 26.246094 93.082031 24.726562 92.710938 23.421875 C 92.359375 22.101562 91.855469 21 91.195312 20.125 C 90.554688 19.226562 89.804688 18.558594 88.949219 18.109375 C 88.113281 17.660156 87.210938 17.4375 86.238281 17.4375 C 85.171875 17.4375 84.207031 17.679688 83.355469 18.167969 C 82.519531 18.632812 81.808594 19.285156 81.226562 20.125 C 80.660156 20.941406 80.226562 21.90625 79.914062 23.015625 C 79.621094 24.105469 79.476562 25.273438 79.476562 26.519531 C 79.476562 27.6875 79.613281 28.816406 79.886719 29.90625 C 80.175781 30.976562 80.605469 31.929688 81.167969 32.769531 C 81.730469 33.605469 82.441406 34.265625 83.296875 34.753906 C 84.152344 35.242188 85.152344 35.484375 86.296875 35.484375 C 87.386719 35.484375 88.386719 35.28125 89.300781 34.871094 C 90.214844 34.441406 91.011719 33.867188 91.691406 33.148438 C 92.371094 32.425781 92.90625 31.621094 93.292969 30.722656 C 93.683594 29.828125 93.894531 28.914062 93.933594 27.980469 L 96.617188 28.796875 C 96.617188 30.277344 96.304688 31.738281 95.683594 33.175781 C 95.082031 34.597656 94.234375 35.902344 93.148438 37.089844 C 92.078125 38.257812 90.824219 39.191406 89.386719 39.894531 C 87.96875 40.59375 86.425781 40.945312 84.753906 40.945312 C 82.730469 40.945312 80.945312 40.566406 79.390625 39.804688 C 77.855469 39.027344 76.570312 37.976562 75.542969 36.652344 C 74.53125 35.328125 73.773438 33.808594 73.269531 32.097656 C 72.761719 30.382812 72.511719 28.582031 72.511719 26.695312 C 72.511719 24.648438 72.820312 22.734375 73.441406 20.941406 C 74.066406 19.152344 74.96875 17.574219 76.152344 16.210938 C 77.339844 14.828125 78.777344 13.757812 80.46875 13 C 82.179688 12.21875 84.113281 11.832031 86.269531 11.832031 C 88.5625 11.832031 90.574219 12.277344 92.300781 13.171875 C 94.03125 14.070312 95.488281 15.304688 96.675781 16.882812 C 97.859375 18.460938 98.753906 20.289062 99.355469 22.371094 C 99.960938 24.457031 100.261719 26.695312 100.261719 29.089844 L 100.261719 31.570312 C 100.261719 34.082031 100.039062 36.507812 99.589844 38.84375 C 99.144531 41.160156 98.414062 43.308594 97.402344 45.296875 C 96.414062 47.261719 95.101562 48.996094 93.46875 50.496094 C 91.855469 51.972656 89.875 53.132812 87.523438 53.96875 C 85.191406 54.785156 82.449219 55.195312 79.300781 55.195312 L 78.660156 55.195312 Z M 78.660156 49.382812 " fill-opacity="1" fill-rule="nonzero"></path></g></svg>