<svg xmlns="http://www.w3.org/2000/svg" xmlns:xlink="http://www.w3.org/1999/xlink" width="808" height="808" viewBox="0 0 808 808">
  <defs>
    <clipPath id="clip-OL1_bg_azul">
      <rect width="808" height="808"/>
    </clipPath>
  </defs>
  <g id="OL1_bg_azul" data-name="OL1 bg azul" clip-path="url(#clip-OL1_bg_azul)">
    <rect width="808" height="808" fill="#4a58ff"/>
    <path id="Union_1" data-name="Union 1" d="M674.139,800.908c-.655-.146-1.316-.446-1.983-.668-42.07-16.885-70.706-59.469-85.107-126.723a605.077,605.077,0,0,1-3.436-191.487A1155.121,1155.121,0,0,1,624.43,272.7a726.136,726.136,0,0,1,33.852-90.895A358.607,358.607,0,0,1,705.054,102.3a130.333,130.333,0,0,1,59.472-43.176,91.919,91.919,0,0,1,27.021-4.55,67.954,67.954,0,0,1,37.729,12.481A107.562,107.562,0,0,1,866.5,134.669a305.144,305.144,0,0,1,3.751,90.679A635.168,635.168,0,0,1,816.8,418.3,1145.71,1145.71,0,0,1,716.439,602.888c-10.212,15.271-22.652,30.284-33.081,44.679-.584.877-1.316,1.76-1.982,2.567v.076a23.947,23.947,0,0,0-5.5,8.516,20.859,20.859,0,0,0,1.309,9.914c.214.807.444,1.538.673,2.206,1.692,6.894,5.213,13.858,9.267,20.148,6.743,10.4,14.48,20.12,26,24.816,2.135.807,4.335,1.468,6.541,2.059A61.479,61.479,0,0,0,756,716.031a121.875,121.875,0,0,0,36.49-20.266c.447,1.322.884,2.644,1.392,3.965a214.749,214.749,0,0,0,31.946,59.323l.3.591a102.235,102.235,0,0,1-33.338,28.482,142.87,142.87,0,0,1-42.446,16.447,145.3,145.3,0,0,1-76.207-3.666Zm3.812-267.48a1.909,1.909,0,0,0,.89-.146,5.885,5.885,0,0,0,4.406-2.936A1031.626,1031.626,0,0,0,754.611,381.3,578.254,578.254,0,0,0,792.493,228.36a251.353,251.353,0,0,0-1.016-68.353c-1.26-6.025-4.773-23.278-16.236-25.846a12.669,12.669,0,0,0-4.182-.3,24.192,24.192,0,0,0-14.832,11.013,182.457,182.457,0,0,0-22.1,45.6,1005.353,1005.353,0,0,0-43.9,173.2,1231.923,1231.923,0,0,0-18.436,163.436,5.774,5.774,0,0,0,4.412,6.1v-.076A4.57,4.57,0,0,0,677.951,533.428ZM12.274,323.874A269.014,269.014,0,0,1,.009,241.349,291.884,291.884,0,0,1,2.652,201.4,222.094,222.094,0,0,1,161.687,10.944c3.234-.946,6.532-1.836,9.836-2.644,1.692-.438,3.381-.877,5.143-1.245A280.569,280.569,0,0,1,234.088.076C236.135,0,238.27,0,240.323,0c6.608,0,13.149.23,19.528.738,2.934.153,5.948.369,8.808.661,2.142.153,4.118.369,6.024.661a249.772,249.772,0,0,1,56.541,13A226.833,226.833,0,0,1,355.6,25.268,214.436,214.436,0,0,1,415.585,68.66,233.062,233.062,0,0,1,477.7,199.272c1.915-1.176,3.751-2.344,5.58-3.59a137.674,137.674,0,0,0,16.961-13.441,142.189,142.189,0,0,0,30.909-41.631c1.031-2.2,2.123-4.4,3.084-6.686a44.265,44.265,0,0,0,1.906-4.32A192.761,192.761,0,0,0,551.86,60.068V49.931l-1.989-42.8h89.2c1.1,6.672,1.912,16.955,2.5,23.856l.223-.07c.737,8.077,1.108,16.37,1.108,24.816a272.005,272.005,0,0,1-10.723,77.245c-1.028,3.966-2.273,7.848-3.595,11.674a229.455,229.455,0,0,1-43.031,69.015c-1.606,1.976-3.3,3.889-4.91,5.8a206.024,206.024,0,0,1-30.264,27.313c-1.386,1.169-2.714,2.122-4.106,3.082A228.195,228.195,0,0,1,477.7,282.389c-.144,1.322-.291,2.567-.514,3.889A228.924,228.924,0,0,1,470,318.51c-1.037,3.966-2.282,7.862-3.61,11.674A219.542,219.542,0,0,1,427.259,399.2c-1.621,1.99-3.3,3.9-4.926,5.8a207.459,207.459,0,0,1-34.284,30.4,215.916,215.916,0,0,1-41.486,22.986,252.751,252.751,0,0,1-60.206,16.961,302.92,302.92,0,0,1-46.035,3.444C126.225,478.788,42.373,418.8,12.274,323.874ZM160.656,95.382a12.353,12.353,0,0,0-1.683,1.03,147.474,147.474,0,0,0-53.674,63.88,198.148,198.148,0,0,0-16.371,81.057v.947c.441,96.481,60.647,163.213,151.325,163.213a136.854,136.854,0,0,0,19.9-1.169A149.669,149.669,0,0,0,301.2,393.987a133.548,133.548,0,0,0,40.963-26.214,142.108,142.108,0,0,0,30.918-41.625c1.092-2.205,2.123-4.48,3.151-6.679.661-1.468,1.251-2.936,1.906-4.4l-.07-.153a168.126,168.126,0,0,0,7.266-22.026c-4.773-.223-9.637-.438-14.333-.877C270.911,283.224,197.975,225.57,170.409,138.4a258.143,258.143,0,0,1-9.683-43.064A.709.709,0,0,0,160.656,95.382Zm87.45-20.85c6.743,78.817,55.268,134.571,127.822,143.977a141.756,141.756,0,0,0,14.694,1.252c-.083-.445-.083-.884-.153-1.322a166.109,166.109,0,0,0-55-111.974,140.954,140.954,0,0,0-30.319-19.536,147.428,147.428,0,0,0-42.66-12.321c-3.451-.445-6.979-.807-10.576-1.106-1.245-.07-2.567-.223-3.889-.292A7.713,7.713,0,0,0,248.106,74.532Z" transform="translate(-32.017 0)" fill="#f7f7f7" stroke="rgba(0,0,0,0)" stroke-miterlimit="10" stroke-width="1"/>
  </g>
</svg>
