<?xml version="1.0" encoding="UTF-8"?>
<svg id="Layer_2" data-name="Layer 2" xmlns="http://www.w3.org/2000/svg" viewBox="0 0 4868.12 1944.48">
  <defs>
    <style>
      .cls-1 {
        fill: #8b23e5;
      }

      .cls-1, .cls-2 {
        stroke-width: 0px;
      }

      .cls-2 {
        fill: #FFFFFF;
      }
    </style>
  </defs>
  <g id="Camada_1" data-name="Camada 1">
    <g id="contele_fleet_logo" data-name="contele fleet logo">
      <g>
        <path class="cls-1" d="M4437.07,1687.33c-.17-28.36-8.95-56.08-25.43-79.35-18.1-21.72-45.48-33.49-73.69-31.71-21.71-.68-43.13,5.14-61.52,16.71-17,11.33-30.28,27.43-38.16,46.28-6.3,15.39-10.27,31.59-11.92,48.07h210.72Z"/>
        <path class="cls-1" d="M4058.35,1687.33c-.17-28.36-8.95-56.08-25.43-79.35-18.1-21.72-45.48-33.49-73.69-31.71-21.72-.68-43.15,5.14-61.55,16.71-16.98,11.34-30.25,27.43-38.13,46.27-6.29,15.4-10.26,31.6-11.92,48.08h210.71Z"/>
        <path class="cls-1" d="M3215.56,1320.56v623.92h1649.92v-623.92h-1649.92ZM3540.57,1540.03v44.84h-99.54v301.14l-57.65-.06v-301.15h-68.37v-44.84h68.37v-12.12c0-45.99,11.51-80.86,34.54-104.61,23.02-23.75,58.5-37.04,106.43-39.88l27.73-1.39,4.98,44.13-32.73,2.15c-16.68.63-33,5-47.75,12.8-12.14,6.94-21.65,17.7-27.05,30.6-6.1,15.64-9,32.34-8.51,49.12v19.24h99.56ZM3750.69,1887.41c-7.58,1.39-14.84,2.59-21.67,3.55-6.97.92-13.99,1.38-21.02,1.39l-.03.06c-29.85,2.16-59.06-9.39-79.38-31.36-19.35-25.73-28.82-57.54-26.7-89.66v-387.29h57.65v382.98c-.39,14.31,1.9,28.56,6.77,42.02,3.82,10.5,10.94,19.49,20.28,25.61,10.11,5.99,21.73,8.95,33.47,8.55,5.61.02,11.21-.35,16.76-1.11,5.16-.63,10.26-1.69,15.25-3.17l-1.39,48.44ZM4108.07,1725.04h-261.16c.91,20.8,5.51,41.3,13.72,60.51,8.56,19.22,23.16,35.11,41.59,45.25,20.42,10.63,43.22,15.88,66.23,15.25,20.2.02,40.27-3.26,59.41-9.71,20.06-6.87,38.56-17.65,54.45-31.7l19.94,40.64c-17.44,15.26-37.76,26.86-59.76,34.12-23.76,8.5-48.8,12.85-74.04,12.87l.06.11c-32.76.89-65.21-6.59-94.28-21.73-25.98-14.12-47.27-35.53-61.24-61.59-28.84-59.94-28.96-129.71-.35-189.75,13.44-25.97,33.77-47.74,58.76-62.93,26.12-15.53,56.07-23.44,86.46-22.84,28.22-.82,56.09,6.35,80.42,20.67,22.54,13.98,40.48,34.26,51.6,58.34,12.78,28.39,19,59.3,18.19,90.43v22.04ZM4486.84,1725.04h-261.21c.91,20.8,5.51,41.31,13.72,60.52,8.55,19.22,23.16,35.11,41.59,45.25,20.42,10.63,43.22,15.88,66.23,15.25,20.21.02,40.29-3.26,59.44-9.71,20.06-6.87,38.57-17.64,54.45-31.7l19.94,40.64c-17.45,15.26-37.78,26.86-59.79,34.12-23.76,8.5-48.8,12.85-74.04,12.87l.06.1c-32.76.88-65.21-6.59-94.28-21.73-25.98-14.11-47.27-35.52-61.23-61.59-28.87-59.93-28.99-129.72-.35-189.75,13.44-25.97,33.76-47.74,58.75-62.93,26.13-15.53,56.09-23.44,86.49-22.84,28.22-.82,56.09,6.34,80.42,20.67,22.54,13.98,40.49,34.26,51.62,58.34,12.78,28.39,19,59.3,18.19,90.43v22.04ZM4743.06,1888.1c-11.19,2.77-22.67,4.2-34.19,4.28h.03c-40.85.01-71.46-10.92-91.83-32.79-20.37-21.87-30.58-52.95-30.61-93.23v-181.56h-67.62v-44.85h67.62v-106.08h57.69v106.08h109.53v44.85h-109.53v175.85c-1.54,21.88,4.49,43.62,17.08,61.57,14.25,15.2,34.72,22.96,55.46,21.02,7.68-.04,15.33-1,22.78-2.86,7.58-1.9,14.47-3.8,20.67-5.7l9.97,44.12c-8.6,4.19-17.69,7.31-27.05,9.29Z"/>
      </g>
      <g id="Grupo_50" data-name="Grupo 50">
        <path id="Caminho_99" data-name="Caminho 99" class="cls-2" d="M4093.02,19.56c-17.35-12.29-37.98-19.1-59.23-19.56-14.4.26-28.68,2.66-42.37,7.14-36.94,13.17-69.31,36.68-93.26,67.73-29.72,38.23-54.37,80.14-73.35,124.69-20.86,46.27-38.6,93.9-53.09,142.54-31.43,107.2-52.85,217.09-64,328.25-14.15,99.71-12.33,201.05,5.39,300.19,22.57,105.47,67.45,172.23,133.45,198.73,1.04.35,2.08.82,3.11,1.04,38.61,12.53,79.88,14.52,119.52,5.75,23.42-4.99,45.89-13.7,66.55-25.8,20.45-10.93,38.29-26.17,52.27-44.67l-.46-.93c-21.49-28.16-38.4-59.53-50.11-92.96-.82-2.07-1.48-4.16-2.18-6.21-17.1,13.82-36.47,24.57-57.23,31.78-18.27,6.68-38.14,7.69-56.98,2.87-3.47-.9-6.89-1.97-10.25-3.22-17.28-8.44-31.52-22.04-40.75-38.92-6.54-9.67-11.45-20.35-14.56-31.6-.35-1.04-.69-2.18-1.04-3.45-1.95-4.93-2.66-10.26-2.07-15.53,1.88-5.02,4.82-9.57,8.62-13.35v-.12c1.04-1.28,2.18-2.65,3.11-4.03,16.35-22.56,35.85-46.1,51.88-70.06,61.25-91.45,113.97-188.33,157.49-289.43,43.76-95.8,72.06-197.93,83.83-302.59,5.14-47.43,3.15-95.36-5.89-142.2-5.68-41.34-26.47-79.12-58.37-106.02M4035.37,272.56c-8.79,82.25-28.8,162.91-59.47,239.74-30.99,80.78-68.42,158.94-111.92,233.73-1.44,2.56-4.02,4.28-6.93,4.63-.44.19-.91.27-1.39.24-.95.03-1.89-.13-2.77-.46v.11c-4.37-1.01-7.32-5.09-6.93-9.55,3.91-85.98,13.57-171.6,28.91-256.29,14.83-92.4,37.87-183.3,68.85-271.61,8.19-25.34,19.89-49.4,34.77-71.49,5.13-8.6,13.47-14.81,23.18-17.28,2.2-.21,4.41-.05,6.56.46,18.02,4.03,23.57,31.09,25.5,40.53,5.42,35.49,5.96,71.55,1.59,107.19"/>
        <path id="Caminho_100" data-name="Caminho 100" class="cls-2" d="M2792.59,1032.06c-36.89,22.15-79.2,33.63-122.23,33.18-99.24,0-141.08-58.93-141.08-176.78v-338.3h283.83v-110.13h-283.91v-224.85l-138.02,7.81v217.04h-116.38v110.13h116.4v342.82c0,187.77,76.01,288.39,265.28,288.39,67.17,1.54,133.51-15,192.1-47.89-22.7-31.42-41.49-65.48-55.96-101.44h-.01Z"/>
        <path id="Caminho_101" data-name="Caminho 101" class="cls-2" d="M3547.52,968.79h0c-87.35,59.06-173.51,95.67-272.58,97.91-145.8,0-237.21-88.46-251.22-223.35h549.05c4.43-23,6.45-46.4,6.03-69.82.48-48.71-7.92-97.1-24.78-142.81-44.95-119.06-150.53-200.03-308.6-200.03-221.84,0-363.01,158.14-363.01,376.83s147.36,373.82,381.63,373.82c111.95-2.95,220.91-36.79,314.84-97.76-10.53-27.28-19.05-55.3-25.5-83.83-2.32-10.34-4.16-20.7-5.86-31.04M3245.49,545.53c116.3,0,192.4,79.03,193.84,200.13h-412.63c20.19-117.96,100.77-200.13,218.73-200.13"/>
        <path id="Caminho_102" data-name="Caminho 102" class="cls-2" d="M4842.59,999.82c-2.18-10.34-4.16-20.7-5.84-31.04-87.35,59.06-173.51,95.67-272.58,97.91-145.83,0-237.21-88.46-251.22-223.35h549.05c4.43-23,6.45-46.4,6.03-69.82.48-48.71-7.92-97.1-24.78-142.81-44.95-119.06-150.67-200.03-308.6-200.03-221.84,0-363.04,158.14-363.04,376.83s147.36,373.82,381.63,373.82c111.96-2.95,220.93-36.78,314.87-97.76-10.55-27.28-19.07-55.3-25.5-83.83M4534.82,545.4c116.3,0,192.4,79.03,193.86,200.13h-412.7c20.19-117.96,100.8-200.13,218.76-200.13"/>
        <path id="Caminho_103" data-name="Caminho 103" class="cls-2" d="M422.35,1042.67c-39.11.62-78.02-5.79-114.86-18.94-31.58-11.26-60.54-28.82-85.12-51.62-22.59-21.38-40.47-47.24-52.51-75.92-12.12-29.19-18.29-60.51-18.12-92.12-.5-65.16,26.72-127.47,74.87-171.38,23.72-21.59,51.25-38.58,81.19-50.09,31.67-12.27,65.37-18.45,99.33-18.22,22.11-.05,44.2,1.16,66.18,3.62,20.49,2.37,40.79,6.16,60.76,11.36,19.82,5.14,39.17,11.96,57.83,20.38,4.35,1.94,8.73,4.01,13.21,6.07v-134.61c-29.29-15.6-60.53-27.22-92.89-34.57-34.46-7.73-69.69-11.51-105.01-11.29-54.75-.48-109.1,9.4-160.18,29.12-47.67,18.39-91.48,45.54-129.17,80.04-36.5,33.7-65.84,74.42-86.25,119.71C10.4,700.92-.38,751.69.01,803c-.23,50.27,9.82,100.07,29.53,146.32,19.28,45.6,47.95,86.63,84.16,120.4,38.61,35.51,83.76,63.18,132.94,81.46,56.18,20.93,115.76,31.23,175.71,30.36,38.55.47,77.03-3.32,114.75-11.29,22.67-5.17,45.3-13.21,84.58-24.29v-146.04c-40.75,13.28-64.55,23.02-87.9,29.28-36.39,9.33-73.84,13.87-111.4,13.49"/>
        <path id="Caminho_104" data-name="Caminho 104" class="cls-2" d="M1718.37,853.99c-3.41,4.01-6.93,8-10.34,12.05-41.44,45.42-91.7,81.92-147.7,107.29v196.55h162.22v-321.15c-1.39,1.79-2.77,3.42-4.16,5.2v.07Z"/>
        <path id="Caminho_105" data-name="Caminho 105" class="cls-2" d="M1872.78,430.73c-16.27-.02-32.53.98-48.68,2.99,2.32,13.38,3.73,27.09,4.94,41.05,1.53,17,2.32,34.4,2.32,52.03s-.76,34.95-2.32,51.83c14.24-3.48,28.85-5.2,43.51-5.12,94.16,0,152.51,61.96,152.51,161.83v434.64h162.22v-435.77c0-181.53-126.52-303.49-314.73-303.49"/>
        <path id="Caminho_106" data-name="Caminho 106" class="cls-2" d="M1704,479.2h-.35c-.96-10.83-2.22-26.94-3.92-37.44h-139.92l3.13,67.23v15.9c-1.38,37.53-9.75,74.48-24.67,108.95-.88,2.32-1.88,4.58-2.99,6.79-1.51,3.56-3.22,6.93-4.82,10.48-12.03,24.56-28.48,46.68-48.53,65.28-8.3,7.71-17.2,14.76-26.61,21.07-2.87,1.97-5.75,3.8-8.76,5.63-9.91-76.87-44-148.61-97.36-204.83-27.18-27.96-59.01-50.98-94.07-68.03-12.41-6.08-25.16-11.42-38.2-16-28.69-10.22-58.47-17.06-88.74-20.4-3.01-.46-6.1-.79-9.46-1.04-4.48-.46-9.25-.82-13.86-1.04-10.04-.79-20.25-1.17-30.64-1.16-3.22,0-6.53,0-9.71.11-30.34.53-60.54,4.19-90.12,10.94-2.77.58-5.41,1.28-8.07,1.94-5.2,1.28-10.36,2.66-15.45,4.16-136.13,39.59-234.67,157.75-249.15,298.77-2.81,20.74-4.2,41.65-4.16,62.59-.35,43.87,6.13,87.54,19.22,129.41,47.14,148.87,178.73,242.94,357.62,242.94,24.16.04,48.29-1.76,72.18-5.41,32.46-4.92,64.18-13.86,94.43-26.61,22.93-9.59,44.74-21.68,65.03-36.05,19.64-13.84,37.68-29.82,53.78-47.65,2.58-2.99,5.2-5.98,7.72-9.08,26.86-32.05,47.66-68.72,61.37-108.23,2.08-5.98,4.03-12.08,5.66-18.32,4.98-16.55,8.75-33.45,11.27-50.55.35-2.07.6-4.03.82-6.1,38.45-10.88,74.81-28.11,107.56-51,2.16-1.51,4.27-3.01,6.45-4.84,17.19-12.67,33.08-27.03,47.43-42.84,2.55-3.01,5.2-6,7.7-9.08,28.77-31.77,51.63-68.42,67.51-108.23,2.04-6,4.01-12.1,5.55-18.32,11.39-39.36,17.05-80.15,16.8-121.12,0-13.24-.58-26.25-1.72-38.92M1290.52,924.79c-1.03,2.32-1.94,4.63-2.97,6.93-1.62,3.45-3.22,6.93-4.96,10.48-12.01,24.57-28.46,46.7-48.53,65.28-18.7,17.53-40.48,31.46-64.24,41.1-20.57,8.43-42.24,13.89-64.35,16.22-10.34,1.36-20.77,1.97-31.2,1.83-142.14.03-236.56-104.65-237.26-255.9v-1.59c-.46-43.7,8.28-87.01,25.65-127.11,17.82-40.8,47.05-75.59,84.17-100.16.83-.61,1.7-1.15,2.62-1.62,3.14,22.9,8.24,45.49,15.25,67.52,43.19,136.75,157.62,227.18,314.5,240.87,7.38.69,15,1.04,22.49,1.39-2.98,11.76-6.79,23.31-11.38,34.54l.19.24ZM1287.06,773.41c-113.78-14.74-189.88-102.18-200.42-225.79-.12-.68-.16-1.37-.14-2.07,2.08,0,4.16.35,6.1.46,5.63.46,11.18,1.04,16.64,1.73,23.11,3.03,45.63,9.55,66.79,19.31,17.1,8.13,33.09,18.42,47.57,30.63,50.45,45.12,81.37,108.09,86.24,175.6-.03.7.04,1.39.21,2.07-7.7-.25-15.38-.9-23.02-1.94"/>
      </g>
    </g>
  </g>
</svg>