<?xml version="1.0" encoding="UTF-8"?>
<svg id="Layer_2" data-name="Layer 2" xmlns="http://www.w3.org/2000/svg" viewBox="0 0 4831.28 1929.34">
  <defs>
    <style>
      .cls-1 {
        fill: #FFFFFF;
      }

      .cls-1, .cls-2 {
        stroke-width: 0px;
      }

      .cls-2 {
        fill: #4a58ff;
      }
    </style>
  </defs>
  <g id="Camada_1" data-name="Camada 1">
    <g>
      <g id="Grupo_51" data-name="Grupo 51">
        <path id="Caminho_81" data-name="Caminho 81" class="cls-1" d="M4061.15,19.41c-17.21-12.19-37.68-18.95-58.77-19.41-14.29.25-28.46,2.64-42.04,7.08-36.65,13.06-68.77,36.38-92.53,67.19-29.48,37.93-53.94,79.52-72.77,123.72-20.7,45.91-38.3,93.17-52.68,141.44-31.18,106.37-52.44,215.4-63.5,325.7-14.05,98.97-12.24,199.54,5.37,297.93,22.4,104.65,66.93,170.89,132.41,197.18,1.03.34,2.06.81,3.08,1.03,38.31,12.44,79.25,14.41,118.58,5.71,23.24-4.95,45.53-13.6,66.03-25.6,20.3-10.84,37.99-25.97,51.86-44.32l-.45-.92c-21.34-27.96-38.12-59.11-49.73-92.31-.81-2.05-1.47-4.13-2.16-6.16-16.97,13.71-36.18,24.38-56.79,31.53-18.13,6.63-37.84,7.63-56.54,2.85-3.44-.89-6.83-1.96-10.17-3.19-17.15-8.38-31.28-21.87-40.43-38.62-6.48-9.6-11.36-20.19-14.44-31.35-.34-1.03-.69-2.16-1.03-3.43-1.94-4.89-2.64-10.18-2.05-15.41,1.87-4.98,4.79-9.5,8.56-13.25v-.11c1.03-1.27,2.16-2.63,3.08-4,16.22-22.38,35.58-45.76,51.48-69.51,60.78-90.74,113.09-186.87,156.27-287.19,43.42-95.05,71.5-196.39,83.17-300.23,5.1-47.06,3.13-94.62-5.85-141.09-5.63-41.02-26.27-78.5-57.92-105.2M4003.95,270.43c-8.72,81.61-28.57,161.65-59,237.87-30.75,80.15-67.89,157.7-111.05,231.91-1.43,2.54-3.99,4.24-6.88,4.59-.43.19-.9.27-1.38.23-.94.03-1.87-.13-2.75-.45v.11c-4.33-1-7.27-5.05-6.88-9.48,3.88-85.31,13.46-170.27,28.68-254.3,14.71-91.69,37.58-181.88,68.32-269.5,8.12-25.14,19.74-49.02,34.5-70.93,5.09-8.53,13.37-14.7,23-17.14,2.18-.21,4.38-.05,6.51.45,17.88,4,23.39,30.84,25.3,40.21,5.38,35.21,5.91,71,1.58,106.35"/>
        <path id="Caminho_82" data-name="Caminho 82" class="cls-1" d="M2770.85,1024.01c-36.61,21.97-78.59,33.37-121.28,32.92-98.47,0-139.98-58.47-139.98-175.4v-335.55h281.62v-109.3h-281.7v-223.17l-136.95,7.75v215.35h-115.48v109.27h115.49v340.13c0,186.31,75.42,286.14,263.21,286.14,66.64,1.53,132.47-14.88,190.6-47.52-22.52-31.17-41.17-64.97-55.52-100.65h-.01Z"/>
        <path id="Caminho_83" data-name="Caminho 83" class="cls-1" d="M3519.89,961.25h0c-86.67,58.6-172.15,94.92-270.46,97.15-144.67,0-235.37-87.77-249.26-221.61h544.77c4.39-22.82,6.4-46.04,5.98-69.28.47-48.33-7.86-96.35-24.58-141.7-44.6-118.13-149.36-198.47-306.2-198.47-220.11,0-360.18,156.91-360.18,373.9s146.21,370.9,378.66,370.9c111.08-2.93,219.19-36.49,312.39-96.99-10.45-27.07-18.9-54.87-25.3-83.17-2.3-10.26-4.13-20.54-5.82-30.8M3220.21,541.28c115.39,0,190.9,78.41,192.34,198.57h-409.42c20.03-117.04,99.99-198.57,217.03-198.57"/>
        <path id="Caminho_84" data-name="Caminho 84" class="cls-1" d="M4804.88,992.04c-2.16-10.26-4.13-20.54-5.79-30.8-86.67,58.6-172.15,94.92-270.46,97.15-144.7,0-235.37-87.77-249.26-221.61h544.77c4.39-22.82,6.4-46.04,5.98-69.28.47-48.33-7.86-96.35-24.58-141.7-44.6-118.13-149.5-198.47-306.2-198.47-220.11,0-360.21,156.91-360.21,373.9s146.21,370.9,378.66,370.9c111.09-2.92,219.21-36.49,312.42-96.99-10.47-27.06-18.92-54.86-25.3-83.17M4499.5,541.16c115.39,0,190.9,78.41,192.35,198.57h-409.49c20.03-117.04,100.01-198.57,217.06-198.57"/>
        <path id="Caminho_85" data-name="Caminho 85" class="cls-1" d="M419.06,1034.55c-38.81.62-77.41-5.75-113.96-18.79-31.33-11.17-60.07-28.6-84.45-51.22-22.41-21.22-40.16-46.87-52.1-75.33-12.03-28.96-18.14-60.04-17.98-91.4-.49-64.66,26.51-126.48,74.29-170.05,23.52-21.42,50.83-38.28,80.52-49.7,31.42-12.17,64.86-18.3,98.55-18.08,21.94-.05,43.86,1.15,65.66,3.59,20.33,2.35,40.48,6.11,60.28,11.27,19.67,5.1,38.86,11.87,57.38,20.22,4.32,1.93,8.67,3.98,13.11,6.03v-133.57c-29.06-15.47-60.06-27.01-92.17-34.3-34.2-7.67-69.15-11.42-104.2-11.2-54.33-.47-108.25,9.33-158.93,28.89-47.29,18.25-90.74,45.19-128.12,79.42-36.22,33.44-65.33,73.84-85.58,118.78C10.32,695.46-.38,745.84.01,796.75c-.23,49.88,9.75,99.29,29.3,145.18,19.13,45.25,47.58,85.96,83.5,119.47,38.3,35.23,83.08,62.68,131.86,80.82,55.74,20.77,114.86,30.98,174.34,30.13,38.25.47,76.43-3.29,113.85-11.2,22.49-5.13,44.94-13.11,83.92-24.1v-144.9c-40.43,13.18-64.05,22.84-87.22,29.05-36.1,9.26-73.27,13.76-110.54,13.39"/>
        <path id="Caminho_86" data-name="Caminho 86" class="cls-1" d="M1704.98,847.34c-3.38,3.98-6.88,7.94-10.26,11.95-41.12,45.05-90.99,81.26-146.55,106.42v195.05h160.96v-318.65c-1.38,1.77-2.75,3.4-4.13,5.14v.08Z"/>
        <path id="Caminho_87" data-name="Caminho 87" class="cls-1" d="M1858.2,427.37c-16.15-.02-32.28.97-48.3,2.97,2.3,13.28,3.7,26.88,4.9,40.73,1.51,16.87,2.3,34.13,2.3,51.63s-.76,34.68-2.3,51.42c14.13-3.46,28.63-5.16,43.17-5.08,93.42,0,151.33,61.48,151.33,160.57v431.2h160.96v-432.33c0-180.12-125.53-301.13-312.28-301.13"/>
        <path id="Caminho_88" data-name="Caminho 88" class="cls-1" d="M1690.72,475.47h-.34c-.95-10.74-2.2-26.73-3.89-37.14h-138.84l3.11,66.71v15.78c-1.37,37.24-9.67,73.9-24.47,108.1-.87,2.3-1.86,4.55-2.97,6.74-1.5,3.54-3.19,6.88-4.79,10.4-11.93,24.37-28.25,46.32-48.15,64.77-8.24,7.65-17.06,14.65-26.4,20.91-2.85,1.95-5.71,3.77-8.69,5.59-9.83-76.28-43.66-147.45-96.6-203.23-26.97-27.74-58.55-50.58-93.34-67.51-12.31-6.03-24.97-11.33-37.9-15.88-28.46-10.14-58.01-16.93-88.04-20.24-2.99-.45-6.05-.78-9.38-1.03-4.44-.45-9.18-.81-13.76-1.03-9.96-.78-20.09-1.16-30.4-1.16-3.19,0-6.48,0-9.63.11-30.1.52-60.07,4.16-89.42,10.85-2.75.58-5.37,1.27-8.01,1.93-5.16,1.27-10.28,2.64-15.33,4.13-135.11,39.24-232.93,156.48-247.32,296.43-2.79,20.58-4.17,41.33-4.13,62.1-.35,43.53,6.08,86.85,19.07,128.41,46.77,147.71,177.34,241.05,354.83,241.05,23.97.04,47.92-1.75,71.62-5.37,32.21-4.88,63.68-13.75,93.7-26.4,22.75-9.52,44.39-21.51,64.52-35.77,19.49-13.73,37.39-29.59,53.36-47.28,2.56-2.97,5.16-5.93,7.66-9.01,26.65-31.8,47.29-68.19,60.89-107.39,2.06-5.93,4-11.98,5.61-18.17,4.94-16.42,8.68-33.19,11.18-50.16.34-2.05.59-4,.81-6.05,38.15-10.79,74.22-27.9,106.73-50.6,2.15-1.5,4.24-2.99,6.4-4.8,17.06-12.58,32.82-26.82,47.06-42.51,2.53-2.99,5.16-5.96,7.64-9.01,28.54-31.52,51.23-67.89,66.98-107.39,2.02-5.96,3.98-12.01,5.5-18.17,11.3-39.05,16.92-79.53,16.67-120.18,0-13.14-.58-26.04-1.71-38.62M1280.33,917.6c-1.02,2.3-1.93,4.59-2.94,6.88-1.61,3.43-3.19,6.88-4.93,10.4-11.92,24.37-28.24,46.33-48.15,64.77-18.56,17.39-40.16,31.22-63.74,40.78-20.41,8.36-41.91,13.78-63.85,16.1-10.26,1.35-20.61,1.96-30.95,1.82-141.09,0-234.76-103.85-235.45-253.95v-1.58c-.39-43.36,8.34-86.33,25.63-126.1,17.68-40.49,46.68-75,83.52-99.38.82-.61,1.69-1.14,2.6-1.61,3.11,22.72,8.18,45.14,15.13,67,42.87,135.7,156.4,225.41,312.08,239,7.32.69,14.89,1.03,22.31,1.38-2.96,11.67-6.73,23.12-11.29,34.27l.03.25ZM1276.9,767.36c-112.89-14.62-188.4-101.39-198.86-224.03-.12-.68-.16-1.36-.14-2.05,2.06,0,4.13.34,6.05.45,5.59.45,11.09,1.03,16.51,1.72,22.97,3,45.35,9.47,66.38,19.18,16.97,8.07,32.83,18.28,47.2,30.39,50.05,44.77,80.74,107.25,85.57,174.23-.03.69.04,1.38.21,2.05-7.64-.25-15.26-.89-22.84-1.93"/>
      </g>
      <g>
        <path class="cls-2" d="M3648.9,1698.02c-30.71,0-56.36,1-76.96,2.99-16.77,1.17-33.29,4.73-49.06,10.58-10.4,3.71-19.39,10.58-25.7,19.64-5.31,9.14-7.93,19.59-7.54,30.16-.61,19.22,7.27,37.74,21.56,50.63,16.27,13.76,37.19,20.76,58.47,19.58,18.73.36,37.18-4.6,53.2-14.31,15.37-9.59,27.88-23.15,36.22-39.23,9.06-17.74,13.59-37.45,13.21-57.37v-22.66h-23.4Z"/>
        <path class="cls-2" d="M3303.35,1660.35c-.18-30.07-9.49-59.45-26.95-84.12-19.19-23.02-48.2-35.51-78.11-33.61-23.04-.72-45.78,5.44-65.3,17.69-18,12.02-32.04,29.1-40.35,49.08-6.72,16.31-10.95,33.48-12.71,50.96h223.42Z"/>
        <path class="cls-2" d="M2643.93,1310.28v619.06h2187.35v-619.06h-2187.35ZM2962.18,1873.09c-11.85,2.94-24.01,4.47-36.22,4.55l-.07.03c-43.24,0-75.69-11.58-97.34-34.75-21.65-23.17-32.46-56.11-32.43-98.83v-192.47h-71.74v-47.54h71.74v-112.45h61.18v112.45h116.2v47.54h-116.2v186.39c-1.64,23.19,4.75,46.24,18.1,65.28,15.11,16.13,36.83,24.36,58.84,22.31,8.17-.04,16.3-1.05,24.23-3.01,8.02-2.02,15.27-4.04,21.85-6.09l10.55,46.77c-9.11,4.48-18.74,7.78-28.68,9.82ZM3356.07,1700.33h-276.91c.97,22.07,5.86,43.83,14.59,64.2,9.09,20.38,24.6,37.23,44.16,47.98,21.62,11.29,45.77,16.88,70.16,16.22,21.42.04,42.71-3.4,63.02-10.21,21.27-7.31,40.9-18.71,57.78-33.58l21.12,43.03c-18.49,16.17-40.04,28.47-63.36,36.18-25.19,9-51.74,13.61-78.5,13.63v-.12c-34.73.95-69.14-6.98-99.97-23.03-27.55-14.96-50.11-37.66-64.91-65.3-30.59-63.53-30.73-137.5-.38-201.14,14.24-27.53,35.76-50.62,62.22-66.75,27.71-16.46,59.48-24.85,91.7-24.2,29.93-.86,59.49,6.73,85.29,21.91,23.89,14.85,42.92,36.37,54.72,61.91,13.55,30.1,20.13,62.87,19.26,95.87v23.39ZM3731.15,1639.9v230.92h-57.41v-63.57c-4.12,9.8-9.47,19.06-16.27,27.34-11.35,13.6-25.65,24.42-41.82,31.64-17.6,7.76-36.66,11.64-55.89,11.36l.07.08c-23.36.39-46.48-4.66-67.55-14.75-18.98-9.09-35.25-23-47.17-40.35-11.48-16.91-17.52-36.93-17.32-57.37-1.35-23.24,6.06-46.14,20.77-64.19,18.75-18.11,42.82-29.72,68.66-33.14,43.23-7.49,87.08-10.79,130.94-9.85h24.14v-23.4c0-31.18-6.29-53.7-18.86-67.55-12.57-13.85-33.21-20.77-61.91-20.77-21.73-.07-43.34,3.12-64.12,9.45-22.46,7.15-43.8,17.43-63.39,30.54l-21.12-44.53c13.94-9.52,28.87-17.5,44.53-23.79,16.8-6.81,34.21-11.99,52-15.48,17.16-3.41,34.6-5.17,52.1-5.27,26.98-.93,53.81,4.37,78.41,15.48,20.24,9.89,36.49,26.39,46.07,46.77,10.97,25.34,16.14,52.81,15.13,80.41ZM4376.48,1642.18v228.65h-61.18v-225.61c0-33.72-5.77-58.49-17.32-74.29-11.55-15.8-31.17-23.74-58.88-23.83-18.26-.38-36.22,4.62-51.66,14.38-15.06,9.79-26.89,23.83-33.97,40.35-8.24,19.44-12.24,40.41-11.73,61.52v207.54h-61.16v-225.61c0-33.72-5.92-58.49-17.76-74.29-14.41-17.04-36.25-25.94-58.47-23.83-37.19-1.45-71.36,20.37-85.68,54.73-8.19,19.45-12.17,40.42-11.67,61.52v207.54l-61.12-.08v-366.76h59.64v61.47c5.01-10,11.12-19.42,18.52-27.89,11.6-13.18,26.06-23.53,42.28-30.27,17.15-6.93,35.49-10.39,53.98-10.19,27.06-1.25,53.75,6.59,75.83,22.29,16.2,13.57,28.08,31.38,34.57,51.24,9.41-19.53,23.67-36.45,41.64-48.97,24.04-16.56,52.67-25.15,81.85-24.57,23.79-.93,47.4,4.55,68.36,15.85,18.31,11.18,32.48,28.01,40.36,47.96,9.83,25.9,14.44,53.48,13.56,81.17ZM4742.44,1826.81c-13.11,17.09-30.74,30.18-50.9,37.76-24.71,9.29-50.97,13.77-77.37,13.21l-.1-.11c-18.63.04-37.22-1.87-55.45-5.71-17.12-3.52-33.81-8.83-49.81-15.85-14.35-6.14-27.71-14.41-39.61-24.51l19.59-42.99c12.06,9.5,25.23,17.49,39.23,23.79,13.81,6.17,28.25,10.85,43.06,13.94,14.65,3.02,29.57,4.54,44.53,4.53,22.73,1.57,45.39-3.97,64.84-15.85,14.19-9.65,22.49-25.87,22.01-43.03.54-12.8-4.74-25.16-14.38-33.61-13.32-9.97-28.84-16.57-45.26-19.26l-68.66-15.13c-26.43-3.88-51.04-15.72-70.56-33.95-15.7-16.99-24-39.53-23.04-62.65-.54-20.89,5.69-41.4,17.76-58.47,12.84-17.13,30.23-30.32,50.19-38.07,23.99-9.54,49.66-14.18,75.47-13.63,16.51-.06,32.97,1.71,49.08,5.27,15.24,3.46,30.03,8.66,44.09,15.48,13.26,6.41,25.38,14.95,35.86,25.3l-20.37,43.02c-9.67-9.15-20.58-16.89-32.43-22.97-11.85-6.22-24.39-11.04-37.35-14.38-12.7-3.25-25.76-4.9-38.88-4.93-22.63-1.52-45.14,4.32-64.18,16.65-14.08,10.06-22.27,26.43-21.87,43.72-.43,12.96,4.47,25.53,13.56,34.78,11.89,10.44,26.52,17.27,42.17,19.69l68.78,14.38c27.08,4.41,52.49,15.99,73.59,33.54,16.73,16.28,25.66,38.97,24.51,62.29.48,20.73-5.89,41.03-18.12,57.78Z"/>
      </g>
    </g>
  </g>
</svg>