<svg id="DigitaL_preto" data-name="DigitaL preto" xmlns="http://www.w3.org/2000/svg" xmlns:xlink="http://www.w3.org/1999/xlink" width="907.635" height="1247.293" viewBox="0 0 907.635 1247.293">
  <defs>
    <clipPath id="clip-path">
      <rect id="Rectangle_5" data-name="Rectangle 5" width="907.635" height="1247.293" fill="none" stroke="#FFFFFF" stroke-width="5"/>
    </clipPath>
  </defs>
  <g id="Group_6" data-name="Group 6" clip-path="url(#clip-path)">
    <path id="Path_25" data-name="Path 25" d="M440.8,1244.831c-55.3,0-111.009-10.593-161.12-30.638C200.8,1182.592,61.655,1097.284,15.142,880.6-5.827,783.583-.19,694.05,7.067,626.921c8.513-79.526,23.36-154.763,44.1-223.43A898.841,898.841,0,0,1,92.737,292.277l.812-1.78c17.136-37.247,41.974-86.233,82.311-134.807l.735-.883C231.268,89.511,297.645,44.053,373.89,19.7A398.487,398.487,0,0,1,493.364.509L495.334.5C577.248.5,654.9,25.557,719.908,72.964,800.08,131.6,853.992,217.683,876.016,322.042c11.168,53.047,13.994,107.842,8.656,167.6-7.252,80.522-28.262,159.619-66.117,248.89L904.931,907.16,792.307,1067.931c-32.694,46.7-76.061,86.025-128.865,116.85a437.1,437.1,0,0,1-129.028,50.112A445.744,445.744,0,0,1,440.8,1244.831Z" transform="translate(0.981 0.981)" fill="none" stroke="#FFFFFF" stroke-miterlimit="10" stroke-width="5"/>
    <path id="Path_26" data-name="Path 26" d="M323.1,949.366a258.471,258.471,0,0,1-95.117-17.927c-56.214-22.516-129-76.5-156.769-205.873-15.549-71.937-11.327-140.1-5.148-197.268,7.364-68.768,20.01-133.157,37.579-191.284a722.238,722.238,0,0,1,33.4-89.382l.27-.589C150.673,218,167.964,183.929,194.893,151.5l.213-.255c32.783-39.175,71.605-66.108,115.39-80.048A220.875,220.875,0,0,1,376.971,60.5l.658,0c44.018,0,85.46,13.253,119.845,38.331,44.081,32.241,74.106,81.381,86.935,142.177,7.471,35.49,9.281,73.119,5.531,115.079-5.569,61.86-22.5,124.327-53.278,196.649-10.054,23.671-21.369,47.523-33.811,71.286l10.771,21.017s11.366,22.282,13.176,25.807L580.223,775.15l-51.19,73.078c-18.144,25.916-41.989,47.286-72.891,65.323a260.211,260.211,0,0,1-76.852,29.859A267.5,267.5,0,0,1,323.1,949.366Z" transform="translate(118.686 118.713)" fill="none" stroke="#FFFFFF" stroke-miterlimit="10" stroke-width="5"/>
    <path id="Path_27" data-name="Path 27" d="M381.915,1097.1c-44.1,0-88.407-8.4-128.121-24.281-62.47-25.025-172.777-93.292-210.652-269.735C24.838,718.4,29.989,638.087,36.53,577.608,44.463,503.529,58.2,433.751,77.325,370.4A811.176,811.176,0,0,1,114.86,269.95l.533-1.179c14.858-32.3,36.237-74.579,69.95-115.179l.43-.512c43.758-52.295,96.4-88.511,156.47-107.661a309.609,309.609,0,0,1,92.892-14.912l1.312-.006c62.962,0,122.514,19.154,172.208,55.4,62.147,45.458,104.1,113.053,121.522,195.633,9.322,44.264,11.638,90.472,7.094,141.33-6.428,71.437-25.5,142.432-60.026,223.549q-7.6,17.9-16.067,35.887c1.167,2.29,81.363,158.857,81.363,158.857l-81.9,116.927c-25.653,36.64-58.661,66.445-100.884,91.085a348.644,348.644,0,0,1-102.94,39.984A356.314,356.314,0,0,1,381.915,1097.1Z" transform="translate(59.869 59.847)" fill="none" stroke="#FFFFFF" stroke-miterlimit="10" stroke-width="5"/>
    <path id="Path_28" data-name="Path 28" d="M264.207,801.634a168.863,168.863,0,0,1-62.118-11.57c-52.564-21.058-87.172-68.836-102.88-142.014-12.9-59.68-9.1-118.959-3.682-169.068,6.783-63.359,18.321-122.289,34.291-175.123a633.3,633.3,0,0,1,29.338-78.546c10.99-23.89,24.877-51.415,45.215-75.91,21.861-26.124,46.871-43.746,74.408-52.467a132.087,132.087,0,0,1,39.96-6.437c25.143,0,48.405,7.352,67.485,21.266,26.393,19.3,43.992,49.146,52.342,88.727,5.625,26.7,6.923,55.758,3.969,88.822C437.828,341.6,423.043,395.533,396,459.067A922.222,922.222,0,0,1,343.28,563.561l32.368,63.145,6.573,12.877c2.222,4.36,4.411,8.664,6.618,12.966l28.991,56.6-20.475,29.231c-10.78,15.4-25.048,27.969-44.9,39.554a171.892,171.892,0,0,1-50.766,19.734A178.346,178.346,0,0,1,264.207,801.634Z" transform="translate(177.577 177.58)" fill="none" stroke="#FFFFFF" stroke-miterlimit="10" stroke-width="5"/>
    <path id="Path_29" data-name="Path 29" d="M421.172,1195.587c-51.548,0-103.455-9.858-150.1-28.508-73.436-29.418-202.962-109.048-246.6-312.318C4.4,761.858,9.87,675.4,16.89,610.483,25.2,532.8,39.669,459.413,59.857,392.551a870.192,870.192,0,0,1,40.256-107.724l.809-1.771c16.331-35.5,39.969-82.145,78.093-128.062l.812-.969C230.785,93.2,292.515,50.887,363.311,28.279a368.649,368.649,0,0,1,110.653-17.77l1.955-.009c75.444,0,146.988,23.087,206.89,66.765C734.6,115.143,801.517,185.863,827.4,308.539c10.551,50.112,13.208,102.039,8.134,158.831-7,77.8-27.5,154.491-64.523,241.482Q768.647,714.419,766.2,720L850.8,885.151l-102.38,146.167c-30.25,43.189-70.468,79.612-119.531,108.251a407.636,407.636,0,0,1-120.334,46.738A415.628,415.628,0,0,1,421.172,1195.587Z" transform="translate(20.612 20.603)" fill="none" stroke="#FFFFFF" stroke-miterlimit="10" stroke-width="5"/>
    <path id="Path_30" data-name="Path 30" d="M303.466,900.122a228.654,228.654,0,0,1-84.115-15.806c-49.531-19.841-113.772-67.95-138.809-184.587C65.879,631.88,69.958,566.678,75.885,511.857c7.169-66.961,19.444-129.534,36.48-185.893A691.946,691.946,0,0,1,144.413,240.2l.27-.6c12.512-27.2,28.636-59.016,53.367-88.8l.213-.255c29.089-34.761,63.3-58.572,101.669-70.77A191.12,191.12,0,0,1,357.565,70.5l.649,0c37.558,0,72.888,11.286,102.176,32.641,26.577,19.441,61.131,56.72,75.406,124.362,6.854,32.561,8.493,67.325,5.009,106.322-5.279,58.678-21.5,118.3-51.03,187.688-11.7,27.531-25.057,55.141-39.984,82.616l17.838,34.8s11.031,21.627,13.182,25.827l45.28,88.4-40.953,58.465c-15.64,22.332-36.435,40.893-63.557,56.723a230.861,230.861,0,0,1-68.16,26.488A237.7,237.7,0,0,1,303.466,900.122Z" transform="translate(138.318 138.336)" fill="none" stroke="#FFFFFF" stroke-miterlimit="10" stroke-width="5"/>
    <path id="Path_31" data-name="Path 31" d="M362.285,1047.854a318.3,318.3,0,0,1-117.114-22.16c-57-22.833-157.7-85.418-192.7-248.449-17.415-80.569-12.421-157.812-6.12-216.075,7.737-72.26,21.1-140.219,39.691-201.8a782.755,782.755,0,0,1,36.183-96.852l.542-1.188C136.828,230.768,157,190.829,188.5,152.9l.427-.509C228.971,104.525,276.97,71.434,331.6,54.02a279.99,279.99,0,0,1,84.136-13.514l1.3-.006c56.5,0,109.939,17.184,154.532,49.7,39.214,28.683,89.918,82.66,110,177.815,8.706,41.341,10.851,84.681,6.576,132.577C682,468.853,663.636,537,630.356,615.186q-10.171,23.95-21.849,47.9l3.747,7.34c2.162,4.248,4.3,8.439,6.446,12.625l69.712,136.1-71.67,102.312c-23.15,33.061-53.1,60.053-91.547,82.495a319.4,319.4,0,0,1-94.249,36.607A326.394,326.394,0,0,1,362.285,1047.854Z" transform="translate(79.499 79.469)" fill="none" stroke="#FFFFFF" stroke-miterlimit="10" stroke-width="5"/>
    <path id="Path_32" data-name="Path 32" d="M244.578,752.39a139,139,0,0,1-51.119-9.452c-42.839-17.16-71.4-57.775-84.918-120.725-12.015-55.6-8.356-111.918-3.193-159.669,6.591-61.546,17.758-118.663,33.195-169.734a604.541,604.541,0,0,1,27.987-74.935c10.137-22.042,22.856-47.318,41-69.168,18.161-21.7,38.55-36.21,60.672-43.186a102.942,102.942,0,0,1,31.127-5.021c18.683,0,35.834,5.385,49.815,15.578,20.294,14.844,34.012,38.692,40.81,70.906,5.009,23.781,6.138,49.969,3.448,80.071-4.42,49.107-18.493,100.191-44.285,160.783-21.263,50.07-48.693,100.549-81.517,150.012-8.433,12.613-16.12,23.742-23.49,34.015a51.375,51.375,0,0,0,2.322,5.809c.945,1.851,2.479,4.147,4.556,4.953a15.708,15.708,0,0,0,6.01,1.126,23.006,23.006,0,0,0,7.465-1.315,65.731,65.731,0,0,0,20.072-11.253l28.39-23.23L329.658,620.6q3.284,6.407,6.543,12.817,3.319,6.518,6.653,13.031l20.848,40.7-10.237,14.612c-8.244,11.775-19.548,21.612-35.57,30.964a142.4,142.4,0,0,1-42.066,16.36A148.676,148.676,0,0,1,244.578,752.39Z" transform="translate(197.206 197.202)" fill="none" stroke="#FFFFFF" stroke-miterlimit="10" stroke-width="5"/>
    <path id="Path_33" data-name="Path 33" d="M401.543,1146.343c-47.828,0-95.94-9.13-139.123-26.4-67.938-27.217-187.854-101.162-228.611-291.016-19.2-88.816-13.878-172.2-7.1-234.894,8.128-75.909,22.234-147.515,41.9-212.633a841.823,841.823,0,0,1,38.882-104.027l.8-1.754c15.534-33.769,37.97-78.075,73.886-121.329l.726-.868C230.159,96.99,287.264,57.782,352.64,36.89A340.083,340.083,0,0,1,454.6,20.509l1.911-.009c68.984,0,134.41,21.118,189.208,61.066,68.175,49.872,114.113,123.622,133.074,213.451,9.935,47.2,12.423,96.266,7.619,150.086-6.721,74.636-26.5,148.48-62.28,232.527q-5.008,11.788-10.383,23.627l82.927,161.888L704.533,994.692c-27.744,39.623-64.784,73.137-110.076,99.6a378.587,378.587,0,0,1-111.77,43.441A386.115,386.115,0,0,1,401.543,1146.343Z" transform="translate(40.24 40.225)" fill="none" stroke="#FFFFFF" stroke-miterlimit="10" stroke-width="5"/>
    <path id="Path_34" data-name="Path 34" d="M283.837,850.878a198.752,198.752,0,0,1-73.122-13.691c-42.837-17.16-98.535-59.4-120.84-163.3-13.78-63.762-9.843-126.009-4.168-178.473,6.976-65.142,18.881-125.906,35.387-180.5a662.911,662.911,0,0,1,30.694-82.16l.27-.589c11.659-25.351,26.618-54.922,49.152-82.059l.213-.252c25.357-30.309,54.9-50.986,87.812-61.46A162.624,162.624,0,0,1,338.158,80.5l.643,0c31.1,0,60.319,9.319,84.5,26.95,32.516,23.787,53.971,59.6,63.877,106.542,6.241,29.64,7.708,61.54,4.491,97.575-4.994,55.5-20.5,112.268-48.785,178.722A939.732,939.732,0,0,1,396.6,583.977l25.037,48.841c2.21,4.313,10.987,21.541,13.194,25.842l37.131,72.485L441.252,775c-13.143,18.769-30.884,34.516-54.235,48.145a201.461,201.461,0,0,1-59.457,23.108A208.025,208.025,0,0,1,283.837,850.878Z" transform="translate(157.947 157.958)" fill="none" stroke="#FFFFFF" stroke-miterlimit="10" stroke-width="5"/>
    <path id="Path_35" data-name="Path 35" d="M342.656,998.61a288.354,288.354,0,0,1-106.124-20.048C185.014,957.927,93.926,901.023,61.807,751.408,45.28,674.942,50.115,600.771,56.175,544.726,63.714,474.312,76.7,408.2,94.749,348.391A753.758,753.758,0,0,1,129.6,255.07l.539-1.182c13.256-28.819,32.232-66.419,61.522-101.693l.421-.5c36.3-43.39,79.624-73.341,128.77-89.035a251.35,251.35,0,0,1,75.48-12.151l1.286-.006c50.041,0,97.365,15.217,136.857,44.01,35.025,25.623,80.326,74.017,98.476,160,8.087,38.42,10.063,78.9,6.055,123.823-5.865,65.092-23.505,130.384-55.535,205.63q-12.677,29.846-27.765,59.712s14.855,29.077,17.021,33.3L634.28,797.145l-61.421,87.7c-20.623,29.444-47.455,53.583-82.029,73.794a290.369,290.369,0,0,1-85.744,33.348A296.954,296.954,0,0,1,342.656,998.61Z" transform="translate(99.127 99.091)" fill="none" stroke="#FFFFFF" stroke-miterlimit="10" stroke-width="5"/>
    <path id="Path_36" data-name="Path 36" d="M197.319,579.026a22,22,0,0,0,1.6-1.988c8.176-11.325,16.351-23.2,24.361-35.188,31.823-47.952,58.394-96.84,78.946-145.237,24.527-57.618,37.9-105.849,42.037-151.81,2.429-27.238,1.434-50.6-2.927-71.321-5.249-24.862-15.084-42.7-29.278-53.092-8.949-6.52-20.11-9.891-32.152-9.891a73.985,73.985,0,0,0-22.43,3.646c-16.63,5.246-32.374,16.627-46.791,33.864-15.966,19.225-27.566,42.371-36.794,62.425a573.334,573.334,0,0,0-26.63,71.321c-14.858,49.167-25.685,104.468-32.1,164.352-4.917,45.461-8.4,98.887,2.707,150.264,11.325,52.76,33.864,86.182,66.955,99.438,19.337,7.734,43.091,9.443,65.133,4.7a113.112,113.112,0,0,0,33.369-12.983c12.21-7.127,20.552-14.254,26.239-22.374l-12.7-24.808c-4.42-8.614-8.783-17.237-13.2-25.854a95.713,95.713,0,0,1-29.225,16.351c-11.6,3.978-23.591,3.869-33.811-.219-8.673-3.371-15.744-10.11-20.439-19.556a80.833,80.833,0,0,1-5.637-15.8c-.166-.5-.332-1.1-.5-1.712-.717-2.376-1.6-5.3-1.049-7.785.551-2.319,2.542-4.7,4.31-6.739m-5.693-92.039a4.594,4.594,0,0,1-3.481-4.751,974.07,974.07,0,0,1,14.533-128.6c7.349-41.207,17.181-89.66,34.527-136.179,4.36-11.769,9.284-25.028,17.4-35.914,2.1-2.817,6.076-8.066,11.656-8.617,11.656-.933,14.971,15.249,16.02,20.552,3.427,18.12,2.322,37.345.829,53.755-3.424,37.179-13.146,76.567-29.776,120.322A819.347,819.347,0,0,1,197.2,484.778a4.8,4.8,0,0,1-4.2,2.432,3.784,3.784,0,0,1-1.38-.222" transform="translate(216.839 216.824)" fill="none" stroke="#FFFFFF" stroke-miterlimit="10" stroke-width="5"/>
  </g>
</svg>
