<svg id="Logo_2_linhas_preto" data-name="Logo 2 linhas preto" xmlns="http://www.w3.org/2000/svg" width="1667.898" height="894.831" viewBox="0 0 1667.898 894.831">
  <g id="Group_56" data-name="Group 56" transform="translate(353.529 296.005)">
    <path id="Path_53" data-name="Path 53" d="M3204.158,9.919A54.038,54.038,0,0,0,3174.167,0a73.183,73.183,0,0,0-21.473,3.616,103.623,103.623,0,0,0-47.27,34.315,285.269,285.269,0,0,0-37.171,63.2,577.005,577.005,0,0,0-26.9,72.247A917.712,917.712,0,0,0,3008.9,339.747a480.752,480.752,0,0,0,2.732,152.192c11.446,53.455,34.2,87.3,67.642,100.721.531.177,1.054.41,1.575.527a115.429,115.429,0,0,0,60.572,2.918,113.711,113.711,0,0,0,33.733-13.073,81.19,81.19,0,0,0,26.5-22.641l-.236-.467a170.549,170.549,0,0,1-25.388-47.152c-.408-1.048-.754-2.1-1.11-3.151a96.782,96.782,0,0,1-29,16.108,48.854,48.854,0,0,1-28.883,1.459,53.643,53.643,0,0,1-5.2-1.636c-9.157-3.732-15.308-11.457-20.659-19.723a54.482,54.482,0,0,1-7.37-16.015c-.177-.527-.362-1.109-.531-1.753a16.429,16.429,0,0,1-1.042-7.876,19.028,19.028,0,0,1,4.366-6.77v-.06c.527-.642,1.11-1.342,1.576-2.043,8.289-11.437,18.176-23.372,26.292-35.511a910.508,910.508,0,0,0,79.772-146.7,504.847,504.847,0,0,0,42.483-153.361,242.548,242.548,0,0,0-2.982-72.07,85.514,85.514,0,0,0-29.585-53.746M3174.92,138.128a459.528,459.528,0,0,1-30.109,121.556,819.513,819.513,0,0,1-56.718,118.461,4.664,4.664,0,0,1-3.506,2.334,1.486,1.486,0,0,1-.7.117,3.646,3.646,0,0,1-1.394-.234v.06a4.583,4.583,0,0,1-3.507-4.845,979.29,979.29,0,0,1,14.655-129.9,798.444,798.444,0,0,1,34.889-137.661A144.86,144.86,0,0,1,3146.1,71.776a19.206,19.206,0,0,1,11.785-8.753,10.162,10.162,0,0,1,3.324.233c9.113,2.044,11.907,15.757,12.906,20.542a199.563,199.563,0,0,1,.808,54.33" transform="translate(-2282.601 0)" fill="#FFFFFF"/>
    <path id="Path_54" data-name="Path 54" d="M2110.221,588.817a117.936,117.936,0,0,1-61.959,16.808c-50.3,0-71.509-29.872-71.509-89.6V344.588h143.861V288.757H1976.735V174.772l-69.948,3.957V288.742h-59.008v55.817h59.008V518.3c0,95.115,38.523,146.194,134.46,146.194a190.078,190.078,0,0,0,97.365-24.28,242.315,242.315,0,0,1-28.359-51.415Z" transform="translate(-1847.779 -65.724)" fill="#FFFFFF"/>
    <path id="Path_55" data-name="Path 55" d="M2678.4,622.6h-.014c-44.292,29.941-87.948,48.484-138.165,49.628-73.9,0-120.226-44.83-127.323-113.205h278.277a171.666,171.666,0,0,0,3.051-35.388,203.554,203.554,0,0,0-12.559-72.349c-22.781-60.339-76.3-101.38-156.413-101.38-112.428,0-184,80.157-184,190.995,0,113.206,74.685,189.467,193.426,189.467,56.565-2.617,112.736-17.7,159.574-49.542-4.858-12.785-10.117-29.094-12.889-42.488-1.124-5.241-2.131-10.5-2.968-15.738M2525.327,408.077c58.949,0,97.471,40.078,98.249,101.426H2414.458c10.229-59.789,51.079-101.426,110.869-101.426" transform="translate(-2033.345 -131.58)" fill="#FFFFFF"/>
    <path id="Path_56" data-name="Path 56" d="M3728.606,638.339c-1.107-5.241-2.12-10.5-2.96-15.738h-.018c-44.285,29.941-87.937,48.484-138.153,49.628-73.908,0-120.232-44.83-127.324-113.205h278.273a171.565,171.565,0,0,0,3.05-35.388,203.459,203.459,0,0,0-12.555-72.349c-22.781-60.339-76.31-101.38-156.415-101.38-112.432,0-184,80.157-184,190.995,0,113.206,74.687,189.467,193.427,189.467,56.575-2.617,112.74-17.7,159.583-49.542-4.871-12.785-10.132-29.094-12.905-42.488M3572.573,408.077c58.95,0,97.471,40.078,98.253,101.426H3461.7c10.226-59.789,51.083-101.426,110.87-101.426" transform="translate(-2427.142 -131.58)" fill="#FFFFFF"/>
  </g>
  <path id="Path_57" data-name="Path 57" d="M214.058,658.383a165.518,165.518,0,0,1-58.229-9.6A125.233,125.233,0,0,1,112.7,622.616a113.421,113.421,0,0,1-26.615-38.475A120.138,120.138,0,0,1,76.9,537.447a116.311,116.311,0,0,1,37.973-86.862,130.975,130.975,0,0,1,41.168-25.4,136.921,136.921,0,0,1,50.354-9.234,296.07,296.07,0,0,1,33.548,1.832,223.528,223.528,0,0,1,30.8,5.755,182.354,182.354,0,0,1,29.3,10.327c2.2.985,4.441,2.032,6.693,3.078V368.723a189.64,189.64,0,0,0-47.079-17.514,236.46,236.46,0,0,0-53.213-5.725,220.041,220.041,0,0,0-81.185,14.744,207.641,207.641,0,0,0-65.5,40.584A187.606,187.606,0,0,0,15.982,461.5,179.066,179.066,0,0,0,.007,536.907,187.055,187.055,0,0,0,14.96,611.074,178.528,178.528,0,0,0,57.645,672.1,204.943,204.943,0,0,0,125,713.388a245.013,245.013,0,0,0,89.062,15.39,266.341,266.341,0,0,0,58.166-5.725c11.486-2.616,22.956-6.695,42.861-12.312V636.713c-20.656,6.727-32.717,11.666-44.555,14.837a218.425,218.425,0,0,1-56.472,6.833" transform="translate(0 -345.476)" fill="#FFFFFF"/>
  <path id="Path_58" data-name="Path 58" d="M1347.484,692.09c-1.729,2.032-3.514,4.049-5.241,6.112a229.574,229.574,0,0,1-74.871,54.363V852.2h82.236V689.43c-.671.9-1.408,1.743-2.124,2.628Z" transform="translate(-476.571 -474.812)" fill="#FFFFFF"/>
  <path id="Path_59" data-name="Path 59" d="M1506.356,343.027a197.527,197.527,0,0,0-24.618,1.511c1.115,6.782,1.9,13.732,2.507,20.8.777,8.611,1.174,17.434,1.174,26.376s-.383,17.721-1.117,26.272a90.5,90.5,0,0,1,22.053-2.6c47.728,0,77.31,31.409,77.31,82.017V717.668h82.221V496.848c0-92-64.128-153.821-159.531-153.821" transform="translate(-557.18 -340.28)" fill="#FFFFFF"/>
  <path id="Path_60" data-name="Path 60" d="M1076.679,374.448l-.175.056c-.467-5.484-1.111-13.658-1.984-18.963h-70.9l1.579,34.02v8.056A153.216,153.216,0,0,1,992.7,452.882a35.789,35.789,0,0,1-1.517,3.438c-.76,1.809-1.635,3.563-2.452,5.31a112.9,112.9,0,0,1-24.566,33.089A108.609,108.609,0,0,1,950.686,505.4c-1.453.992-2.912,1.922-4.429,2.858a185.274,185.274,0,0,0-49.369-103.816,170.56,170.56,0,0,0-47.677-34.487,180.191,180.191,0,0,0-19.375-8.112A198.532,198.532,0,0,0,784.9,351.511c-1.517-.23-3.09-.4-4.787-.524-2.271-.231-4.668-.405-7-.525-5.072-.4-10.271-.586-15.524-.586-1.628,0-3.325,0-4.953.062A222.774,222.774,0,0,0,707,355.48c-1.4.293-2.746.642-4.087.992-2.628.642-5.247,1.347-7.819,2.1a176.511,176.511,0,0,0-126.4,151.375,230.831,230.831,0,0,0-2.1,31.748,213.729,213.729,0,0,0,9.745,65.591c23.922,75.451,90.57,123.128,181.251,123.128a240.524,240.524,0,0,0,36.59-2.739,200.581,200.581,0,0,0,47.852-13.484A171.618,171.618,0,0,0,875,695.93a164.543,164.543,0,0,0,27.253-24.16c1.287-1.516,2.627-3.033,3.913-4.611a174.521,174.521,0,0,0,31.1-54.854c1.055-3.032,2.047-6.127,2.865-9.278a181.056,181.056,0,0,0,5.715-25.62c.175-1.048.293-2.041.412-3.089a181.349,181.349,0,0,0,54.5-25.851c1.105-.761,2.161-1.523,3.264-2.452a163.44,163.44,0,0,0,24.049-21.708c1.279-1.522,2.626-3.038,3.906-4.61a182.286,182.286,0,0,0,34.2-54.853c1.049-3.038,2.041-6.127,2.858-9.278a216.134,216.134,0,0,0,8.523-61.393c0-6.713-.293-13.3-.879-19.724M867.124,600.287c-.522,1.167-.991,2.335-1.516,3.5-.817,1.746-1.634,3.556-2.508,5.309a112.916,112.916,0,0,1-24.571,33.083,106.176,106.176,0,0,1-32.559,20.835,119,119,0,0,1-32.621,8.23,109.7,109.7,0,0,1-15.817.929c-72.068,0-119.921-53.043-120.271-129.722V541.7a157.62,157.62,0,0,1,13.009-64.426A117.246,117.246,0,0,1,692.932,426.5a10.041,10.041,0,0,1,1.341-.818c.018-.012.037-.018.056-.031a204.746,204.746,0,0,0,7.693,34.225c21.907,69.28,79.88,115.1,159.424,122.086,3.738.349,7.6.524,11.4.7a133.922,133.922,0,0,1-5.773,17.509Zm-1.752-76.742c-57.669-7.475-96.236-51.789-101.595-114.435a5.968,5.968,0,0,1-.062-1.049c1.053.056,2.1.174,3.093.231,2.858.237,5.661.524,8.406.88a117.052,117.052,0,0,1,33.906,9.8,111.832,111.832,0,0,1,24.1,15.524,132.066,132.066,0,0,1,43.71,89c.055.349.055.7.117,1.048a111.9,111.9,0,0,1-11.673-.992" transform="translate(-213.054 -347.13)" fill="#FFFFFF"/>
</svg>
